# This file uses centimeters as units for non-parametric coordinates.

mtllib cylinder.mtl
g default
v 95.105713 -100.000000 -30.901718
v 80.901756 -100.000000 -58.778561
v 58.778561 -100.000000 -80.901749
v 30.901714 -100.000000 -95.105705
v 0.000000 -100.000000 -100.000046
v -30.901714 -100.000000 -95.105698
v -58.778549 -100.000000 -80.901733
v -80.901726 -100.000000 -58.778542
v -95.105675 -100.000000 -30.901707
v -100.000023 -100.000000 0.000000
v -95.105675 -100.000000 30.901707
v -80.901718 -100.000000 58.778538
v -58.778538 -100.000000 80.901711
v -30.901707 -100.000000 95.105667
v -0.000003 -100.000000 100.000015
v 30.901697 -100.000000 95.105659
v 58.778526 -100.000000 80.901703
v 80.901703 -100.000000 58.778530
v 95.105652 -100.000000 30.901701
v 100.000000 -100.000000 0.000000
v 95.105713 100.000000 -30.901718
v 80.901756 100.000000 -58.778561
v 58.778561 100.000000 -80.901749
v 30.901714 100.000000 -95.105705
v 0.000000 100.000000 -100.000046
v -30.901714 100.000000 -95.105698
v -58.778549 100.000000 -80.901733
v -80.901726 100.000000 -58.778542
v -95.105675 100.000000 -30.901707
v -100.000023 100.000000 0.000000
v -95.105675 100.000000 30.901707
v -80.901718 100.000000 58.778538
v -58.778538 100.000000 80.901711
v -30.901707 100.000000 95.105667
v -0.000003 100.000000 100.000015
v 30.901697 100.000000 95.105659
v 58.778526 100.000000 80.901703
v 80.901703 100.000000 58.778530
v 95.105652 100.000000 30.901701
v 100.000000 100.000000 0.000000
v 0.000000 -100.000000 0.000000
v 0.000000 100.000000 0.000000
vt 0.800266 0.000000
vt 0.800266 1.000000
vt 0.850308 1.000000
vt 0.850308 0.000000
vt 0.900349 1.000000
vt 0.900349 0.000000
vt 0.950391 0.000000
vt -0.000401 1.000000
vt -0.000401 0.000000
vt 0.049641 1.000000
vt 0.049641 0.000000
vt 0.099683 1.000000
vt 0.099683 0.000000
vt 0.149724 1.000000
vt 0.149724 0.000000
vt 0.199766 1.000000
vt 0.199766 0.000000
vt 0.249808 1.000000
vt 0.249808 0.000000
vt 0.299849 1.000000
vt 0.299849 0.000000
vt 0.349891 1.000000
vt 0.349891 0.000000
vt 0.399933 1.000000
vt 0.399933 0.000000
vt 0.449974 1.000000
vt 0.449974 0.000000
vt 0.500016 1.000000
vt 0.500016 0.000000
vt 0.550058 1.000000
vt 0.550058 0.000000
vt 0.600099 1.000000
vt 0.600099 0.000000
vt 0.650141 1.000000
vt 0.650141 0.000000
vt 0.700183 1.000000
vt 0.700183 0.000000
vt 0.750224 1.000000
vt 0.750224 0.000000
vt 0.602518 0.000000
vt 0.602518 1.000000
vt 1.000432 0.000000
vt 1.050474 0.000000
vt 1.100516 0.000000
vt 1.150558 0.000000
vt 0.950391 1.000000
vt 1.000432 1.000000
vt 1.050474 1.000000
vt 1.100516 1.000000
vn -0.951057 0.000000 0.309016
vn -0.951057 0.000000 0.309016
vn -0.809017 0.000000 0.587785
vn -0.809017 0.000000 0.587785
vn -0.587785 0.000000 0.809017
vn -0.587785 0.000000 0.809017
vn -0.309017 0.000000 0.951057
vn -0.309017 0.000000 0.951057
vn 0.000000 0.000000 1.000000
vn 0.000000 0.000000 1.000000
vn 0.309017 0.000000 0.951056
vn 0.309017 0.000000 0.951056
vn 0.587785 0.000000 0.809017
vn 0.587785 0.000000 0.809017
vn 0.809017 0.000000 0.587785
vn 0.809017 0.000000 0.587785
vn 0.951057 0.000000 0.309017
vn 0.951057 0.000000 0.309017
vn 1.000000 0.000000 0.000000
vn 1.000000 0.000000 0.000000
vn 0.951057 0.000000 -0.309017
vn 0.951057 0.000000 -0.309017
vn 0.809017 0.000000 -0.587785
vn 0.809017 0.000000 -0.587785
vn 0.587785 0.000000 -0.809017
vn 0.587785 0.000000 -0.809017
vn 0.309017 0.000000 -0.951056
vn 0.309017 0.000000 -0.951056
vn 0.000000 0.000000 -1.000000
vn 0.000000 0.000000 -1.000000
vn -0.309017 0.000000 -0.951056
vn -0.309017 0.000000 -0.951056
vn -0.587785 0.000000 -0.809017
vn -0.587785 0.000000 -0.809017
vn -0.809017 0.000000 -0.587785
vn -0.809017 0.000000 -0.587785
vn -0.951057 0.000000 -0.309017
vn -0.951057 0.000000 -0.309017
vn -1.000000 0.000000 -0.000001
vn -1.000000 0.000000 -0.000001
vn 0.000000 1.000000 0.000000
vn 0.000000 1.000000 0.000000
vn 0.000000 1.000000 -0.000000
vn 0.000000 1.000000 0.000000
vn 0.000000 1.000000 0.000000
vn 0.000000 1.000000 0.000000
vn 0.000000 1.000000 0.000000
vn 0.000000 1.000000 -0.000000
vn 0.000000 1.000000 -0.000000
vn 0.000000 1.000000 -0.000000
vn 0.000000 1.000000 0.000000
vn 0.000000 1.000000 0.000000
vn 0.000000 1.000000 0.000000
vn 0.000000 1.000000 0.000000
vn 0.000000 1.000000 -0.000000
vn 0.000000 1.000000 0.000000
vn 0.000000 1.000000 0.000000
vn 0.000000 1.000000 -0.000000
vn 0.000000 1.000000 -0.000000
vn 0.000000 1.000000 0.000000
vn 0.000000 1.000000 0.000000
vn 0.000000 -1.000000 -0.000000
vn 0.000000 -1.000000 0.000000
vn 0.000000 -1.000000 0.000000
vn 0.000000 -1.000000 0.000000
vn 0.000000 -1.000000 0.000000
vn 0.000000 -1.000000 0.000000
vn 0.000000 -1.000000 0.000000
vn 0.000000 -1.000000 -0.000000
vn 0.000000 -1.000000 -0.000000
vn 0.000000 -1.000000 -0.000000
vn 0.000000 -1.000000 0.000000
vn 0.000000 -1.000000 0.000000
vn 0.000000 -1.000000 0.000000
vn 0.000000 -1.000000 0.000000
vn 0.000000 -1.000000 -0.000000
vn 0.000000 -1.000000 0.000000
vn 0.000000 -1.000000 0.000000
vn 0.000000 -1.000000 -0.000000
vn 0.000000 -1.000000 -0.000000
vn 0.000000 -1.000000 0.000000
vn 0.000000 -1.000000 0.000000
s 1
g pCylinder1
usemtl initialShadingGroup
f 1/1/1 21/2/2 22/3/3 2/4/4
f 2/4/4 22/3/3 23/5/5 3/6/6
f 3/6/6 23/5/5 24/46/7 4/7/8
f 4/7/8 24/46/7 25/47/9 5/42/10
f 5/9/10 25/8/9 26/10/11 6/11/12
f 6/11/12 26/10/11 27/12/13 7/13/14
f 7/13/14 27/12/13 28/14/15 8/15/16
f 8/15/16 28/14/15 29/16/17 9/17/18
f 9/17/18 29/16/17 30/18/19 10/19/20
f 10/19/20 30/18/19 31/20/21 11/21/22
f 11/21/22 31/20/21 32/22/23 12/23/24
f 12/23/24 32/22/23 33/24/25 13/25/26
f 13/25/26 33/24/25 34/26/27 14/27/28
f 14/27/28 34/26/27 35/28/29 15/29/30
f 15/29/30 35/28/29 36/30/31 16/31/32
f 16/31/32 36/30/31 37/32/33 17/33/34
f 17/33/34 37/32/33 38/34/35 18/35/36
f 18/35/36 38/34/35 39/36/37 19/37/38
f 19/37/38 39/36/37 40/38/39 20/39/40
f 20/39/40 40/38/39 21/2/2 1/1/1
s 2
f 2/4/41 41/40/42 1/1/43
f 3/6/44 41/40/42 2/4/41
f 4/7/45 41/40/42 3/6/44
f 5/42/46 41/40/42 4/7/45
f 6/43/47 41/40/42 5/42/46
f 7/44/48 41/40/42 6/43/47
f 8/45/49 41/40/42 7/44/48
f 9/17/50 41/40/42 8/15/49
f 10/19/51 41/40/42 9/17/50
f 11/21/52 41/40/42 10/19/51
f 12/23/53 41/40/42 11/21/52
f 13/25/54 41/40/42 12/23/53
f 14/27/55 41/40/42 13/25/54
f 15/29/56 41/40/42 14/27/55
f 16/31/57 41/40/42 15/29/56
f 17/33/58 41/40/42 16/31/57
f 18/35/59 41/40/42 17/33/58
f 19/37/60 41/40/42 18/35/59
f 20/39/61 41/40/42 19/37/60
f 1/1/43 41/40/42 20/39/61
s 3
f 21/2/62 42/41/63 22/3/64
f 22/3/64 42/41/63 23/5/65
f 23/5/65 42/41/63 24/46/66
f 24/46/66 42/41/63 25/47/67
f 25/47/67 42/41/63 26/48/68
f 26/48/68 42/41/63 27/49/69
f 27/49/69 42/41/63 28/14/70
f 28/14/70 42/41/63 29/16/71
f 29/16/71 42/41/63 30/18/72
f 30/18/72 42/41/63 31/20/73
f 31/20/73 42/41/63 32/22/74
f 32/22/74 42/41/63 33/24/75
f 33/24/75 42/41/63 34/26/76
f 34/26/76 42/41/63 35/28/77
f 35/28/77 42/41/63 36/30/78
f 36/30/78 42/41/63 37/32/79
f 37/32/79 42/41/63 38/34/80
f 38/34/80 42/41/63 39/36/81
f 39/36/81 42/41/63 40/38/82
f 40/38/82 42/41/63 21/2/62
