<?xml version="1.0" encoding="utf-8"?>
<COLLADA xmlns="http://www.collada.org/2005/11/COLLADASchema" version="1.4.0">
  <asset>
    <contributor>
      <author></author>
      <authoring_tool>FBX COLLADA exporter</authoring_tool>
      <comments></comments>
    </contributor>
    <created>2012-05-05T10:46:01Z</created>
    <modified>2012-05-05T10:46:01Z</modified>
    <revision></revision>
    <title></title>
    <subject></subject>
    <keywords></keywords>
    <unit meter="0.010000"/>
    <up_axis>Y_UP</up_axis>
  </asset>
  <library_materials>
    <material id="lambert1" name="lambert1">
      <instance_effect url="#lambert1-fx"/>
    </material>
  </library_materials>
  <library_effects>
    <effect id="lambert1-fx" name="lambert1">
      <profile_COMMON>
        <technique sid="standard">
          <lambert>
            <emission>
              <color sid="emission">0.000000  0.000000 0.000000 1.000000</color>
            </emission>
            <ambient>
              <color sid="ambient">0.000000  0.000000 0.000000 1.000000</color>
            </ambient>
            <diffuse>
              <color sid="diffuse">0.400000  0.400000 0.400000 1.000000</color>
            </diffuse>
            <transparent>
              <color sid="transparent">0.000000  0.000000 0.000000 1.000000</color>
            </transparent>
            <transparency>
              <float sid="transparency">1.000000</float>
            </transparency>
          </lambert>
        </technique>
      </profile_COMMON>
    </effect>
  </library_effects>
  <library_geometries>
    <geometry id="pTorus1-lib" name="pTorus1Mesh">
      <mesh>
        <source id="pTorus1-lib-Position">
          <float_array id="pTorus1-lib-Position-array" count="1200">
2.040250 0.000000 -0.662917
1.735541 0.000000 -1.260944
1.260944 0.000000 -1.735540
0.662917 0.000000 -2.040250
0.000000 0.000000 -2.145246
-0.662917 0.000000 -2.040250
-1.260944 0.000000 -1.735540
-1.735540 0.000000 -1.260944
-2.040249 0.000000 -0.662917
-2.145245 0.000000 0.000000
-2.040249 0.000000 0.662917
-1.735540 0.000000 1.260943
-1.260943 0.000000 1.735539
-0.662917 0.000000 2.040249
-0.000000 0.000000 2.145245
0.662917 0.000000 2.040249
1.260943 0.000000 1.735539
1.735539 0.000000 1.260943
2.040249 0.000000 0.662917
2.145245 0.000000 0.000000
2.105650 0.434169 -0.684167
1.791173 0.434169 -1.301363
1.301363 0.434169 -1.791173
0.684167 0.434169 -2.105650
0.000000 0.434169 -2.214011
-0.684167 0.434169 -2.105650
-1.301363 0.434169 -1.791173
-1.791173 0.434169 -1.301363
-2.105649 0.434169 -0.684167
-2.214011 0.434169 0.000000
-2.105649 0.434169 0.684167
-1.791172 0.434169 1.301363
-1.301363 0.434169 1.791172
-0.684167 0.434169 2.105649
-0.000000 0.434169 2.214010
0.684167 0.434169 2.105649
1.301363 0.434169 1.791172
1.791172 0.434169 1.301363
2.105649 0.434169 0.684167
2.214010 0.434169 0.000000
2.295448 0.825838 -0.745836
1.952625 0.825838 -1.418665
1.418665 0.825838 -1.952625
0.745836 0.825838 -2.295448
0.000000 0.825838 -2.413577
-0.745836 0.825838 -2.295448
-1.418665 0.825838 -1.952624
-1.952624 0.825838 -1.418665
-2.295448 0.825838 -0.745836
-2.413576 0.825838 0.000000
-2.295448 0.825838 0.745836
-1.952624 0.825838 1.418664
-1.418664 0.825838 1.952624
-0.745836 0.825838 2.295447
-0.000000 0.825838 2.413576
0.745836 0.825838 2.295447
1.418664 0.825838 1.952624
1.952624 0.825838 1.418664
2.295447 0.825838 0.745836
2.413576 0.825838 0.000000
2.591066 1.136669 -0.841888
2.204093 1.136669 -1.601367
1.601367 1.136669 -2.204092
0.841888 1.136669 -2.591066
0.000000 1.136669 -2.724407
-0.841888 1.136669 -2.591065
-1.601366 1.136669 -2.204092
-2.204092 1.136669 -1.601366
-2.591065 1.136669 -0.841888
-2.724407 1.136669 0.000000
-2.591065 1.136669 0.841888
-2.204092 1.136669 1.601366
-1.601366 1.136669 2.204091
-0.841888 1.136669 2.591065
-0.000000 1.136669 2.724406
0.841888 1.136669 2.591064
1.601366 1.136669 2.204091
2.204091 1.136669 1.601366
2.591064 1.136669 0.841888
2.724406 1.136669 0.000000
2.963566 1.336234 -0.962921
2.520960 1.336234 -1.831584
1.831584 1.336234 -2.520960
0.962921 1.336234 -2.963566
0.000000 1.336234 -3.116077
-0.962921 1.336234 -2.963566
-1.831584 1.336234 -2.520959
-2.520959 1.336234 -1.831584
-2.963565 1.336234 -0.962921
-3.116076 1.336234 0.000000
-2.963565 1.336234 0.962921
-2.520959 1.336234 1.831584
-1.831584 1.336234 2.520959
-0.962921 1.336234 2.963565
-0.000000 1.336234 3.116076
0.962920 1.336234 2.963564
1.831583 1.336234 2.520958
2.520958 1.336234 1.831583
2.963564 1.336234 0.962920
3.116076 1.336234 0.000000
3.376485 1.405000 -1.097087
2.872210 1.405000 -2.086783
2.086783 1.405000 -2.872210
1.097086 1.405000 -3.376485
0.000000 1.405000 -3.550246
-1.097086 1.405000 -3.376485
-2.086782 1.405000 -2.872209
-2.872209 1.405000 -2.086782
-3.376484 1.405000 -1.097086
-3.550246 1.405000 0.000000
-3.376484 1.405000 1.097086
-2.872209 1.405000 2.086782
-2.086782 1.405000 2.872208
-1.097086 1.405000 3.376483
-0.000000 1.405000 3.550245
1.097086 1.405000 3.376483
2.086781 1.405000 2.872208
2.872208 1.405000 2.086782
3.376483 1.405000 1.097086
3.550245 1.405000 0.000000
3.789405 1.336235 -1.231252
3.223460 1.336235 -2.341981
2.341981 1.336235 -3.223460
1.231252 1.336235 -3.789404
0.000000 1.336235 -3.984415
-1.231252 1.336235 -3.789404
-2.341980 1.336235 -3.223459
-3.223459 1.336235 -2.341980
-3.789404 1.336235 -1.231252
-3.984414 1.336235 0.000000
-3.789404 1.336235 1.231252
-3.223459 1.336235 2.341980
-2.341980 1.336235 3.223459
-1.231252 1.336235 3.789403
-0.000000 1.336235 3.984414
1.231251 1.336235 3.789403
2.341980 1.336235 3.223459
3.223458 1.336235 2.341980
3.789403 1.336235 1.231252
3.984414 1.336235 0.000000
4.161905 1.136669 -1.352285
3.540328 1.136669 -2.572199
2.572199 1.136669 -3.540327
1.352285 1.136669 -4.161904
0.000000 1.136669 -4.376085
-1.352285 1.136669 -4.161904
-2.572198 1.136669 -3.540327
-3.540327 1.136669 -2.572198
-4.161903 1.136669 -1.352284
-4.376084 1.136669 0.000000
-4.161903 1.136669 1.352284
-3.540326 1.136669 2.572197
-2.572197 1.136669 3.540326
-1.352284 1.136669 4.161903
-0.000000 1.136669 4.376083
1.352284 1.136669 4.161902
2.572197 1.136669 3.540326
3.540325 1.136669 2.572197
4.161902 1.136669 1.352284
4.376083 1.136669 0.000000
4.457522 0.825838 -1.448337
3.791795 0.825838 -2.754900
2.754900 0.825838 -3.791795
1.448337 0.825838 -4.457522
0.000000 0.825838 -4.686916
-1.448337 0.825838 -4.457522
-2.754900 0.825838 -3.791794
-3.791794 0.825838 -2.754900
-4.457521 0.825838 -1.448336
-4.686914 0.825838 0.000000
-4.457521 0.825838 1.448336
-3.791794 0.825838 2.754899
-2.754899 0.825838 3.791793
-1.448336 0.825838 4.457520
-0.000000 0.825838 4.686914
1.448336 0.825838 4.457520
2.754899 0.825838 3.791793
3.791793 0.825838 2.754899
4.457520 0.825838 1.448336
4.686913 0.825838 0.000000
4.647321 0.434169 -1.510006
3.953248 0.434169 -2.872202
2.872202 0.434169 -3.953247
1.510006 0.434169 -4.647320
0.000000 0.434169 -4.886482
-1.510006 0.434169 -4.647320
-2.872202 0.434169 -3.953246
-3.953246 0.434169 -2.872201
-4.647319 0.434169 -1.510005
-4.886480 0.434169 0.000000
-4.647319 0.434169 1.510005
-3.953246 0.434169 2.872201
-2.872201 0.434169 3.953245
-1.510005 0.434169 4.647319
-0.000000 0.434169 4.886480
1.510005 0.434169 4.647318
2.872200 0.434169 3.953245
3.953245 0.434169 2.872201
4.647318 0.434169 1.510005
4.886479 0.434169 0.000000
4.712721 0.000000 -1.531256
4.008880 0.000000 -2.912622
2.912622 0.000000 -4.008880
1.531256 0.000000 -4.712720
0.000000 0.000000 -4.955247
-1.531256 0.000000 -4.712720
-2.912621 0.000000 -4.008879
-4.008879 0.000000 -2.912621
-4.712719 0.000000 -1.531255
-4.955246 0.000000 0.000000
-4.712719 0.000000 1.531255
-4.008878 0.000000 2.912621
-2.912621 0.000000 4.008878
-1.531255 0.000000 4.712719
-0.000000 0.000000 4.955245
1.531255 0.000000 4.712718
2.912620 0.000000 4.008878
4.008877 0.000000 2.912621
4.712718 0.000000 1.531255
4.955245 0.000000 0.000000
4.647321 -0.434169 -1.510006
3.953248 -0.434169 -2.872202
2.872202 -0.434169 -3.953247
1.510006 -0.434169 -4.647320
0.000000 -0.434169 -4.886482
-1.510006 -0.434169 -4.647320
-2.872202 -0.434169 -3.953246
-3.953246 -0.434169 -2.872201
-4.647319 -0.434169 -1.510005
-4.886480 -0.434169 0.000000
-4.647319 -0.434169 1.510005
-3.953246 -0.434169 2.872201
-2.872201 -0.434169 3.953245
-1.510005 -0.434169 4.647319
-0.000000 -0.434169 4.886480
1.510005 -0.434169 4.647318
2.872200 -0.434169 3.953245
3.953245 -0.434169 2.872201
4.647318 -0.434169 1.510005
4.886479 -0.434169 0.000000
4.457522 -0.825838 -1.448337
3.791795 -0.825838 -2.754900
2.754900 -0.825838 -3.791795
1.448337 -0.825838 -4.457522
0.000000 -0.825838 -4.686916
-1.448337 -0.825838 -4.457522
-2.754900 -0.825838 -3.791794
-3.791794 -0.825838 -2.754900
-4.457521 -0.825838 -1.448336
-4.686914 -0.825838 0.000000
-4.457521 -0.825838 1.448336
-3.791794 -0.825838 2.754899
-2.754899 -0.825838 3.791793
-1.448336 -0.825838 4.457520
-0.000000 -0.825838 4.686914
1.448336 -0.825838 4.457520
2.754899 -0.825838 3.791793
3.791793 -0.825838 2.754899
4.457520 -0.825838 1.448336
4.686913 -0.825838 0.000000
4.161905 -1.136669 -1.352285
3.540328 -1.136669 -2.572199
2.572199 -1.136669 -3.540328
1.352285 -1.136669 -4.161905
0.000000 -1.136669 -4.376085
-1.352285 -1.136669 -4.161904
-2.572198 -1.136669 -3.540327
-3.540327 -1.136669 -2.572198
-4.161904 -1.136669 -1.352284
-4.376084 -1.136669 0.000000
-4.161904 -1.136669 1.352284
-3.540327 -1.136669 2.572198
-2.572198 -1.136669 3.540326
-1.352284 -1.136669 4.161903
-0.000000 -1.136669 4.376084
1.352284 -1.136669 4.161903
2.572197 -1.136669 3.540326
3.540326 -1.136669 2.572197
4.161903 -1.136669 1.352284
4.376083 -1.136669 0.000000
3.789405 -1.336235 -1.231252
3.223460 -1.336235 -2.341981
2.341981 -1.336235 -3.223460
1.231252 -1.336235 -3.789404
0.000000 -1.336235 -3.984415
-1.231252 -1.336235 -3.789404
-2.341980 -1.336235 -3.223459
-3.223459 -1.336235 -2.341980
-3.789404 -1.336235 -1.231252
-3.984414 -1.336235 0.000000
-3.789404 -1.336235 1.231252
-3.223459 -1.336235 2.341980
-2.341980 -1.336235 3.223459
-1.231252 -1.336235 3.789403
-0.000000 -1.336235 3.984414
1.231251 -1.336235 3.789403
2.341980 -1.336235 3.223459
3.223458 -1.336235 2.341980
3.789403 -1.336235 1.231252
3.984414 -1.336235 0.000000
3.376485 -1.405001 -1.097087
2.872210 -1.405001 -2.086783
2.086783 -1.405001 -2.872210
1.097086 -1.405001 -3.376485
0.000000 -1.405001 -3.550246
-1.097086 -1.405001 -3.376485
-2.086782 -1.405001 -2.872209
-2.872209 -1.405001 -2.086782
-3.376484 -1.405001 -1.097086
-3.550246 -1.405001 0.000000
-3.376484 -1.405001 1.097086
-2.872209 -1.405001 2.086782
-2.086782 -1.405001 2.872208
-1.097086 -1.405001 3.376483
-0.000000 -1.405001 3.550245
1.097086 -1.405001 3.376483
2.086781 -1.405001 2.872208
2.872208 -1.405001 2.086782
3.376483 -1.405001 1.097086
3.550245 -1.405001 0.000000
2.963566 -1.336235 -0.962921
2.520960 -1.336235 -1.831584
1.831584 -1.336235 -2.520960
0.962921 -1.336235 -2.963566
0.000000 -1.336235 -3.116077
-0.962921 -1.336235 -2.963565
-1.831584 -1.336235 -2.520959
-2.520959 -1.336235 -1.831584
-2.963565 -1.336235 -0.962920
-3.116076 -1.336235 0.000000
-2.963565 -1.336235 0.962920
-2.520959 -1.336235 1.831584
-1.831584 -1.336235 2.520958
-0.962920 -1.336235 2.963564
-0.000000 -1.336235 3.116076
0.962920 -1.336235 2.963564
1.831583 -1.336235 2.520958
2.520958 -1.336235 1.831583
2.963564 -1.336235 0.962920
3.116076 -1.336235 0.000000
2.591066 -1.136670 -0.841888
2.204092 -1.136670 -1.601367
1.601367 -1.136670 -2.204092
0.841888 -1.136670 -2.591065
0.000000 -1.136670 -2.724407
-0.841888 -1.136670 -2.591065
-1.601366 -1.136670 -2.204091
-2.204091 -1.136670 -1.601366
-2.591064 -1.136670 -0.841888
-2.724406 -1.136670 0.000000
-2.591064 -1.136670 0.841888
-2.204091 -1.136670 1.601366
-1.601366 -1.136670 2.204091
-0.841888 -1.136670 2.591064
-0.000000 -1.136670 2.724406
0.841888 -1.136670 2.591064
1.601365 -1.136670 2.204091
2.204091 -1.136670 1.601366
2.591064 -1.136670 0.841888
2.724406 -1.136670 0.000000
2.295448 -0.825839 -0.745836
1.952624 -0.825839 -1.418665
1.418665 -0.825839 -1.952624
0.745836 -0.825839 -2.295447
0.000000 -0.825839 -2.413576
-0.745836 -0.825839 -2.295447
-1.418664 -0.825839 -1.952624
-1.952624 -0.825839 -1.418664
-2.295447 -0.825839 -0.745836
-2.413575 -0.825839 0.000000
-2.295447 -0.825839 0.745836
-1.952624 -0.825839 1.418664
-1.418664 -0.825839 1.952623
-0.745836 -0.825839 2.295446
-0.000000 -0.825839 2.413575
0.745836 -0.825839 2.295446
1.418664 -0.825839 1.952623
1.952623 -0.825839 1.418664
2.295446 -0.825839 0.745836
2.413575 -0.825839 0.000000
2.105649 -0.434169 -0.684167
1.791172 -0.434169 -1.301363
1.301363 -0.434169 -1.791172
0.684167 -0.434169 -2.105649
0.000000 -0.434169 -2.214010
-0.684167 -0.434169 -2.105649
-1.301363 -0.434169 -1.791172
-1.791172 -0.434169 -1.301362
-2.105649 -0.434169 -0.684167
-2.214010 -0.434169 0.000000
-2.105649 -0.434169 0.684167
-1.791172 -0.434169 1.301362
-1.301362 -0.434169 1.791171
-0.684167 -0.434169 2.105648
-0.000000 -0.434169 2.214010
0.684166 -0.434169 2.105648
1.301362 -0.434169 1.791171
1.791171 -0.434169 1.301362
2.105648 -0.434169 0.684166
2.214009 -0.434169 0.000000
</float_array>
          <technique_common>
            <accessor source="#pTorus1-lib-Position-array" count="400" stride="3">
              <param name="X" type="float"/>
              <param name="Y" type="float"/>
              <param name="Z" type="float"/>
            </accessor>
          </technique_common>
        </source>
        <source id="pTorus1-lib-Normal0">
          <float_array id="pTorus1-lib-Normal0-array" count="1200">
-0.951057 0.000001 0.309016
-0.809017 0.000001 0.587785
-0.587785 0.000001 0.809017
-0.309017 0.000001 0.951057
0.000000 0.000001 1.000000
0.309017 0.000001 0.951056
0.587785 0.000001 0.809017
0.809017 0.000001 0.587785
0.951056 0.000001 0.309017
1.000000 0.000001 0.000000
0.951056 0.000001 -0.309017
0.809017 0.000001 -0.587785
0.587785 0.000001 -0.809017
0.309017 0.000001 -0.951056
-0.000000 0.000001 -1.000000
-0.309017 0.000001 -0.951057
-0.587785 0.000001 -0.809017
-0.809017 0.000001 -0.587785
-0.951057 0.000001 -0.309017
-1.000000 0.000001 -0.000001
-0.904457 0.309185 0.293875
-0.769377 0.309185 0.558985
-0.558985 0.309185 0.769377
-0.293876 0.309185 0.904457
0.000000 0.309185 0.951002
0.293876 0.309185 0.904457
0.558985 0.309185 0.769377
0.769377 0.309185 0.558985
0.904457 0.309185 0.293876
0.951002 0.309185 0.000000
0.904457 0.309185 -0.293876
0.769377 0.309185 -0.558985
0.558985 0.309185 -0.769377
0.293876 0.309185 -0.904457
-0.000000 0.309185 -0.951002
-0.293876 0.309185 -0.904457
-0.558985 0.309185 -0.769377
-0.769377 0.309185 -0.558985
-0.904457 0.309185 -0.293876
-0.951002 0.309185 -0.000001
-0.769260 0.588018 0.249947
-0.654372 0.588018 0.475429
-0.475429 0.588018 0.654372
-0.249948 0.588018 0.769260
0.000000 0.588018 0.808848
0.249948 0.588018 0.769260
0.475429 0.588018 0.654372
0.654372 0.588018 0.475429
0.769260 0.588018 0.249948
0.808848 0.588017 0.000000
0.769260 0.588018 -0.249948
0.654372 0.588018 -0.475429
0.475429 0.588018 -0.654372
0.249948 0.588017 -0.769260
-0.000000 0.588017 -0.808848
-0.249948 0.588018 -0.769260
-0.475429 0.588017 -0.654372
-0.654372 0.588017 -0.475429
-0.769260 0.588017 -0.249948
-0.808848 0.588017 -0.000001
-0.558794 0.809187 0.181563
-0.475339 0.809187 0.345354
-0.345354 0.809187 0.475339
-0.181563 0.809187 0.558794
0.000000 0.809187 0.587551
0.181563 0.809187 0.558794
0.345354 0.809187 0.475339
0.475339 0.809187 0.345354
0.558794 0.809187 0.181563
0.587551 0.809187 -0.000000
0.558794 0.809187 -0.181563
0.475339 0.809187 -0.345354
0.345354 0.809187 -0.475339
0.181563 0.809187 -0.558794
-0.000000 0.809187 -0.587551
-0.181563 0.809187 -0.558794
-0.345354 0.809187 -0.475339
-0.475339 0.809187 -0.345354
-0.558794 0.809187 -0.181563
-0.587551 0.809187 -0.000001
-0.293730 0.951112 0.095438
-0.249861 0.951112 0.181535
-0.181535 0.951112 0.249861
-0.095439 0.951112 0.293730
-0.000000 0.951112 0.308846
0.095439 0.951112 0.293730
0.181535 0.951112 0.249862
0.249862 0.951112 0.181535
0.293730 0.951112 0.095439
0.308846 0.951112 -0.000000
0.293730 0.951112 -0.095439
0.249862 0.951112 -0.181535
0.181535 0.951112 -0.249862
0.095439 0.951112 -0.293730
-0.000000 0.951112 -0.308846
-0.095439 0.951112 -0.293730
-0.181535 0.951112 -0.249862
-0.249862 0.951112 -0.181535
-0.293730 0.951112 -0.095439
-0.308846 0.951112 -0.000000
-0.000000 1.000000 0.000000
-0.000000 1.000000 0.000000
-0.000000 1.000000 0.000000
-0.000000 1.000000 0.000000
-0.000000 1.000000 0.000000
0.000000 1.000000 0.000000
0.000000 1.000000 0.000000
0.000000 1.000000 0.000000
0.000000 1.000000 0.000000
0.000000 1.000000 0.000000
0.000000 1.000000 -0.000000
0.000000 1.000000 -0.000000
0.000000 1.000000 -0.000000
0.000000 1.000000 -0.000000
0.000000 1.000000 -0.000000
-0.000000 1.000000 -0.000000
-0.000000 1.000000 -0.000000
-0.000000 1.000000 -0.000000
-0.000000 1.000000 -0.000000
-0.000000 1.000000 -0.000000
0.293730 0.951112 -0.095438
0.249861 0.951112 -0.181535
0.181535 0.951112 -0.249861
0.095439 0.951112 -0.293730
-0.000000 0.951112 -0.308846
-0.095439 0.951112 -0.293730
-0.181535 0.951112 -0.249862
-0.249862 0.951112 -0.181535
-0.293730 0.951112 -0.095438
-0.308846 0.951112 0.000000
-0.293730 0.951112 0.095439
-0.249861 0.951112 0.181535
-0.181535 0.951112 0.249862
-0.095439 0.951112 0.293730
0.000000 0.951112 0.308846
0.095439 0.951112 0.293730
0.181535 0.951112 0.249862
0.249862 0.951112 0.181535
0.293730 0.951112 0.095439
0.308846 0.951112 0.000000
0.558794 0.809187 -0.181563
0.475339 0.809187 -0.345354
0.345354 0.809187 -0.475339
0.181563 0.809187 -0.558794
-0.000000 0.809187 -0.587551
-0.181563 0.809187 -0.558794
-0.345354 0.809187 -0.475339
-0.475339 0.809187 -0.345354
-0.558794 0.809187 -0.181563
-0.587551 0.809187 -0.000000
-0.558794 0.809187 0.181563
-0.475339 0.809187 0.345354
-0.345354 0.809187 0.475339
-0.181563 0.809187 0.558794
0.000000 0.809187 0.587551
0.181563 0.809187 0.558794
0.345354 0.809187 0.475339
0.475339 0.809187 0.345354
0.558794 0.809187 0.181563
0.587551 0.809187 0.000001
0.769260 0.588018 -0.249947
0.654372 0.588018 -0.475429
0.475429 0.588018 -0.654372
0.249948 0.588018 -0.769260
-0.000000 0.588018 -0.808848
-0.249948 0.588018 -0.769260
-0.475429 0.588018 -0.654371
-0.654372 0.588018 -0.475429
-0.769260 0.588018 -0.249948
-0.808848 0.588018 -0.000000
-0.769260 0.588018 0.249948
-0.654372 0.588018 0.475429
-0.475429 0.588018 0.654372
-0.249948 0.588018 0.769260
0.000000 0.588018 0.808848
0.249948 0.588018 0.769260
0.475429 0.588018 0.654372
0.654372 0.588018 0.475429
0.769260 0.588018 0.249948
0.808848 0.588018 0.000001
0.904457 0.309186 -0.293875
0.769376 0.309186 -0.558985
0.558985 0.309185 -0.769377
0.293876 0.309185 -0.904456
0.000000 0.309185 -0.951002
-0.293876 0.309185 -0.904456
-0.558985 0.309185 -0.769376
-0.769377 0.309185 -0.558985
-0.904457 0.309185 -0.293876
-0.951002 0.309185 0.000000
-0.904457 0.309185 0.293876
-0.769377 0.309185 0.558985
-0.558985 0.309185 0.769377
-0.293876 0.309185 0.904456
0.000000 0.309185 0.951002
0.293876 0.309185 0.904456
0.558985 0.309185 0.769377
0.769377 0.309185 0.558985
0.904456 0.309185 0.293876
0.951002 0.309186 0.000001
0.951057 0.000000 -0.309016
0.809017 0.000000 -0.587785
0.587785 0.000000 -0.809017
0.309017 -0.000000 -0.951057
0.000000 -0.000000 -1.000000
-0.309017 0.000000 -0.951056
-0.587785 -0.000000 -0.809017
-0.809017 0.000000 -0.587785
-0.951057 0.000000 -0.309017
-1.000000 0.000000 0.000000
-0.951056 -0.000000 0.309017
-0.809017 0.000000 0.587785
-0.587785 0.000000 0.809017
-0.309017 -0.000000 0.951056
0.000000 0.000000 1.000000
0.309017 0.000000 0.951056
0.587785 0.000000 0.809017
0.809017 -0.000000 0.587785
0.951056 -0.000000 0.309017
1.000000 0.000000 0.000001
0.904457 -0.309186 -0.293875
0.769377 -0.309186 -0.558985
0.558985 -0.309185 -0.769377
0.293876 -0.309185 -0.904456
0.000000 -0.309185 -0.951002
-0.293876 -0.309185 -0.904456
-0.558985 -0.309185 -0.769376
-0.769377 -0.309185 -0.558985
-0.904457 -0.309185 -0.293876
-0.951002 -0.309185 0.000000
-0.904457 -0.309185 0.293876
-0.769377 -0.309185 0.558985
-0.558985 -0.309185 0.769377
-0.293876 -0.309185 0.904456
0.000000 -0.309185 0.951002
0.293876 -0.309185 0.904456
0.558985 -0.309185 0.769377
0.769377 -0.309185 0.558985
0.904456 -0.309185 0.293876
0.951002 -0.309186 0.000001
0.769260 -0.588018 -0.249947
0.654372 -0.588018 -0.475429
0.475429 -0.588018 -0.654372
0.249948 -0.588018 -0.769260
0.000000 -0.588018 -0.808848
-0.249948 -0.588018 -0.769260
-0.475429 -0.588018 -0.654372
-0.654372 -0.588018 -0.475429
-0.769260 -0.588018 -0.249948
-0.808848 -0.588018 0.000000
-0.769260 -0.588017 0.249948
-0.654372 -0.588017 0.475429
-0.475429 -0.588017 0.654372
-0.249948 -0.588017 0.769260
0.000000 -0.588017 0.808848
0.249948 -0.588017 0.769260
0.475429 -0.588017 0.654372
0.654372 -0.588017 0.475429
0.769260 -0.588017 0.249948
0.808848 -0.588017 0.000001
0.558795 -0.809187 -0.181563
0.475339 -0.809187 -0.345354
0.345354 -0.809187 -0.475339
0.181563 -0.809187 -0.558795
-0.000000 -0.809187 -0.587551
-0.181563 -0.809187 -0.558794
-0.345354 -0.809187 -0.475339
-0.475339 -0.809187 -0.345354
-0.558795 -0.809187 -0.181563
-0.587551 -0.809187 0.000000
-0.558795 -0.809187 0.181563
-0.475339 -0.809187 0.345354
-0.345354 -0.809187 0.475339
-0.181563 -0.809187 0.558795
0.000000 -0.809187 0.587552
0.181563 -0.809187 0.558795
0.345354 -0.809187 0.475339
0.475339 -0.809187 0.345354
0.558795 -0.809187 0.181563
0.587552 -0.809187 0.000001
0.293730 -0.951112 -0.095438
0.249861 -0.951112 -0.181535
0.181535 -0.951112 -0.249861
0.095439 -0.951112 -0.293730
-0.000000 -0.951112 -0.308846
-0.095439 -0.951112 -0.293730
-0.181535 -0.951112 -0.249862
-0.249862 -0.951112 -0.181535
-0.293730 -0.951112 -0.095439
-0.308846 -0.951112 0.000000
-0.293730 -0.951112 0.095439
-0.249862 -0.951112 0.181535
-0.181535 -0.951112 0.249862
-0.095439 -0.951112 0.293730
0.000000 -0.951112 0.308846
0.095439 -0.951112 0.293730
0.181535 -0.951112 0.249862
0.249862 -0.951112 0.181535
0.293730 -0.951112 0.095439
0.308846 -0.951112 0.000000
-0.000000 -1.000000 0.000000
0.000000 -1.000000 -0.000000
0.000000 -1.000000 -0.000000
0.000000 -1.000000 -0.000000
0.000000 -1.000000 0.000000
-0.000000 -1.000000 0.000000
0.000000 -1.000000 0.000000
0.000000 -1.000000 -0.000000
-0.000000 -1.000000 0.000000
-0.000000 -1.000000 -0.000000
-0.000000 -1.000000 -0.000000
0.000000 -1.000000 -0.000000
0.000000 -1.000000 -0.000000
0.000000 -1.000000 -0.000000
0.000000 -1.000000 -0.000000
-0.000000 -1.000000 -0.000000
-0.000000 -1.000000 -0.000000
-0.000000 -1.000000 -0.000000
-0.000000 -1.000000 0.000000
-0.000000 -1.000000 -0.000000
-0.293730 -0.951112 0.095438
-0.249861 -0.951112 0.181535
-0.181535 -0.951112 0.249861
-0.095438 -0.951112 0.293730
0.000000 -0.951112 0.308846
0.095439 -0.951112 0.293730
0.181535 -0.951112 0.249861
0.249861 -0.951112 0.181535
0.293730 -0.951112 0.095439
0.308846 -0.951112 0.000000
0.293730 -0.951112 -0.095439
0.249861 -0.951112 -0.181535
0.181535 -0.951112 -0.249862
0.095439 -0.951112 -0.293730
-0.000000 -0.951112 -0.308846
-0.095439 -0.951112 -0.293730
-0.181535 -0.951112 -0.249862
-0.249861 -0.951112 -0.181535
-0.293730 -0.951112 -0.095439
-0.308846 -0.951112 -0.000000
-0.558794 -0.809187 0.181563
-0.475339 -0.809187 0.345354
-0.345354 -0.809187 0.475339
-0.181563 -0.809187 0.558794
0.000000 -0.809187 0.587551
0.181563 -0.809187 0.558794
0.345354 -0.809187 0.475338
0.475339 -0.809187 0.345354
0.558794 -0.809187 0.181563
0.587551 -0.809187 0.000000
0.558794 -0.809187 -0.181563
0.475339 -0.809187 -0.345354
0.345354 -0.809187 -0.475339
0.181563 -0.809187 -0.558794
-0.000000 -0.809187 -0.587551
-0.181563 -0.809187 -0.558794
-0.345354 -0.809187 -0.475339
-0.475339 -0.809187 -0.345354
-0.558794 -0.809187 -0.181563
-0.587551 -0.809187 -0.000001
-0.769260 -0.588018 0.249947
-0.654372 -0.588018 0.475429
-0.475429 -0.588018 0.654372
-0.249948 -0.588018 0.769260
0.000000 -0.588018 0.808848
0.249948 -0.588018 0.769260
0.475429 -0.588018 0.654372
0.654372 -0.588018 0.475429
0.769260 -0.588018 0.249948
0.808848 -0.588018 0.000000
0.769260 -0.588018 -0.249948
0.654372 -0.588018 -0.475429
0.475429 -0.588018 -0.654372
0.249948 -0.588018 -0.769260
-0.000000 -0.588018 -0.808848
-0.249948 -0.588018 -0.769260
-0.475429 -0.588018 -0.654372
-0.654372 -0.588018 -0.475429
-0.769260 -0.588018 -0.249948
-0.808848 -0.588018 -0.000001
-0.904457 -0.309184 0.293875
-0.769377 -0.309184 0.558985
-0.558985 -0.309184 0.769377
-0.293876 -0.309184 0.904457
0.000000 -0.309184 0.951002
0.293876 -0.309184 0.904457
0.558985 -0.309184 0.769377
0.769377 -0.309184 0.558985
0.904457 -0.309184 0.293876
0.951002 -0.309184 0.000000
0.904457 -0.309184 -0.293876
0.769377 -0.309184 -0.558985
0.558985 -0.309184 -0.769377
0.293876 -0.309184 -0.904457
-0.000000 -0.309184 -0.951002
-0.293876 -0.309184 -0.904457
-0.558985 -0.309184 -0.769377
-0.769377 -0.309184 -0.558985
-0.904457 -0.309184 -0.293876
-0.951002 -0.309184 -0.000001
</float_array>
          <technique_common>
            <accessor source="#pTorus1-lib-Normal0-array" count="400" stride="3">
              <param name="X" type="float"/>
              <param name="Y" type="float"/>
              <param name="Z" type="float"/>
            </accessor>
          </technique_common>
        </source>
        <source id="pTorus1-lib-UV0">
          <float_array id="pTorus1-lib-UV0-array" count="882">
0.000000 1.000000
0.050000 1.000000
0.100000 1.000000
0.150000 1.000000
0.200000 1.000000
0.250000 1.000000
0.300000 1.000000
0.350000 1.000000
0.400000 1.000000
0.450000 1.000000
0.500000 1.000000
0.550000 1.000000
0.600000 1.000000
0.650000 1.000000
0.700000 1.000000
0.750000 1.000000
0.800000 1.000000
0.850000 1.000000
0.900000 1.000000
0.950000 1.000000
1.000000 1.000000
0.000000 0.950000
0.050000 0.950000
0.100000 0.950000
0.150000 0.950000
0.200000 0.950000
0.250000 0.950000
0.300000 0.950000
0.350000 0.950000
0.400000 0.950000
0.450000 0.950000
0.500000 0.950000
0.550000 0.950000
0.600000 0.950000
0.650000 0.950000
0.700000 0.950000
0.750000 0.950000
0.800000 0.950000
0.850000 0.950000
0.900000 0.950000
0.950000 0.950000
1.000000 0.950000
0.000000 0.900000
0.050000 0.900000
0.100000 0.900000
0.150000 0.900000
0.200000 0.900000
0.250000 0.900000
0.300000 0.900000
0.350000 0.900000
0.400000 0.900000
0.450000 0.900000
0.500000 0.900000
0.550000 0.900000
0.600000 0.900000
0.650000 0.900000
0.700000 0.900000
0.750000 0.900000
0.800000 0.900000
0.850000 0.900000
0.900000 0.900000
0.950000 0.900000
1.000000 0.900000
0.000000 0.850000
0.050000 0.850000
0.100000 0.850000
0.150000 0.850000
0.200000 0.850000
0.250000 0.850000
0.300000 0.850000
0.350000 0.850000
0.400000 0.850000
0.450000 0.850000
0.500000 0.850000
0.550000 0.850000
0.600000 0.850000
0.650000 0.850000
0.700000 0.850000
0.750000 0.850000
0.800000 0.850000
0.850000 0.850000
0.900000 0.850000
0.950000 0.850000
1.000000 0.850000
0.000000 0.800000
0.050000 0.800000
0.100000 0.800000
0.150000 0.800000
0.200000 0.800000
0.250000 0.800000
0.300000 0.800000
0.350000 0.800000
0.400000 0.800000
0.450000 0.800000
0.500000 0.800000
0.550000 0.800000
0.600000 0.800000
0.650000 0.800000
0.700000 0.800000
0.750000 0.800000
0.800000 0.800000
0.850000 0.800000
0.900000 0.800000
0.950000 0.800000
1.000000 0.800000
0.000000 0.750000
0.050000 0.750000
0.100000 0.750000
0.150000 0.750000
0.200000 0.750000
0.250000 0.750000
0.300000 0.750000
0.350000 0.750000
0.400000 0.750000
0.450000 0.750000
0.500000 0.750000
0.550000 0.750000
0.600000 0.750000
0.650000 0.750000
0.700000 0.750000
0.750000 0.750000
0.800000 0.750000
0.850000 0.750000
0.900000 0.750000
0.950000 0.750000
1.000000 0.750000
0.000000 0.700000
0.050000 0.700000
0.100000 0.700000
0.150000 0.700000
0.200000 0.700000
0.250000 0.700000
0.300000 0.700000
0.350000 0.700000
0.400000 0.700000
0.450000 0.700000
0.500000 0.700000
0.550000 0.700000
0.600000 0.700000
0.650000 0.700000
0.700000 0.700000
0.750000 0.700000
0.800000 0.700000
0.850000 0.700000
0.900000 0.700000
0.950000 0.700000
1.000000 0.700000
0.000000 0.650000
0.050000 0.650000
0.100000 0.650000
0.150000 0.650000
0.200000 0.650000
0.250000 0.650000
0.300000 0.650000
0.350000 0.650000
0.400000 0.650000
0.450000 0.650000
0.500000 0.650000
0.550000 0.650000
0.600000 0.650000
0.650000 0.650000
0.700000 0.650000
0.750000 0.650000
0.800000 0.650000
0.850000 0.650000
0.900000 0.650000
0.950000 0.650000
1.000000 0.650000
0.000000 0.600000
0.050000 0.600000
0.100000 0.600000
0.150000 0.600000
0.200000 0.600000
0.250000 0.600000
0.300000 0.600000
0.350000 0.600000
0.400000 0.600000
0.450000 0.600000
0.500000 0.600000
0.550000 0.600000
0.600000 0.600000
0.650000 0.600000
0.700000 0.600000
0.750000 0.600000
0.800000 0.600000
0.850000 0.600000
0.900000 0.600000
0.950000 0.600000
1.000000 0.600000
0.000000 0.550000
0.050000 0.550000
0.100000 0.550000
0.150000 0.550000
0.200000 0.550000
0.250000 0.550000
0.300000 0.550000
0.350000 0.550000
0.400000 0.550000
0.450000 0.550000
0.500000 0.550000
0.550000 0.550000
0.600000 0.550000
0.650000 0.550000
0.700000 0.550000
0.750000 0.550000
0.800000 0.550000
0.850000 0.550000
0.900000 0.550000
0.950000 0.550000
1.000000 0.550000
0.000000 0.500000
0.050000 0.500000
0.100000 0.500000
0.150000 0.500000
0.200000 0.500000
0.250000 0.500000
0.300000 0.500000
0.350000 0.500000
0.400000 0.500000
0.450000 0.500000
0.500000 0.500000
0.550000 0.500000
0.600000 0.500000
0.650000 0.500000
0.700000 0.500000
0.750000 0.500000
0.800000 0.500000
0.850000 0.500000
0.900000 0.500000
0.950000 0.500000
1.000000 0.500000
0.000000 0.450000
0.050000 0.450000
0.100000 0.450000
0.150000 0.450000
0.200000 0.450000
0.250000 0.450000
0.300000 0.450000
0.350000 0.450000
0.400000 0.450000
0.450000 0.450000
0.500000 0.450000
0.550000 0.450000
0.600000 0.450000
0.650000 0.450000
0.700000 0.450000
0.750000 0.450000
0.800000 0.450000
0.850000 0.450000
0.900000 0.450000
0.950000 0.450000
1.000000 0.450000
0.000000 0.400000
0.050000 0.400000
0.100000 0.400000
0.150000 0.400000
0.200000 0.400000
0.250000 0.400000
0.300000 0.400000
0.350000 0.400000
0.400000 0.400000
0.450000 0.400000
0.500000 0.400000
0.550000 0.400000
0.600000 0.400000
0.650000 0.400000
0.700000 0.400000
0.750000 0.400000
0.800000 0.400000
0.850000 0.400000
0.900000 0.400000
0.950000 0.400000
1.000000 0.400000
0.000000 0.350000
0.050000 0.350000
0.100000 0.350000
0.150000 0.350000
0.200000 0.350000
0.250000 0.350000
0.300000 0.350000
0.350000 0.350000
0.400000 0.350000
0.450000 0.350000
0.500000 0.350000
0.550000 0.350000
0.600000 0.350000
0.650000 0.350000
0.700000 0.350000
0.750000 0.350000
0.800000 0.350000
0.850000 0.350000
0.900000 0.350000
0.950000 0.350000
1.000000 0.350000
0.000000 0.300000
0.050000 0.300000
0.100000 0.300000
0.150000 0.300000
0.200000 0.300000
0.250000 0.300000
0.300000 0.300000
0.350000 0.300000
0.400000 0.300000
0.450000 0.300000
0.500000 0.300000
0.550000 0.300000
0.600000 0.300000
0.650000 0.300000
0.700000 0.300000
0.750000 0.300000
0.800000 0.300000
0.850000 0.300000
0.900000 0.300000
0.950000 0.300000
1.000000 0.300000
0.000000 0.250000
0.050000 0.250000
0.100000 0.250000
0.150000 0.250000
0.200000 0.250000
0.250000 0.250000
0.300000 0.250000
0.350000 0.250000
0.400000 0.250000
0.450000 0.250000
0.500000 0.250000
0.550000 0.250000
0.600000 0.250000
0.650000 0.250000
0.700000 0.250000
0.750000 0.250000
0.800000 0.250000
0.850000 0.250000
0.900000 0.250000
0.950000 0.250000
1.000000 0.250000
0.000000 0.200000
0.050000 0.200000
0.100000 0.200000
0.150000 0.200000
0.200000 0.200000
0.250000 0.200000
0.300000 0.200000
0.350000 0.200000
0.400000 0.200000
0.450000 0.200000
0.500000 0.200000
0.550000 0.200000
0.600000 0.200000
0.650000 0.200000
0.700000 0.200000
0.750000 0.200000
0.800000 0.200000
0.850000 0.200000
0.900000 0.200000
0.950000 0.200000
1.000000 0.200000
0.000000 0.150000
0.050000 0.150000
0.100000 0.150000
0.150000 0.150000
0.200000 0.150000
0.250000 0.150000
0.300000 0.150000
0.350000 0.150000
0.400000 0.150000
0.450000 0.150000
0.500000 0.150000
0.550000 0.150000
0.600000 0.150000
0.650000 0.150000
0.700000 0.150000
0.750000 0.150000
0.800000 0.150000
0.850000 0.150000
0.900000 0.150000
0.950000 0.150000
1.000000 0.150000
0.000000 0.100000
0.050000 0.100000
0.100000 0.100000
0.150000 0.100000
0.200000 0.100000
0.250000 0.100000
0.300000 0.100000
0.350000 0.100000
0.400000 0.100000
0.450000 0.100000
0.500000 0.100000
0.550000 0.100000
0.600000 0.100000
0.650000 0.100000
0.700000 0.100000
0.750000 0.100000
0.800000 0.100000
0.850000 0.100000
0.900000 0.100000
0.950000 0.100000
1.000000 0.100000
0.000000 0.050000
0.050000 0.050000
0.100000 0.050000
0.150000 0.050000
0.200000 0.050000
0.250000 0.050000
0.300000 0.050000
0.350000 0.050000
0.400000 0.050000
0.450000 0.050000
0.500000 0.050000
0.550000 0.050000
0.600000 0.050000
0.650000 0.050000
0.700000 0.050000
0.750000 0.050000
0.800000 0.050000
0.850000 0.050000
0.900000 0.050000
0.950000 0.050000
1.000000 0.050000
0.000000 -0.000000
0.050000 -0.000000
0.100000 -0.000000
0.150000 -0.000000
0.200000 -0.000000
0.250000 -0.000000
0.300000 -0.000000
0.350000 -0.000000
0.400000 -0.000000
0.450000 -0.000000
0.500000 -0.000000
0.550000 -0.000000
0.600000 -0.000000
0.650000 -0.000000
0.700000 -0.000000
0.750000 -0.000000
0.800000 -0.000000
0.850000 -0.000000
0.900000 -0.000000
0.950000 -0.000000
1.000000 -0.000000
</float_array>
          <technique_common>
            <accessor source="#pTorus1-lib-UV0-array" count="441" stride="2">
              <param name="S" type="float"/>
              <param name="T" type="float"/>
            </accessor>
          </technique_common>
        </source>
        <source id="pTorus1-lib-UV1">
          <float_array id="pTorus1-lib-UV1-array" count="840">
1.200032 0.500000
1.100032 0.500000
1.100032 0.654509
1.200032 0.654509
1.300032 0.500000
1.300032 0.654509
1.400032 0.500000
-0.499968 0.500000
-0.499968 0.654509
-0.399968 0.500000
-0.399968 0.654509
-0.299968 0.500000
-0.299968 0.654509
-0.199968 0.500000
-0.199968 0.654509
-0.099968 0.500000
-0.099968 0.654509
0.000032 0.500000
0.000032 0.654509
0.100032 0.500000
0.100032 0.654509
0.200032 0.500000
0.200032 0.654509
0.300032 0.500000
0.300032 0.654509
0.400032 0.500000
0.400032 0.654509
0.500032 0.500000
0.500032 0.654509
0.600032 0.500000
0.600032 0.654509
0.700032 0.500000
0.700032 0.654509
0.800032 0.500000
0.800032 0.654509
0.900032 0.500000
0.900032 0.654509
1.000032 0.500000
1.000032 0.654509
1.100032 0.793893
1.200032 0.793893
1.300032 0.793893
-0.499968 0.793893
-0.399968 0.793893
-0.299968 0.793893
-0.199968 0.793893
-0.099968 0.793893
0.000032 0.793893
0.100032 0.793893
0.200032 0.793893
0.300032 0.793893
0.400032 0.793893
0.500032 0.793893
0.600032 0.793893
0.700032 0.793893
0.800032 0.793893
0.900032 0.793893
1.000032 0.793893
1.100032 0.904509
1.200032 0.904509
1.300032 0.904509
-0.499968 0.904509
-0.399968 0.904509
-0.299968 0.904509
-0.199968 0.904509
-0.099968 0.904509
0.000032 0.904509
0.100032 0.904509
0.200032 0.904509
0.300032 0.904509
0.400032 0.904509
0.500032 0.904509
0.600032 0.904509
0.700032 0.904509
0.800032 0.904509
0.900032 0.904509
1.000032 0.904509
1.100032 0.975528
1.200032 0.975528
1.300032 0.975528
-0.499968 0.975528
-0.399968 0.975528
-0.299968 0.975528
-0.199968 0.975528
-0.099968 0.975528
0.000032 0.975528
0.100032 0.975528
0.200032 0.975528
0.300032 0.975528
0.400032 0.975528
0.500032 0.975528
0.600032 0.975528
0.700032 0.975528
0.800032 0.975528
0.900032 0.975528
1.000032 0.975528
1.100032 1.000000
1.200032 1.000000
1.300032 1.000000
-0.499968 1.000000
-0.399968 1.000000
-0.299968 1.000000
-0.199968 1.000000
-0.099968 1.000000
0.000032 1.000000
0.100032 1.000000
0.200032 1.000000
0.300032 1.000000
0.400032 1.000000
0.500032 1.000000
0.600032 1.000000
0.700032 1.000000
0.800032 1.000000
0.900032 1.000000
1.000032 1.000000
1.100032 0.975528
1.200032 0.975528
1.300032 0.975528
-0.499968 0.975528
-0.399968 0.975528
-0.299968 0.975528
-0.199968 0.975528
-0.099968 0.975528
0.000032 0.975528
0.100032 0.975528
0.200032 0.975528
0.300032 0.975528
0.400032 0.975528
0.500032 0.975528
0.600032 0.975528
0.700032 0.975528
0.800032 0.975528
0.900032 0.975528
1.000032 0.975528
1.100032 0.904509
1.200032 0.904509
1.300032 0.904509
-0.499968 0.904509
-0.399968 0.904509
-0.299968 0.904509
-0.199968 0.904509
-0.099968 0.904509
0.000032 0.904509
0.100032 0.904509
0.200032 0.904509
0.300032 0.904509
0.400032 0.904509
0.500032 0.904509
0.600032 0.904509
0.700032 0.904509
0.800032 0.904509
0.900032 0.904509
1.000032 0.904509
1.100032 0.793893
1.200032 0.793893
1.300032 0.793893
-0.499968 0.793893
-0.399968 0.793893
-0.299968 0.793893
-0.199968 0.793893
-0.099968 0.793893
0.000032 0.793893
0.100032 0.793893
0.200032 0.793893
0.300032 0.793893
0.400032 0.793893
0.500032 0.793893
0.600032 0.793893
0.700032 0.793893
0.800032 0.793893
0.900032 0.793893
1.000032 0.793893
1.100032 0.654509
1.200032 0.654509
1.300032 0.654509
-0.499968 0.654509
-0.399968 0.654509
-0.299968 0.654509
-0.199968 0.654509
-0.099968 0.654509
0.000032 0.654509
0.100032 0.654509
0.200032 0.654509
0.300032 0.654509
0.400032 0.654509
0.500032 0.654509
0.600032 0.654509
0.700032 0.654509
0.800032 0.654509
0.900032 0.654509
1.000032 0.654509
1.100032 0.500000
1.200032 0.500000
1.300032 0.500000
-0.499968 0.500000
-0.399968 0.500000
-0.299968 0.500000
-0.199968 0.500000
-0.099968 0.500000
0.000032 0.500000
0.100032 0.500000
0.200032 0.500000
0.300032 0.500000
0.400032 0.500000
0.500032 0.500000
0.600032 0.500000
0.700032 0.500000
0.800032 0.500000
0.900032 0.500000
1.000032 0.500000
1.100032 0.345492
1.200032 0.345492
1.300032 0.345492
-0.499968 0.345492
-0.399968 0.345492
-0.299968 0.345492
-0.199968 0.345492
-0.099968 0.345492
0.000032 0.345492
0.100032 0.345492
0.200032 0.345492
0.300032 0.345492
0.400032 0.345492
0.500032 0.345492
0.600032 0.345492
0.700032 0.345492
0.800032 0.345492
0.900032 0.345492
1.000032 0.345492
1.100032 0.206107
1.200032 0.206107
1.300032 0.206107
-0.499968 0.206107
-0.399968 0.206107
-0.299968 0.206107
-0.199968 0.206107
-0.099968 0.206107
0.000032 0.206107
0.100032 0.206107
0.200032 0.206107
0.300032 0.206107
0.400032 0.206107
0.500032 0.206107
0.600032 0.206107
0.700032 0.206107
0.800032 0.206107
0.900032 0.206107
1.000032 0.206107
1.100032 0.095492
1.200032 0.095492
1.300032 0.095492
-0.499968 0.095492
-0.399968 0.095492
-0.299968 0.095492
-0.199968 0.095492
-0.099968 0.095492
0.000032 0.095492
0.100032 0.095492
0.200032 0.095492
0.300032 0.095492
0.400032 0.095492
0.500032 0.095492
0.600032 0.095492
0.700032 0.095492
0.800032 0.095492
0.900032 0.095492
1.000032 0.095492
1.100032 0.024472
1.200032 0.024472
1.300032 0.024472
-0.499968 0.024472
-0.399968 0.024472
-0.299968 0.024472
-0.199968 0.024472
-0.099968 0.024472
0.000032 0.024472
0.100032 0.024472
0.200032 0.024472
0.300032 0.024472
0.400032 0.024472
0.500032 0.024472
0.600032 0.024472
0.700032 0.024472
0.800032 0.024472
0.900032 0.024472
1.000032 0.024472
1.100032 0.000000
1.200032 0.000000
1.300032 0.000000
-0.499968 0.000000
-0.399968 0.000000
-0.299968 0.000000
-0.199968 0.000000
-0.099968 0.000000
0.000032 0.000000
0.100032 0.000000
0.200032 0.000000
0.300032 0.000000
0.400032 0.000000
0.500032 0.000000
0.600032 0.000000
0.700032 0.000000
0.800032 0.000000
0.900032 0.000000
1.000032 0.000000
1.100032 0.024472
1.200032 0.024472
1.300032 0.024472
-0.499968 0.024472
-0.399968 0.024472
-0.299968 0.024472
-0.199968 0.024472
-0.099968 0.024472
0.000032 0.024472
0.100032 0.024472
0.200032 0.024472
0.300032 0.024472
0.400032 0.024472
0.500032 0.024472
0.600032 0.024472
0.700032 0.024472
0.800032 0.024472
0.900032 0.024472
1.000032 0.024472
1.100032 0.095491
1.200032 0.095491
1.300032 0.095491
-0.499968 0.095491
-0.399968 0.095491
-0.299968 0.095491
-0.199968 0.095491
-0.099968 0.095491
0.000032 0.095491
0.100032 0.095491
0.200032 0.095491
0.300032 0.095491
0.400032 0.095491
0.500032 0.095491
0.600032 0.095491
0.700032 0.095491
0.800032 0.095491
0.900032 0.095491
1.000032 0.095491
1.100032 0.206107
1.200032 0.206107
1.300032 0.206107
-0.499968 0.206107
-0.399968 0.206107
-0.299968 0.206107
-0.199968 0.206107
-0.099968 0.206107
0.000032 0.206107
0.100032 0.206107
0.200032 0.206107
0.300032 0.206107
0.400032 0.206107
0.500032 0.206107
0.600032 0.206107
0.700032 0.206107
0.800032 0.206107
0.900032 0.206107
1.000032 0.206107
1.100032 0.345492
1.200032 0.345492
1.300032 0.345492
-0.499968 0.345492
-0.399968 0.345492
-0.299968 0.345492
-0.199968 0.345492
-0.099968 0.345492
0.000032 0.345492
0.100032 0.345492
0.200032 0.345492
0.300032 0.345492
0.400032 0.345492
0.500032 0.345492
0.600032 0.345492
0.700032 0.345492
0.800032 0.345492
0.900032 0.345492
1.000032 0.345492
1.500032 0.654509
1.400032 0.654509
1.500032 0.793893
1.400032 0.793893
1.500032 0.904509
1.400032 0.904509
1.500032 0.975528
1.400032 0.975528
1.500032 1.000000
1.400032 1.000000
1.500032 0.975528
1.400032 0.975528
1.500032 0.904509
1.400032 0.904509
1.500032 0.793893
1.400032 0.793893
1.500032 0.654509
1.400032 0.654509
1.500032 0.500000
1.400032 0.500000
1.500032 0.345492
1.400032 0.345492
1.500032 0.206107
1.400032 0.206107
1.500032 0.095492
1.400032 0.095492
1.500032 0.024472
1.400032 0.024472
1.500032 0.000000
1.400032 0.000000
1.500032 0.024472
1.400032 0.024472
1.500032 0.095491
1.400032 0.095491
1.500032 0.206107
1.400032 0.206107
1.500032 0.345492
1.400032 0.345492
1.500032 0.500000
</float_array>
          <technique_common>
            <accessor source="#pTorus1-lib-UV1-array" count="420" stride="2">
              <param name="S" type="float"/>
              <param name="T" type="float"/>
            </accessor>
          </technique_common>
        </source>
        <vertices id="pTorus1-lib-Vertex">
          <input semantic="POSITION" source="#pTorus1-lib-Position"/>
        </vertices>
        <polygons material="lambert1" count="800">
          <input semantic="VERTEX" offset="0" source="#pTorus1-lib-Vertex"/>
          <input semantic="NORMAL" offset="1" source="#pTorus1-lib-Normal0"/>
          <input semantic="TEXCOORD" offset="2" set="0" source="#pTorus1-lib-UV0"/>
          <input semantic="TEXCOORD" offset="3" set="1" source="#pTorus1-lib-UV1"/>
          <p>1 1 1 0 0 0 0 1 20 20 21 2</p>
          <p>20 20 21 2 21 21 22 3 1 1 1 0</p>
          <p>2 2 2 4 1 1 1 0 21 21 22 3</p>
          <p>21 21 22 3 22 22 23 5 2 2 2 4</p>
          <p>3 3 3 6 2 2 2 4 22 22 23 5</p>
          <p>22 22 23 5 23 23 24 382 3 3 3 6</p>
          <p>4 4 4 419 3 3 3 6 23 23 24 382</p>
          <p>23 23 24 382 24 24 25 381 4 4 4 419</p>
          <p>5 5 5 9 4 4 4 7 24 24 25 8</p>
          <p>24 24 25 8 25 25 26 10 5 5 5 9</p>
          <p>6 6 6 11 5 5 5 9 25 25 26 10</p>
          <p>25 25 26 10 26 26 27 12 6 6 6 11</p>
          <p>7 7 7 13 6 6 6 11 26 26 27 12</p>
          <p>26 26 27 12 27 27 28 14 7 7 7 13</p>
          <p>8 8 8 15 7 7 7 13 27 27 28 14</p>
          <p>27 27 28 14 28 28 29 16 8 8 8 15</p>
          <p>9 9 9 17 8 8 8 15 28 28 29 16</p>
          <p>28 28 29 16 29 29 30 18 9 9 9 17</p>
          <p>10 10 10 19 9 9 9 17 29 29 30 18</p>
          <p>29 29 30 18 30 30 31 20 10 10 10 19</p>
          <p>11 11 11 21 10 10 10 19 30 30 31 20</p>
          <p>30 30 31 20 31 31 32 22 11 11 11 21</p>
          <p>12 12 12 23 11 11 11 21 31 31 32 22</p>
          <p>31 31 32 22 32 32 33 24 12 12 12 23</p>
          <p>13 13 13 25 12 12 12 23 32 32 33 24</p>
          <p>32 32 33 24 33 33 34 26 13 13 13 25</p>
          <p>14 14 14 27 13 13 13 25 33 33 34 26</p>
          <p>33 33 34 26 34 34 35 28 14 14 14 27</p>
          <p>15 15 15 29 14 14 14 27 34 34 35 28</p>
          <p>34 34 35 28 35 35 36 30 15 15 15 29</p>
          <p>16 16 16 31 15 15 15 29 35 35 36 30</p>
          <p>35 35 36 30 36 36 37 32 16 16 16 31</p>
          <p>17 17 17 33 16 16 16 31 36 36 37 32</p>
          <p>36 36 37 32 37 37 38 34 17 17 17 33</p>
          <p>18 18 18 35 17 17 17 33 37 37 38 34</p>
          <p>37 37 38 34 38 38 39 36 18 18 18 35</p>
          <p>19 19 19 37 18 18 18 35 38 38 39 36</p>
          <p>38 38 39 36 39 39 40 38 19 19 19 37</p>
          <p>0 0 20 1 19 19 19 37 39 39 40 38</p>
          <p>39 39 40 38 20 20 41 2 0 0 20 1</p>
          <p>21 21 22 3 20 20 21 2 40 40 42 39</p>
          <p>40 40 42 39 41 41 43 40 21 21 22 3</p>
          <p>22 22 23 5 21 21 22 3 41 41 43 40</p>
          <p>41 41 43 40 42 42 44 41 22 22 23 5</p>
          <p>23 23 24 382 22 22 23 5 42 42 44 41</p>
          <p>42 42 44 41 43 43 45 384 23 23 24 382</p>
          <p>24 24 25 381 23 23 24 382 43 43 45 384</p>
          <p>43 43 45 384 44 44 46 383 24 24 25 381</p>
          <p>25 25 26 10 24 24 25 8 44 44 46 42</p>
          <p>44 44 46 42 45 45 47 43 25 25 26 10</p>
          <p>26 26 27 12 25 25 26 10 45 45 47 43</p>
          <p>45 45 47 43 46 46 48 44 26 26 27 12</p>
          <p>27 27 28 14 26 26 27 12 46 46 48 44</p>
          <p>46 46 48 44 47 47 49 45 27 27 28 14</p>
          <p>28 28 29 16 27 27 28 14 47 47 49 45</p>
          <p>47 47 49 45 48 48 50 46 28 28 29 16</p>
          <p>29 29 30 18 28 28 29 16 48 48 50 46</p>
          <p>48 48 50 46 49 49 51 47 29 29 30 18</p>
          <p>30 30 31 20 29 29 30 18 49 49 51 47</p>
          <p>49 49 51 47 50 50 52 48 30 30 31 20</p>
          <p>31 31 32 22 30 30 31 20 50 50 52 48</p>
          <p>50 50 52 48 51 51 53 49 31 31 32 22</p>
          <p>32 32 33 24 31 31 32 22 51 51 53 49</p>
          <p>51 51 53 49 52 52 54 50 32 32 33 24</p>
          <p>33 33 34 26 32 32 33 24 52 52 54 50</p>
          <p>52 52 54 50 53 53 55 51 33 33 34 26</p>
          <p>34 34 35 28 33 33 34 26 53 53 55 51</p>
          <p>53 53 55 51 54 54 56 52 34 34 35 28</p>
          <p>35 35 36 30 34 34 35 28 54 54 56 52</p>
          <p>54 54 56 52 55 55 57 53 35 35 36 30</p>
          <p>36 36 37 32 35 35 36 30 55 55 57 53</p>
          <p>55 55 57 53 56 56 58 54 36 36 37 32</p>
          <p>37 37 38 34 36 36 37 32 56 56 58 54</p>
          <p>56 56 58 54 57 57 59 55 37 37 38 34</p>
          <p>38 38 39 36 37 37 38 34 57 57 59 55</p>
          <p>57 57 59 55 58 58 60 56 38 38 39 36</p>
          <p>39 39 40 38 38 38 39 36 58 58 60 56</p>
          <p>58 58 60 56 59 59 61 57 39 39 40 38</p>
          <p>20 20 41 2 39 39 40 38 59 59 61 57</p>
          <p>59 59 61 57 40 40 62 39 20 20 41 2</p>
          <p>41 41 43 40 40 40 42 39 60 60 63 58</p>
          <p>60 60 63 58 61 61 64 59 41 41 43 40</p>
          <p>42 42 44 41 41 41 43 40 61 61 64 59</p>
          <p>61 61 64 59 62 62 65 60 42 42 44 41</p>
          <p>43 43 45 384 42 42 44 41 62 62 65 60</p>
          <p>62 62 65 60 63 63 66 386 43 43 45 384</p>
          <p>44 44 46 383 43 43 45 384 63 63 66 386</p>
          <p>63 63 66 386 64 64 67 385 44 44 46 383</p>
          <p>45 45 47 43 44 44 46 42 64 64 67 61</p>
          <p>64 64 67 61 65 65 68 62 45 45 47 43</p>
          <p>46 46 48 44 45 45 47 43 65 65 68 62</p>
          <p>65 65 68 62 66 66 69 63 46 46 48 44</p>
          <p>47 47 49 45 46 46 48 44 66 66 69 63</p>
          <p>66 66 69 63 67 67 70 64 47 47 49 45</p>
          <p>48 48 50 46 47 47 49 45 67 67 70 64</p>
          <p>67 67 70 64 68 68 71 65 48 48 50 46</p>
          <p>49 49 51 47 48 48 50 46 68 68 71 65</p>
          <p>68 68 71 65 69 69 72 66 49 49 51 47</p>
          <p>50 50 52 48 49 49 51 47 69 69 72 66</p>
          <p>69 69 72 66 70 70 73 67 50 50 52 48</p>
          <p>51 51 53 49 50 50 52 48 70 70 73 67</p>
          <p>70 70 73 67 71 71 74 68 51 51 53 49</p>
          <p>52 52 54 50 51 51 53 49 71 71 74 68</p>
          <p>71 71 74 68 72 72 75 69 52 52 54 50</p>
          <p>53 53 55 51 52 52 54 50 72 72 75 69</p>
          <p>72 72 75 69 73 73 76 70 53 53 55 51</p>
          <p>54 54 56 52 53 53 55 51 73 73 76 70</p>
          <p>73 73 76 70 74 74 77 71 54 54 56 52</p>
          <p>55 55 57 53 54 54 56 52 74 74 77 71</p>
          <p>74 74 77 71 75 75 78 72 55 55 57 53</p>
          <p>56 56 58 54 55 55 57 53 75 75 78 72</p>
          <p>75 75 78 72 76 76 79 73 56 56 58 54</p>
          <p>57 57 59 55 56 56 58 54 76 76 79 73</p>
          <p>76 76 79 73 77 77 80 74 57 57 59 55</p>
          <p>58 58 60 56 57 57 59 55 77 77 80 74</p>
          <p>77 77 80 74 78 78 81 75 58 58 60 56</p>
          <p>59 59 61 57 58 58 60 56 78 78 81 75</p>
          <p>78 78 81 75 79 79 82 76 59 59 61 57</p>
          <p>40 40 62 39 59 59 61 57 79 79 82 76</p>
          <p>79 79 82 76 60 60 83 58 40 40 62 39</p>
          <p>61 61 64 59 60 60 63 58 80 80 84 77</p>
          <p>80 80 84 77 81 81 85 78 61 61 64 59</p>
          <p>62 62 65 60 61 61 64 59 81 81 85 78</p>
          <p>81 81 85 78 82 82 86 79 62 62 65 60</p>
          <p>63 63 66 386 62 62 65 60 82 82 86 79</p>
          <p>82 82 86 79 83 83 87 388 63 63 66 386</p>
          <p>64 64 67 385 63 63 66 386 83 83 87 388</p>
          <p>83 83 87 388 84 84 88 387 64 64 67 385</p>
          <p>65 65 68 62 64 64 67 61 84 84 88 80</p>
          <p>84 84 88 80 85 85 89 81 65 65 68 62</p>
          <p>66 66 69 63 65 65 68 62 85 85 89 81</p>
          <p>85 85 89 81 86 86 90 82 66 66 69 63</p>
          <p>67 67 70 64 66 66 69 63 86 86 90 82</p>
          <p>86 86 90 82 87 87 91 83 67 67 70 64</p>
          <p>68 68 71 65 67 67 70 64 87 87 91 83</p>
          <p>87 87 91 83 88 88 92 84 68 68 71 65</p>
          <p>69 69 72 66 68 68 71 65 88 88 92 84</p>
          <p>88 88 92 84 89 89 93 85 69 69 72 66</p>
          <p>70 70 73 67 69 69 72 66 89 89 93 85</p>
          <p>89 89 93 85 90 90 94 86 70 70 73 67</p>
          <p>71 71 74 68 70 70 73 67 90 90 94 86</p>
          <p>90 90 94 86 91 91 95 87 71 71 74 68</p>
          <p>72 72 75 69 71 71 74 68 91 91 95 87</p>
          <p>91 91 95 87 92 92 96 88 72 72 75 69</p>
          <p>73 73 76 70 72 72 75 69 92 92 96 88</p>
          <p>92 92 96 88 93 93 97 89 73 73 76 70</p>
          <p>74 74 77 71 73 73 76 70 93 93 97 89</p>
          <p>93 93 97 89 94 94 98 90 74 74 77 71</p>
          <p>75 75 78 72 74 74 77 71 94 94 98 90</p>
          <p>94 94 98 90 95 95 99 91 75 75 78 72</p>
          <p>76 76 79 73 75 75 78 72 95 95 99 91</p>
          <p>95 95 99 91 96 96 100 92 76 76 79 73</p>
          <p>77 77 80 74 76 76 79 73 96 96 100 92</p>
          <p>96 96 100 92 97 97 101 93 77 77 80 74</p>
          <p>78 78 81 75 77 77 80 74 97 97 101 93</p>
          <p>97 97 101 93 98 98 102 94 78 78 81 75</p>
          <p>79 79 82 76 78 78 81 75 98 98 102 94</p>
          <p>98 98 102 94 99 99 103 95 79 79 82 76</p>
          <p>60 60 83 58 79 79 82 76 99 99 103 95</p>
          <p>99 99 103 95 80 80 104 77 60 60 83 58</p>
          <p>81 81 85 78 80 80 84 77 100 100 105 96</p>
          <p>100 100 105 96 101 101 106 97 81 81 85 78</p>
          <p>82 82 86 79 81 81 85 78 101 101 106 97</p>
          <p>101 101 106 97 102 102 107 98 82 82 86 79</p>
          <p>83 83 87 388 82 82 86 79 102 102 107 98</p>
          <p>102 102 107 98 103 103 108 390 83 83 87 388</p>
          <p>84 84 88 387 83 83 87 388 103 103 108 390</p>
          <p>103 103 108 390 104 104 109 389 84 84 88 387</p>
          <p>85 85 89 81 84 84 88 80 104 104 109 99</p>
          <p>104 104 109 99 105 105 110 100 85 85 89 81</p>
          <p>86 86 90 82 85 85 89 81 105 105 110 100</p>
          <p>105 105 110 100 106 106 111 101 86 86 90 82</p>
          <p>87 87 91 83 86 86 90 82 106 106 111 101</p>
          <p>106 106 111 101 107 107 112 102 87 87 91 83</p>
          <p>88 88 92 84 87 87 91 83 107 107 112 102</p>
          <p>107 107 112 102 108 108 113 103 88 88 92 84</p>
          <p>89 89 93 85 88 88 92 84 108 108 113 103</p>
          <p>108 108 113 103 109 109 114 104 89 89 93 85</p>
          <p>90 90 94 86 89 89 93 85 109 109 114 104</p>
          <p>109 109 114 104 110 110 115 105 90 90 94 86</p>
          <p>91 91 95 87 90 90 94 86 110 110 115 105</p>
          <p>110 110 115 105 111 111 116 106 91 91 95 87</p>
          <p>92 92 96 88 91 91 95 87 111 111 116 106</p>
          <p>111 111 116 106 112 112 117 107 92 92 96 88</p>
          <p>93 93 97 89 92 92 96 88 112 112 117 107</p>
          <p>112 112 117 107 113 113 118 108 93 93 97 89</p>
          <p>94 94 98 90 93 93 97 89 113 113 118 108</p>
          <p>113 113 118 108 114 114 119 109 94 94 98 90</p>
          <p>95 95 99 91 94 94 98 90 114 114 119 109</p>
          <p>114 114 119 109 115 115 120 110 95 95 99 91</p>
          <p>96 96 100 92 95 95 99 91 115 115 120 110</p>
          <p>115 115 120 110 116 116 121 111 96 96 100 92</p>
          <p>97 97 101 93 96 96 100 92 116 116 121 111</p>
          <p>116 116 121 111 117 117 122 112 97 97 101 93</p>
          <p>98 98 102 94 97 97 101 93 117 117 122 112</p>
          <p>117 117 122 112 118 118 123 113 98 98 102 94</p>
          <p>99 99 103 95 98 98 102 94 118 118 123 113</p>
          <p>118 118 123 113 119 119 124 114 99 99 103 95</p>
          <p>80 80 104 77 99 99 103 95 119 119 124 114</p>
          <p>119 119 124 114 100 100 125 96 80 80 104 77</p>
          <p>101 101 106 97 100 100 105 96 120 120 126 115</p>
          <p>120 120 126 115 121 121 127 116 101 101 106 97</p>
          <p>102 102 107 98 101 101 106 97 121 121 127 116</p>
          <p>121 121 127 116 122 122 128 117 102 102 107 98</p>
          <p>103 103 108 390 102 102 107 98 122 122 128 117</p>
          <p>122 122 128 117 123 123 129 392 103 103 108 390</p>
          <p>104 104 109 389 103 103 108 390 123 123 129 392</p>
          <p>123 123 129 392 124 124 130 391 104 104 109 389</p>
          <p>105 105 110 100 104 104 109 99 124 124 130 118</p>
          <p>124 124 130 118 125 125 131 119 105 105 110 100</p>
          <p>106 106 111 101 105 105 110 100 125 125 131 119</p>
          <p>125 125 131 119 126 126 132 120 106 106 111 101</p>
          <p>107 107 112 102 106 106 111 101 126 126 132 120</p>
          <p>126 126 132 120 127 127 133 121 107 107 112 102</p>
          <p>108 108 113 103 107 107 112 102 127 127 133 121</p>
          <p>127 127 133 121 128 128 134 122 108 108 113 103</p>
          <p>109 109 114 104 108 108 113 103 128 128 134 122</p>
          <p>128 128 134 122 129 129 135 123 109 109 114 104</p>
          <p>110 110 115 105 109 109 114 104 129 129 135 123</p>
          <p>129 129 135 123 130 130 136 124 110 110 115 105</p>
          <p>111 111 116 106 110 110 115 105 130 130 136 124</p>
          <p>130 130 136 124 131 131 137 125 111 111 116 106</p>
          <p>112 112 117 107 111 111 116 106 131 131 137 125</p>
          <p>131 131 137 125 132 132 138 126 112 112 117 107</p>
          <p>113 113 118 108 112 112 117 107 132 132 138 126</p>
          <p>132 132 138 126 133 133 139 127 113 113 118 108</p>
          <p>114 114 119 109 113 113 118 108 133 133 139 127</p>
          <p>133 133 139 127 134 134 140 128 114 114 119 109</p>
          <p>115 115 120 110 114 114 119 109 134 134 140 128</p>
          <p>134 134 140 128 135 135 141 129 115 115 120 110</p>
          <p>116 116 121 111 115 115 120 110 135 135 141 129</p>
          <p>135 135 141 129 136 136 142 130 116 116 121 111</p>
          <p>117 117 122 112 116 116 121 111 136 136 142 130</p>
          <p>136 136 142 130 137 137 143 131 117 117 122 112</p>
          <p>118 118 123 113 117 117 122 112 137 137 143 131</p>
          <p>137 137 143 131 138 138 144 132 118 118 123 113</p>
          <p>119 119 124 114 118 118 123 113 138 138 144 132</p>
          <p>138 138 144 132 139 139 145 133 119 119 124 114</p>
          <p>100 100 125 96 119 119 124 114 139 139 145 133</p>
          <p>139 139 145 133 120 120 146 115 100 100 125 96</p>
          <p>121 121 127 116 120 120 126 115 140 140 147 134</p>
          <p>140 140 147 134 141 141 148 135 121 121 127 116</p>
          <p>122 122 128 117 121 121 127 116 141 141 148 135</p>
          <p>141 141 148 135 142 142 149 136 122 122 128 117</p>
          <p>123 123 129 392 122 122 128 117 142 142 149 136</p>
          <p>142 142 149 136 143 143 150 394 123 123 129 392</p>
          <p>124 124 130 391 123 123 129 392 143 143 150 394</p>
          <p>143 143 150 394 144 144 151 393 124 124 130 391</p>
          <p>125 125 131 119 124 124 130 118 144 144 151 137</p>
          <p>144 144 151 137 145 145 152 138 125 125 131 119</p>
          <p>126 126 132 120 125 125 131 119 145 145 152 138</p>
          <p>145 145 152 138 146 146 153 139 126 126 132 120</p>
          <p>127 127 133 121 126 126 132 120 146 146 153 139</p>
          <p>146 146 153 139 147 147 154 140 127 127 133 121</p>
          <p>128 128 134 122 127 127 133 121 147 147 154 140</p>
          <p>147 147 154 140 148 148 155 141 128 128 134 122</p>
          <p>129 129 135 123 128 128 134 122 148 148 155 141</p>
          <p>148 148 155 141 149 149 156 142 129 129 135 123</p>
          <p>130 130 136 124 129 129 135 123 149 149 156 142</p>
          <p>149 149 156 142 150 150 157 143 130 130 136 124</p>
          <p>131 131 137 125 130 130 136 124 150 150 157 143</p>
          <p>150 150 157 143 151 151 158 144 131 131 137 125</p>
          <p>132 132 138 126 131 131 137 125 151 151 158 144</p>
          <p>151 151 158 144 152 152 159 145 132 132 138 126</p>
          <p>133 133 139 127 132 132 138 126 152 152 159 145</p>
          <p>152 152 159 145 153 153 160 146 133 133 139 127</p>
          <p>134 134 140 128 133 133 139 127 153 153 160 146</p>
          <p>153 153 160 146 154 154 161 147 134 134 140 128</p>
          <p>135 135 141 129 134 134 140 128 154 154 161 147</p>
          <p>154 154 161 147 155 155 162 148 135 135 141 129</p>
          <p>136 136 142 130 135 135 141 129 155 155 162 148</p>
          <p>155 155 162 148 156 156 163 149 136 136 142 130</p>
          <p>137 137 143 131 136 136 142 130 156 156 163 149</p>
          <p>156 156 163 149 157 157 164 150 137 137 143 131</p>
          <p>138 138 144 132 137 137 143 131 157 157 164 150</p>
          <p>157 157 164 150 158 158 165 151 138 138 144 132</p>
          <p>139 139 145 133 138 138 144 132 158 158 165 151</p>
          <p>158 158 165 151 159 159 166 152 139 139 145 133</p>
          <p>120 120 146 115 139 139 145 133 159 159 166 152</p>
          <p>159 159 166 152 140 140 167 134 120 120 146 115</p>
          <p>141 141 148 135 140 140 147 134 160 160 168 153</p>
          <p>160 160 168 153 161 161 169 154 141 141 148 135</p>
          <p>142 142 149 136 141 141 148 135 161 161 169 154</p>
          <p>161 161 169 154 162 162 170 155 142 142 149 136</p>
          <p>143 143 150 394 142 142 149 136 162 162 170 155</p>
          <p>162 162 170 155 163 163 171 396 143 143 150 394</p>
          <p>144 144 151 393 143 143 150 394 163 163 171 396</p>
          <p>163 163 171 396 164 164 172 395 144 144 151 393</p>
          <p>145 145 152 138 144 144 151 137 164 164 172 156</p>
          <p>164 164 172 156 165 165 173 157 145 145 152 138</p>
          <p>146 146 153 139 145 145 152 138 165 165 173 157</p>
          <p>165 165 173 157 166 166 174 158 146 146 153 139</p>
          <p>147 147 154 140 146 146 153 139 166 166 174 158</p>
          <p>166 166 174 158 167 167 175 159 147 147 154 140</p>
          <p>148 148 155 141 147 147 154 140 167 167 175 159</p>
          <p>167 167 175 159 168 168 176 160 148 148 155 141</p>
          <p>149 149 156 142 148 148 155 141 168 168 176 160</p>
          <p>168 168 176 160 169 169 177 161 149 149 156 142</p>
          <p>150 150 157 143 149 149 156 142 169 169 177 161</p>
          <p>169 169 177 161 170 170 178 162 150 150 157 143</p>
          <p>151 151 158 144 150 150 157 143 170 170 178 162</p>
          <p>170 170 178 162 171 171 179 163 151 151 158 144</p>
          <p>152 152 159 145 151 151 158 144 171 171 179 163</p>
          <p>171 171 179 163 172 172 180 164 152 152 159 145</p>
          <p>153 153 160 146 152 152 159 145 172 172 180 164</p>
          <p>172 172 180 164 173 173 181 165 153 153 160 146</p>
          <p>154 154 161 147 153 153 160 146 173 173 181 165</p>
          <p>173 173 181 165 174 174 182 166 154 154 161 147</p>
          <p>155 155 162 148 154 154 161 147 174 174 182 166</p>
          <p>174 174 182 166 175 175 183 167 155 155 162 148</p>
          <p>156 156 163 149 155 155 162 148 175 175 183 167</p>
          <p>175 175 183 167 176 176 184 168 156 156 163 149</p>
          <p>157 157 164 150 156 156 163 149 176 176 184 168</p>
          <p>176 176 184 168 177 177 185 169 157 157 164 150</p>
          <p>158 158 165 151 157 157 164 150 177 177 185 169</p>
          <p>177 177 185 169 178 178 186 170 158 158 165 151</p>
          <p>159 159 166 152 158 158 165 151 178 178 186 170</p>
          <p>178 178 186 170 179 179 187 171 159 159 166 152</p>
          <p>140 140 167 134 159 159 166 152 179 179 187 171</p>
          <p>179 179 187 171 160 160 188 153 140 140 167 134</p>
          <p>161 161 169 154 160 160 168 153 180 180 189 172</p>
          <p>180 180 189 172 181 181 190 173 161 161 169 154</p>
          <p>162 162 170 155 161 161 169 154 181 181 190 173</p>
          <p>181 181 190 173 182 182 191 174 162 162 170 155</p>
          <p>163 163 171 396 162 162 170 155 182 182 191 174</p>
          <p>182 182 191 174 183 183 192 398 163 163 171 396</p>
          <p>164 164 172 395 163 163 171 396 183 183 192 398</p>
          <p>183 183 192 398 184 184 193 397 164 164 172 395</p>
          <p>165 165 173 157 164 164 172 156 184 184 193 175</p>
          <p>184 184 193 175 185 185 194 176 165 165 173 157</p>
          <p>166 166 174 158 165 165 173 157 185 185 194 176</p>
          <p>185 185 194 176 186 186 195 177 166 166 174 158</p>
          <p>167 167 175 159 166 166 174 158 186 186 195 177</p>
          <p>186 186 195 177 187 187 196 178 167 167 175 159</p>
          <p>168 168 176 160 167 167 175 159 187 187 196 178</p>
          <p>187 187 196 178 188 188 197 179 168 168 176 160</p>
          <p>169 169 177 161 168 168 176 160 188 188 197 179</p>
          <p>188 188 197 179 189 189 198 180 169 169 177 161</p>
          <p>170 170 178 162 169 169 177 161 189 189 198 180</p>
          <p>189 189 198 180 190 190 199 181 170 170 178 162</p>
          <p>171 171 179 163 170 170 178 162 190 190 199 181</p>
          <p>190 190 199 181 191 191 200 182 171 171 179 163</p>
          <p>172 172 180 164 171 171 179 163 191 191 200 182</p>
          <p>191 191 200 182 192 192 201 183 172 172 180 164</p>
          <p>173 173 181 165 172 172 180 164 192 192 201 183</p>
          <p>192 192 201 183 193 193 202 184 173 173 181 165</p>
          <p>174 174 182 166 173 173 181 165 193 193 202 184</p>
          <p>193 193 202 184 194 194 203 185 174 174 182 166</p>
          <p>175 175 183 167 174 174 182 166 194 194 203 185</p>
          <p>194 194 203 185 195 195 204 186 175 175 183 167</p>
          <p>176 176 184 168 175 175 183 167 195 195 204 186</p>
          <p>195 195 204 186 196 196 205 187 176 176 184 168</p>
          <p>177 177 185 169 176 176 184 168 196 196 205 187</p>
          <p>196 196 205 187 197 197 206 188 177 177 185 169</p>
          <p>178 178 186 170 177 177 185 169 197 197 206 188</p>
          <p>197 197 206 188 198 198 207 189 178 178 186 170</p>
          <p>179 179 187 171 178 178 186 170 198 198 207 189</p>
          <p>198 198 207 189 199 199 208 190 179 179 187 171</p>
          <p>160 160 188 153 179 179 187 171 199 199 208 190</p>
          <p>199 199 208 190 180 180 209 172 160 160 188 153</p>
          <p>181 181 190 173 180 180 189 172 200 200 210 191</p>
          <p>200 200 210 191 201 201 211 192 181 181 190 173</p>
          <p>182 182 191 174 181 181 190 173 201 201 211 192</p>
          <p>201 201 211 192 202 202 212 193 182 182 191 174</p>
          <p>183 183 192 398 182 182 191 174 202 202 212 193</p>
          <p>202 202 212 193 203 203 213 400 183 183 192 398</p>
          <p>184 184 193 397 183 183 192 398 203 203 213 400</p>
          <p>203 203 213 400 204 204 214 399 184 184 193 397</p>
          <p>185 185 194 176 184 184 193 175 204 204 214 194</p>
          <p>204 204 214 194 205 205 215 195 185 185 194 176</p>
          <p>186 186 195 177 185 185 194 176 205 205 215 195</p>
          <p>205 205 215 195 206 206 216 196 186 186 195 177</p>
          <p>187 187 196 178 186 186 195 177 206 206 216 196</p>
          <p>206 206 216 196 207 207 217 197 187 187 196 178</p>
          <p>188 188 197 179 187 187 196 178 207 207 217 197</p>
          <p>207 207 217 197 208 208 218 198 188 188 197 179</p>
          <p>189 189 198 180 188 188 197 179 208 208 218 198</p>
          <p>208 208 218 198 209 209 219 199 189 189 198 180</p>
          <p>190 190 199 181 189 189 198 180 209 209 219 199</p>
          <p>209 209 219 199 210 210 220 200 190 190 199 181</p>
          <p>191 191 200 182 190 190 199 181 210 210 220 200</p>
          <p>210 210 220 200 211 211 221 201 191 191 200 182</p>
          <p>192 192 201 183 191 191 200 182 211 211 221 201</p>
          <p>211 211 221 201 212 212 222 202 192 192 201 183</p>
          <p>193 193 202 184 192 192 201 183 212 212 222 202</p>
          <p>212 212 222 202 213 213 223 203 193 193 202 184</p>
          <p>194 194 203 185 193 193 202 184 213 213 223 203</p>
          <p>213 213 223 203 214 214 224 204 194 194 203 185</p>
          <p>195 195 204 186 194 194 203 185 214 214 224 204</p>
          <p>214 214 224 204 215 215 225 205 195 195 204 186</p>
          <p>196 196 205 187 195 195 204 186 215 215 225 205</p>
          <p>215 215 225 205 216 216 226 206 196 196 205 187</p>
          <p>197 197 206 188 196 196 205 187 216 216 226 206</p>
          <p>216 216 226 206 217 217 227 207 197 197 206 188</p>
          <p>198 198 207 189 197 197 206 188 217 217 227 207</p>
          <p>217 217 227 207 218 218 228 208 198 198 207 189</p>
          <p>199 199 208 190 198 198 207 189 218 218 228 208</p>
          <p>218 218 228 208 219 219 229 209 199 199 208 190</p>
          <p>180 180 209 172 199 199 208 190 219 219 229 209</p>
          <p>219 219 229 209 200 200 230 191 180 180 209 172</p>
          <p>201 201 211 192 200 200 210 191 220 220 231 210</p>
          <p>220 220 231 210 221 221 232 211 201 201 211 192</p>
          <p>202 202 212 193 201 201 211 192 221 221 232 211</p>
          <p>221 221 232 211 222 222 233 212 202 202 212 193</p>
          <p>203 203 213 400 202 202 212 193 222 222 233 212</p>
          <p>222 222 233 212 223 223 234 402 203 203 213 400</p>
          <p>204 204 214 399 203 203 213 400 223 223 234 402</p>
          <p>223 223 234 402 224 224 235 401 204 204 214 399</p>
          <p>205 205 215 195 204 204 214 194 224 224 235 213</p>
          <p>224 224 235 213 225 225 236 214 205 205 215 195</p>
          <p>206 206 216 196 205 205 215 195 225 225 236 214</p>
          <p>225 225 236 214 226 226 237 215 206 206 216 196</p>
          <p>207 207 217 197 206 206 216 196 226 226 237 215</p>
          <p>226 226 237 215 227 227 238 216 207 207 217 197</p>
          <p>208 208 218 198 207 207 217 197 227 227 238 216</p>
          <p>227 227 238 216 228 228 239 217 208 208 218 198</p>
          <p>209 209 219 199 208 208 218 198 228 228 239 217</p>
          <p>228 228 239 217 229 229 240 218 209 209 219 199</p>
          <p>210 210 220 200 209 209 219 199 229 229 240 218</p>
          <p>229 229 240 218 230 230 241 219 210 210 220 200</p>
          <p>211 211 221 201 210 210 220 200 230 230 241 219</p>
          <p>230 230 241 219 231 231 242 220 211 211 221 201</p>
          <p>212 212 222 202 211 211 221 201 231 231 242 220</p>
          <p>231 231 242 220 232 232 243 221 212 212 222 202</p>
          <p>213 213 223 203 212 212 222 202 232 232 243 221</p>
          <p>232 232 243 221 233 233 244 222 213 213 223 203</p>
          <p>214 214 224 204 213 213 223 203 233 233 244 222</p>
          <p>233 233 244 222 234 234 245 223 214 214 224 204</p>
          <p>215 215 225 205 214 214 224 204 234 234 245 223</p>
          <p>234 234 245 223 235 235 246 224 215 215 225 205</p>
          <p>216 216 226 206 215 215 225 205 235 235 246 224</p>
          <p>235 235 246 224 236 236 247 225 216 216 226 206</p>
          <p>217 217 227 207 216 216 226 206 236 236 247 225</p>
          <p>236 236 247 225 237 237 248 226 217 217 227 207</p>
          <p>218 218 228 208 217 217 227 207 237 237 248 226</p>
          <p>237 237 248 226 238 238 249 227 218 218 228 208</p>
          <p>219 219 229 209 218 218 228 208 238 238 249 227</p>
          <p>238 238 249 227 239 239 250 228 219 219 229 209</p>
          <p>200 200 230 191 219 219 229 209 239 239 250 228</p>
          <p>239 239 250 228 220 220 251 210 200 200 230 191</p>
          <p>221 221 232 211 220 220 231 210 240 240 252 229</p>
          <p>240 240 252 229 241 241 253 230 221 221 232 211</p>
          <p>222 222 233 212 221 221 232 211 241 241 253 230</p>
          <p>241 241 253 230 242 242 254 231 222 222 233 212</p>
          <p>223 223 234 402 222 222 233 212 242 242 254 231</p>
          <p>242 242 254 231 243 243 255 404 223 223 234 402</p>
          <p>224 224 235 401 223 223 234 402 243 243 255 404</p>
          <p>243 243 255 404 244 244 256 403 224 224 235 401</p>
          <p>225 225 236 214 224 224 235 213 244 244 256 232</p>
          <p>244 244 256 232 245 245 257 233 225 225 236 214</p>
          <p>226 226 237 215 225 225 236 214 245 245 257 233</p>
          <p>245 245 257 233 246 246 258 234 226 226 237 215</p>
          <p>227 227 238 216 226 226 237 215 246 246 258 234</p>
          <p>246 246 258 234 247 247 259 235 227 227 238 216</p>
          <p>228 228 239 217 227 227 238 216 247 247 259 235</p>
          <p>247 247 259 235 248 248 260 236 228 228 239 217</p>
          <p>229 229 240 218 228 228 239 217 248 248 260 236</p>
          <p>248 248 260 236 249 249 261 237 229 229 240 218</p>
          <p>230 230 241 219 229 229 240 218 249 249 261 237</p>
          <p>249 249 261 237 250 250 262 238 230 230 241 219</p>
          <p>231 231 242 220 230 230 241 219 250 250 262 238</p>
          <p>250 250 262 238 251 251 263 239 231 231 242 220</p>
          <p>232 232 243 221 231 231 242 220 251 251 263 239</p>
          <p>251 251 263 239 252 252 264 240 232 232 243 221</p>
          <p>233 233 244 222 232 232 243 221 252 252 264 240</p>
          <p>252 252 264 240 253 253 265 241 233 233 244 222</p>
          <p>234 234 245 223 233 233 244 222 253 253 265 241</p>
          <p>253 253 265 241 254 254 266 242 234 234 245 223</p>
          <p>235 235 246 224 234 234 245 223 254 254 266 242</p>
          <p>254 254 266 242 255 255 267 243 235 235 246 224</p>
          <p>236 236 247 225 235 235 246 224 255 255 267 243</p>
          <p>255 255 267 243 256 256 268 244 236 236 247 225</p>
          <p>237 237 248 226 236 236 247 225 256 256 268 244</p>
          <p>256 256 268 244 257 257 269 245 237 237 248 226</p>
          <p>238 238 249 227 237 237 248 226 257 257 269 245</p>
          <p>257 257 269 245 258 258 270 246 238 238 249 227</p>
          <p>239 239 250 228 238 238 249 227 258 258 270 246</p>
          <p>258 258 270 246 259 259 271 247 239 239 250 228</p>
          <p>220 220 251 210 239 239 250 228 259 259 271 247</p>
          <p>259 259 271 247 240 240 272 229 220 220 251 210</p>
          <p>241 241 253 230 240 240 252 229 260 260 273 248</p>
          <p>260 260 273 248 261 261 274 249 241 241 253 230</p>
          <p>242 242 254 231 241 241 253 230 261 261 274 249</p>
          <p>261 261 274 249 262 262 275 250 242 242 254 231</p>
          <p>243 243 255 404 242 242 254 231 262 262 275 250</p>
          <p>262 262 275 250 263 263 276 406 243 243 255 404</p>
          <p>244 244 256 403 243 243 255 404 263 263 276 406</p>
          <p>263 263 276 406 264 264 277 405 244 244 256 403</p>
          <p>245 245 257 233 244 244 256 232 264 264 277 251</p>
          <p>264 264 277 251 265 265 278 252 245 245 257 233</p>
          <p>246 246 258 234 245 245 257 233 265 265 278 252</p>
          <p>265 265 278 252 266 266 279 253 246 246 258 234</p>
          <p>247 247 259 235 246 246 258 234 266 266 279 253</p>
          <p>266 266 279 253 267 267 280 254 247 247 259 235</p>
          <p>248 248 260 236 247 247 259 235 267 267 280 254</p>
          <p>267 267 280 254 268 268 281 255 248 248 260 236</p>
          <p>249 249 261 237 248 248 260 236 268 268 281 255</p>
          <p>268 268 281 255 269 269 282 256 249 249 261 237</p>
          <p>250 250 262 238 249 249 261 237 269 269 282 256</p>
          <p>269 269 282 256 270 270 283 257 250 250 262 238</p>
          <p>251 251 263 239 250 250 262 238 270 270 283 257</p>
          <p>270 270 283 257 271 271 284 258 251 251 263 239</p>
          <p>252 252 264 240 251 251 263 239 271 271 284 258</p>
          <p>271 271 284 258 272 272 285 259 252 252 264 240</p>
          <p>253 253 265 241 252 252 264 240 272 272 285 259</p>
          <p>272 272 285 259 273 273 286 260 253 253 265 241</p>
          <p>254 254 266 242 253 253 265 241 273 273 286 260</p>
          <p>273 273 286 260 274 274 287 261 254 254 266 242</p>
          <p>255 255 267 243 254 254 266 242 274 274 287 261</p>
          <p>274 274 287 261 275 275 288 262 255 255 267 243</p>
          <p>256 256 268 244 255 255 267 243 275 275 288 262</p>
          <p>275 275 288 262 276 276 289 263 256 256 268 244</p>
          <p>257 257 269 245 256 256 268 244 276 276 289 263</p>
          <p>276 276 289 263 277 277 290 264 257 257 269 245</p>
          <p>258 258 270 246 257 257 269 245 277 277 290 264</p>
          <p>277 277 290 264 278 278 291 265 258 258 270 246</p>
          <p>259 259 271 247 258 258 270 246 278 278 291 265</p>
          <p>278 278 291 265 279 279 292 266 259 259 271 247</p>
          <p>240 240 272 229 259 259 271 247 279 279 292 266</p>
          <p>279 279 292 266 260 260 293 248 240 240 272 229</p>
          <p>261 261 274 249 260 260 273 248 280 280 294 267</p>
          <p>280 280 294 267 281 281 295 268 261 261 274 249</p>
          <p>262 262 275 250 261 261 274 249 281 281 295 268</p>
          <p>281 281 295 268 282 282 296 269 262 262 275 250</p>
          <p>263 263 276 406 262 262 275 250 282 282 296 269</p>
          <p>282 282 296 269 283 283 297 408 263 263 276 406</p>
          <p>264 264 277 405 263 263 276 406 283 283 297 408</p>
          <p>283 283 297 408 284 284 298 407 264 264 277 405</p>
          <p>265 265 278 252 264 264 277 251 284 284 298 270</p>
          <p>284 284 298 270 285 285 299 271 265 265 278 252</p>
          <p>266 266 279 253 265 265 278 252 285 285 299 271</p>
          <p>285 285 299 271 286 286 300 272 266 266 279 253</p>
          <p>267 267 280 254 266 266 279 253 286 286 300 272</p>
          <p>286 286 300 272 287 287 301 273 267 267 280 254</p>
          <p>268 268 281 255 267 267 280 254 287 287 301 273</p>
          <p>287 287 301 273 288 288 302 274 268 268 281 255</p>
          <p>269 269 282 256 268 268 281 255 288 288 302 274</p>
          <p>288 288 302 274 289 289 303 275 269 269 282 256</p>
          <p>270 270 283 257 269 269 282 256 289 289 303 275</p>
          <p>289 289 303 275 290 290 304 276 270 270 283 257</p>
          <p>271 271 284 258 270 270 283 257 290 290 304 276</p>
          <p>290 290 304 276 291 291 305 277 271 271 284 258</p>
          <p>272 272 285 259 271 271 284 258 291 291 305 277</p>
          <p>291 291 305 277 292 292 306 278 272 272 285 259</p>
          <p>273 273 286 260 272 272 285 259 292 292 306 278</p>
          <p>292 292 306 278 293 293 307 279 273 273 286 260</p>
          <p>274 274 287 261 273 273 286 260 293 293 307 279</p>
          <p>293 293 307 279 294 294 308 280 274 274 287 261</p>
          <p>275 275 288 262 274 274 287 261 294 294 308 280</p>
          <p>294 294 308 280 295 295 309 281 275 275 288 262</p>
          <p>276 276 289 263 275 275 288 262 295 295 309 281</p>
          <p>295 295 309 281 296 296 310 282 276 276 289 263</p>
          <p>277 277 290 264 276 276 289 263 296 296 310 282</p>
          <p>296 296 310 282 297 297 311 283 277 277 290 264</p>
          <p>278 278 291 265 277 277 290 264 297 297 311 283</p>
          <p>297 297 311 283 298 298 312 284 278 278 291 265</p>
          <p>279 279 292 266 278 278 291 265 298 298 312 284</p>
          <p>298 298 312 284 299 299 313 285 279 279 292 266</p>
          <p>260 260 293 248 279 279 292 266 299 299 313 285</p>
          <p>299 299 313 285 280 280 314 267 260 260 293 248</p>
          <p>281 281 295 268 280 280 294 267 300 300 315 286</p>
          <p>300 300 315 286 301 301 316 287 281 281 295 268</p>
          <p>282 282 296 269 281 281 295 268 301 301 316 287</p>
          <p>301 301 316 287 302 302 317 288 282 282 296 269</p>
          <p>283 283 297 408 282 282 296 269 302 302 317 288</p>
          <p>302 302 317 288 303 303 318 410 283 283 297 408</p>
          <p>284 284 298 407 283 283 297 408 303 303 318 410</p>
          <p>303 303 318 410 304 304 319 409 284 284 298 407</p>
          <p>285 285 299 271 284 284 298 270 304 304 319 289</p>
          <p>304 304 319 289 305 305 320 290 285 285 299 271</p>
          <p>286 286 300 272 285 285 299 271 305 305 320 290</p>
          <p>305 305 320 290 306 306 321 291 286 286 300 272</p>
          <p>287 287 301 273 286 286 300 272 306 306 321 291</p>
          <p>306 306 321 291 307 307 322 292 287 287 301 273</p>
          <p>288 288 302 274 287 287 301 273 307 307 322 292</p>
          <p>307 307 322 292 308 308 323 293 288 288 302 274</p>
          <p>289 289 303 275 288 288 302 274 308 308 323 293</p>
          <p>308 308 323 293 309 309 324 294 289 289 303 275</p>
          <p>290 290 304 276 289 289 303 275 309 309 324 294</p>
          <p>309 309 324 294 310 310 325 295 290 290 304 276</p>
          <p>291 291 305 277 290 290 304 276 310 310 325 295</p>
          <p>310 310 325 295 311 311 326 296 291 291 305 277</p>
          <p>292 292 306 278 291 291 305 277 311 311 326 296</p>
          <p>311 311 326 296 312 312 327 297 292 292 306 278</p>
          <p>293 293 307 279 292 292 306 278 312 312 327 297</p>
          <p>312 312 327 297 313 313 328 298 293 293 307 279</p>
          <p>294 294 308 280 293 293 307 279 313 313 328 298</p>
          <p>313 313 328 298 314 314 329 299 294 294 308 280</p>
          <p>295 295 309 281 294 294 308 280 314 314 329 299</p>
          <p>314 314 329 299 315 315 330 300 295 295 309 281</p>
          <p>296 296 310 282 295 295 309 281 315 315 330 300</p>
          <p>315 315 330 300 316 316 331 301 296 296 310 282</p>
          <p>297 297 311 283 296 296 310 282 316 316 331 301</p>
          <p>316 316 331 301 317 317 332 302 297 297 311 283</p>
          <p>298 298 312 284 297 297 311 283 317 317 332 302</p>
          <p>317 317 332 302 318 318 333 303 298 298 312 284</p>
          <p>299 299 313 285 298 298 312 284 318 318 333 303</p>
          <p>318 318 333 303 319 319 334 304 299 299 313 285</p>
          <p>280 280 314 267 299 299 313 285 319 319 334 304</p>
          <p>319 319 334 304 300 300 335 286 280 280 314 267</p>
          <p>301 301 316 287 300 300 315 286 320 320 336 305</p>
          <p>320 320 336 305 321 321 337 306 301 301 316 287</p>
          <p>302 302 317 288 301 301 316 287 321 321 337 306</p>
          <p>321 321 337 306 322 322 338 307 302 302 317 288</p>
          <p>303 303 318 410 302 302 317 288 322 322 338 307</p>
          <p>322 322 338 307 323 323 339 412 303 303 318 410</p>
          <p>304 304 319 409 303 303 318 410 323 323 339 412</p>
          <p>323 323 339 412 324 324 340 411 304 304 319 409</p>
          <p>305 305 320 290 304 304 319 289 324 324 340 308</p>
          <p>324 324 340 308 325 325 341 309 305 305 320 290</p>
          <p>306 306 321 291 305 305 320 290 325 325 341 309</p>
          <p>325 325 341 309 326 326 342 310 306 306 321 291</p>
          <p>307 307 322 292 306 306 321 291 326 326 342 310</p>
          <p>326 326 342 310 327 327 343 311 307 307 322 292</p>
          <p>308 308 323 293 307 307 322 292 327 327 343 311</p>
          <p>327 327 343 311 328 328 344 312 308 308 323 293</p>
          <p>309 309 324 294 308 308 323 293 328 328 344 312</p>
          <p>328 328 344 312 329 329 345 313 309 309 324 294</p>
          <p>310 310 325 295 309 309 324 294 329 329 345 313</p>
          <p>329 329 345 313 330 330 346 314 310 310 325 295</p>
          <p>311 311 326 296 310 310 325 295 330 330 346 314</p>
          <p>330 330 346 314 331 331 347 315 311 311 326 296</p>
          <p>312 312 327 297 311 311 326 296 331 331 347 315</p>
          <p>331 331 347 315 332 332 348 316 312 312 327 297</p>
          <p>313 313 328 298 312 312 327 297 332 332 348 316</p>
          <p>332 332 348 316 333 333 349 317 313 313 328 298</p>
          <p>314 314 329 299 313 313 328 298 333 333 349 317</p>
          <p>333 333 349 317 334 334 350 318 314 314 329 299</p>
          <p>315 315 330 300 314 314 329 299 334 334 350 318</p>
          <p>334 334 350 318 335 335 351 319 315 315 330 300</p>
          <p>316 316 331 301 315 315 330 300 335 335 351 319</p>
          <p>335 335 351 319 336 336 352 320 316 316 331 301</p>
          <p>317 317 332 302 316 316 331 301 336 336 352 320</p>
          <p>336 336 352 320 337 337 353 321 317 317 332 302</p>
          <p>318 318 333 303 317 317 332 302 337 337 353 321</p>
          <p>337 337 353 321 338 338 354 322 318 318 333 303</p>
          <p>319 319 334 304 318 318 333 303 338 338 354 322</p>
          <p>338 338 354 322 339 339 355 323 319 319 334 304</p>
          <p>300 300 335 286 319 319 334 304 339 339 355 323</p>
          <p>339 339 355 323 320 320 356 305 300 300 335 286</p>
          <p>321 321 337 306 320 320 336 305 340 340 357 324</p>
          <p>340 340 357 324 341 341 358 325 321 321 337 306</p>
          <p>322 322 338 307 321 321 337 306 341 341 358 325</p>
          <p>341 341 358 325 342 342 359 326 322 322 338 307</p>
          <p>323 323 339 412 322 322 338 307 342 342 359 326</p>
          <p>342 342 359 326 343 343 360 414 323 323 339 412</p>
          <p>324 324 340 411 323 323 339 412 343 343 360 414</p>
          <p>343 343 360 414 344 344 361 413 324 324 340 411</p>
          <p>325 325 341 309 324 324 340 308 344 344 361 327</p>
          <p>344 344 361 327 345 345 362 328 325 325 341 309</p>
          <p>326 326 342 310 325 325 341 309 345 345 362 328</p>
          <p>345 345 362 328 346 346 363 329 326 326 342 310</p>
          <p>327 327 343 311 326 326 342 310 346 346 363 329</p>
          <p>346 346 363 329 347 347 364 330 327 327 343 311</p>
          <p>328 328 344 312 327 327 343 311 347 347 364 330</p>
          <p>347 347 364 330 348 348 365 331 328 328 344 312</p>
          <p>329 329 345 313 328 328 344 312 348 348 365 331</p>
          <p>348 348 365 331 349 349 366 332 329 329 345 313</p>
          <p>330 330 346 314 329 329 345 313 349 349 366 332</p>
          <p>349 349 366 332 350 350 367 333 330 330 346 314</p>
          <p>331 331 347 315 330 330 346 314 350 350 367 333</p>
          <p>350 350 367 333 351 351 368 334 331 331 347 315</p>
          <p>332 332 348 316 331 331 347 315 351 351 368 334</p>
          <p>351 351 368 334 352 352 369 335 332 332 348 316</p>
          <p>333 333 349 317 332 332 348 316 352 352 369 335</p>
          <p>352 352 369 335 353 353 370 336 333 333 349 317</p>
          <p>334 334 350 318 333 333 349 317 353 353 370 336</p>
          <p>353 353 370 336 354 354 371 337 334 334 350 318</p>
          <p>335 335 351 319 334 334 350 318 354 354 371 337</p>
          <p>354 354 371 337 355 355 372 338 335 335 351 319</p>
          <p>336 336 352 320 335 335 351 319 355 355 372 338</p>
          <p>355 355 372 338 356 356 373 339 336 336 352 320</p>
          <p>337 337 353 321 336 336 352 320 356 356 373 339</p>
          <p>356 356 373 339 357 357 374 340 337 337 353 321</p>
          <p>338 338 354 322 337 337 353 321 357 357 374 340</p>
          <p>357 357 374 340 358 358 375 341 338 338 354 322</p>
          <p>339 339 355 323 338 338 354 322 358 358 375 341</p>
          <p>358 358 375 341 359 359 376 342 339 339 355 323</p>
          <p>320 320 356 305 339 339 355 323 359 359 376 342</p>
          <p>359 359 376 342 340 340 377 324 320 320 356 305</p>
          <p>341 341 358 325 340 340 357 324 360 360 378 343</p>
          <p>360 360 378 343 361 361 379 344 341 341 358 325</p>
          <p>342 342 359 326 341 341 358 325 361 361 379 344</p>
          <p>361 361 379 344 362 362 380 345 342 342 359 326</p>
          <p>343 343 360 414 342 342 359 326 362 362 380 345</p>
          <p>362 362 380 345 363 363 381 416 343 343 360 414</p>
          <p>344 344 361 413 343 343 360 414 363 363 381 416</p>
          <p>363 363 381 416 364 364 382 415 344 344 361 413</p>
          <p>345 345 362 328 344 344 361 327 364 364 382 346</p>
          <p>364 364 382 346 365 365 383 347 345 345 362 328</p>
          <p>346 346 363 329 345 345 362 328 365 365 383 347</p>
          <p>365 365 383 347 366 366 384 348 346 346 363 329</p>
          <p>347 347 364 330 346 346 363 329 366 366 384 348</p>
          <p>366 366 384 348 367 367 385 349 347 347 364 330</p>
          <p>348 348 365 331 347 347 364 330 367 367 385 349</p>
          <p>367 367 385 349 368 368 386 350 348 348 365 331</p>
          <p>349 349 366 332 348 348 365 331 368 368 386 350</p>
          <p>368 368 386 350 369 369 387 351 349 349 366 332</p>
          <p>350 350 367 333 349 349 366 332 369 369 387 351</p>
          <p>369 369 387 351 370 370 388 352 350 350 367 333</p>
          <p>351 351 368 334 350 350 367 333 370 370 388 352</p>
          <p>370 370 388 352 371 371 389 353 351 351 368 334</p>
          <p>352 352 369 335 351 351 368 334 371 371 389 353</p>
          <p>371 371 389 353 372 372 390 354 352 352 369 335</p>
          <p>353 353 370 336 352 352 369 335 372 372 390 354</p>
          <p>372 372 390 354 373 373 391 355 353 353 370 336</p>
          <p>354 354 371 337 353 353 370 336 373 373 391 355</p>
          <p>373 373 391 355 374 374 392 356 354 354 371 337</p>
          <p>355 355 372 338 354 354 371 337 374 374 392 356</p>
          <p>374 374 392 356 375 375 393 357 355 355 372 338</p>
          <p>356 356 373 339 355 355 372 338 375 375 393 357</p>
          <p>375 375 393 357 376 376 394 358 356 356 373 339</p>
          <p>357 357 374 340 356 356 373 339 376 376 394 358</p>
          <p>376 376 394 358 377 377 395 359 357 357 374 340</p>
          <p>358 358 375 341 357 357 374 340 377 377 395 359</p>
          <p>377 377 395 359 378 378 396 360 358 358 375 341</p>
          <p>359 359 376 342 358 358 375 341 378 378 396 360</p>
          <p>378 378 396 360 379 379 397 361 359 359 376 342</p>
          <p>340 340 377 324 359 359 376 342 379 379 397 361</p>
          <p>379 379 397 361 360 360 398 343 340 340 377 324</p>
          <p>361 361 379 344 360 360 378 343 380 380 399 362</p>
          <p>380 380 399 362 381 381 400 363 361 361 379 344</p>
          <p>362 362 380 345 361 361 379 344 381 381 400 363</p>
          <p>381 381 400 363 382 382 401 364 362 362 380 345</p>
          <p>363 363 381 416 362 362 380 345 382 382 401 364</p>
          <p>382 382 401 364 383 383 402 418 363 363 381 416</p>
          <p>364 364 382 415 363 363 381 416 383 383 402 418</p>
          <p>383 383 402 418 384 384 403 417 364 364 382 415</p>
          <p>365 365 383 347 364 364 382 346 384 384 403 365</p>
          <p>384 384 403 365 385 385 404 366 365 365 383 347</p>
          <p>366 366 384 348 365 365 383 347 385 385 404 366</p>
          <p>385 385 404 366 386 386 405 367 366 366 384 348</p>
          <p>367 367 385 349 366 366 384 348 386 386 405 367</p>
          <p>386 386 405 367 387 387 406 368 367 367 385 349</p>
          <p>368 368 386 350 367 367 385 349 387 387 406 368</p>
          <p>387 387 406 368 388 388 407 369 368 368 386 350</p>
          <p>369 369 387 351 368 368 386 350 388 388 407 369</p>
          <p>388 388 407 369 389 389 408 370 369 369 387 351</p>
          <p>370 370 388 352 369 369 387 351 389 389 408 370</p>
          <p>389 389 408 370 390 390 409 371 370 370 388 352</p>
          <p>371 371 389 353 370 370 388 352 390 390 409 371</p>
          <p>390 390 409 371 391 391 410 372 371 371 389 353</p>
          <p>372 372 390 354 371 371 389 353 391 391 410 372</p>
          <p>391 391 410 372 392 392 411 373 372 372 390 354</p>
          <p>373 373 391 355 372 372 390 354 392 392 411 373</p>
          <p>392 392 411 373 393 393 412 374 373 373 391 355</p>
          <p>374 374 392 356 373 373 391 355 393 393 412 374</p>
          <p>393 393 412 374 394 394 413 375 374 374 392 356</p>
          <p>375 375 393 357 374 374 392 356 394 394 413 375</p>
          <p>394 394 413 375 395 395 414 376 375 375 393 357</p>
          <p>376 376 394 358 375 375 393 357 395 395 414 376</p>
          <p>395 395 414 376 396 396 415 377 376 376 394 358</p>
          <p>377 377 395 359 376 376 394 358 396 396 415 377</p>
          <p>396 396 415 377 397 397 416 378 377 377 395 359</p>
          <p>378 378 396 360 377 377 395 359 397 397 416 378</p>
          <p>397 397 416 378 398 398 417 379 378 378 396 360</p>
          <p>379 379 397 361 378 378 396 360 398 398 417 379</p>
          <p>398 398 417 379 399 399 418 380 379 379 397 361</p>
          <p>360 360 398 343 379 379 397 361 399 399 418 380</p>
          <p>399 399 418 380 380 380 419 362 360 360 398 343</p>
          <p>381 381 400 363 380 380 399 362 0 0 420 1</p>
          <p>0 0 420 1 1 1 421 0 381 381 400 363</p>
          <p>382 382 401 364 381 381 400 363 1 1 421 0</p>
          <p>1 1 421 0 2 2 422 4 382 382 401 364</p>
          <p>383 383 402 418 382 382 401 364 2 2 422 4</p>
          <p>2 2 422 4 3 3 423 6 383 383 402 418</p>
          <p>384 384 403 417 383 383 402 418 3 3 423 6</p>
          <p>3 3 423 6 4 4 424 419 384 384 403 417</p>
          <p>385 385 404 366 384 384 403 365 4 4 424 7</p>
          <p>4 4 424 7 5 5 425 9 385 385 404 366</p>
          <p>386 386 405 367 385 385 404 366 5 5 425 9</p>
          <p>5 5 425 9 6 6 426 11 386 386 405 367</p>
          <p>387 387 406 368 386 386 405 367 6 6 426 11</p>
          <p>6 6 426 11 7 7 427 13 387 387 406 368</p>
          <p>388 388 407 369 387 387 406 368 7 7 427 13</p>
          <p>7 7 427 13 8 8 428 15 388 388 407 369</p>
          <p>389 389 408 370 388 388 407 369 8 8 428 15</p>
          <p>8 8 428 15 9 9 429 17 389 389 408 370</p>
          <p>390 390 409 371 389 389 408 370 9 9 429 17</p>
          <p>9 9 429 17 10 10 430 19 390 390 409 371</p>
          <p>391 391 410 372 390 390 409 371 10 10 430 19</p>
          <p>10 10 430 19 11 11 431 21 391 391 410 372</p>
          <p>392 392 411 373 391 391 410 372 11 11 431 21</p>
          <p>11 11 431 21 12 12 432 23 392 392 411 373</p>
          <p>393 393 412 374 392 392 411 373 12 12 432 23</p>
          <p>12 12 432 23 13 13 433 25 393 393 412 374</p>
          <p>394 394 413 375 393 393 412 374 13 13 433 25</p>
          <p>13 13 433 25 14 14 434 27 394 394 413 375</p>
          <p>395 395 414 376 394 394 413 375 14 14 434 27</p>
          <p>14 14 434 27 15 15 435 29 395 395 414 376</p>
          <p>396 396 415 377 395 395 414 376 15 15 435 29</p>
          <p>15 15 435 29 16 16 436 31 396 396 415 377</p>
          <p>397 397 416 378 396 396 415 377 16 16 436 31</p>
          <p>16 16 436 31 17 17 437 33 397 397 416 378</p>
          <p>398 398 417 379 397 397 416 378 17 17 437 33</p>
          <p>17 17 437 33 18 18 438 35 398 398 417 379</p>
          <p>399 399 418 380 398 398 417 379 18 18 438 35</p>
          <p>18 18 438 35 19 19 439 37 399 399 418 380</p>
          <p>380 380 419 362 399 399 418 380 19 19 439 37</p>
          <p>19 19 439 37 0 0 440 1 380 380 419 362</p>
        </polygons>
      </mesh>
    </geometry>
  </library_geometries>
  <library_visual_scenes>
    <visual_scene id="RootNode" name="RootNode">
      <node id="pTorus1" name="pTorus1">
        <matrix sid="matrix">0.177327 0.000000 0.000000 0.000000 0.000000 0.177327 0.000000 0.000000 0.000000 0.000000 0.177327 0.000000 0.000000 0.000000 0.000000 1.000000</matrix>
        <instance_geometry url="#pTorus1-lib">
          <bind_material>
            <technique_common>
              <instance_material symbol="lambert1" target="#lambert1"/>
            </technique_common>
          </bind_material>
        </instance_geometry>
      </node>
    </visual_scene>
  </library_visual_scenes>
  <scene>
    <instance_visual_scene url="#RootNode"/>
  </scene>
</COLLADA>

