<?xml version="1.0" encoding="utf-8"?>
<COLLADA xmlns="http://www.collada.org/2005/11/COLLADASchema" version="1.4.0">
  <asset>
    <contributor>
      <author></author>
      <authoring_tool>FBX COLLADA exporter</authoring_tool>
      <comments></comments>
    </contributor>
    <created>2012-06-24T14:44:31Z</created>
    <modified>2012-06-24T14:44:31Z</modified>
    <revision></revision>
    <title></title>
    <subject></subject>
    <keywords></keywords>
    <unit meter="0.010000"/>
    <up_axis>Y_UP</up_axis>
  </asset>
  <library_materials>
    <material id="lambert1" name="lambert1">
      <instance_effect url="#lambert1-fx"/>
    </material>
  </library_materials>
  <library_effects>
    <effect id="lambert1-fx" name="lambert1">
      <profile_COMMON>
        <technique sid="standard">
          <lambert>
            <emission>
              <color sid="emission">0.000000  0.000000 0.000000 1.000000</color>
            </emission>
            <ambient>
              <color sid="ambient">0.000000  0.000000 0.000000 1.000000</color>
            </ambient>
            <diffuse>
              <color sid="diffuse">0.400000  0.400000 0.400000 1.000000</color>
            </diffuse>
            <transparent>
              <color sid="transparent">0.000000  0.000000 0.000000 1.000000</color>
            </transparent>
            <transparency>
              <float sid="transparency">1.000000</float>
            </transparency>
          </lambert>
        </technique>
      </profile_COMMON>
    </effect>
  </library_effects>
  <library_geometries>
    <geometry id="pCone1-lib" name="pCone1Mesh">
      <mesh>
        <source id="pCone1-lib-Position">
          <float_array id="pCone1-lib-Position-array" count="63">
6.043936 -8.374590 -1.963794
5.141280 -8.374590 -3.735358
3.735358 -8.374590 -5.141279
1.963794 -8.374590 -6.043936
0.000000 -8.374590 -6.354970
-1.963794 -8.374590 -6.043935
-3.735357 -8.374590 -5.141278
-5.141278 -8.374590 -3.735357
-6.043934 -8.374590 -1.963793
-6.354968 -8.374590 0.000000
-6.043934 -8.374590 1.963793
-5.141277 -8.374590 3.735356
-3.735356 -8.374590 5.141277
-1.963793 -8.374590 6.043933
-0.000000 -8.374590 6.354968
1.963793 -8.374590 6.043933
3.735356 -8.374590 5.141276
5.141276 -8.374590 3.735356
6.043932 -8.374590 1.963793
6.354967 -8.374590 0.000000
0.000000 8.374590 0.000000
</float_array>
          <technique_common>
            <accessor source="#pCone1-lib-Position-array" count="21" stride="3">
              <param name="X" type="float"/>
              <param name="Y" type="float"/>
              <param name="Z" type="float"/>
            </accessor>
          </technique_common>
        </source>
        <source id="pCone1-lib-Normal0">
          <float_array id="pCone1-lib-Normal0-array" count="342">
0.000000 -1.000000 0.000000
0.000000 -1.000000 0.000000
0.000000 -1.000000 0.000000
0.000000 -1.000000 0.000000
0.000000 -1.000000 0.000000
0.000000 -1.000000 0.000000
0.000000 -1.000000 0.000000
0.000000 -1.000000 0.000000
0.000000 -1.000000 0.000000
0.000000 -1.000000 0.000000
0.000000 -1.000000 0.000000
0.000000 -1.000000 0.000000
0.000000 -1.000000 0.000000
0.000000 -1.000000 0.000000
0.000000 -1.000000 0.000000
0.000000 -1.000000 0.000000
0.000000 -1.000000 0.000000
0.000000 -1.000000 0.000000
0.000000 -1.000000 0.000000
0.000000 -1.000000 0.000000
0.000000 -1.000000 0.000000
0.000000 -1.000000 0.000000
0.000000 -1.000000 0.000000
0.000000 -1.000000 0.000000
0.000000 -1.000000 0.000000
0.000000 -1.000000 0.000000
0.000000 -1.000000 0.000000
0.000000 -1.000000 0.000000
0.000000 -1.000000 0.000000
0.000000 -1.000000 0.000000
0.000000 -1.000000 0.000000
0.000000 -1.000000 0.000000
0.000000 -1.000000 0.000000
0.000000 -1.000000 0.000000
0.000000 -1.000000 0.000000
0.000000 -1.000000 0.000000
0.000000 -1.000000 0.000000
0.000000 -1.000000 0.000000
0.000000 -1.000000 0.000000
0.000000 -1.000000 0.000000
0.000000 -1.000000 0.000000
0.000000 -1.000000 0.000000
0.000000 -1.000000 0.000000
0.000000 -1.000000 0.000000
0.000000 -1.000000 0.000000
0.000000 -1.000000 0.000000
0.000000 -1.000000 0.000000
0.000000 -1.000000 0.000000
0.000000 -1.000000 0.000000
0.000000 -1.000000 0.000000
0.000000 -1.000000 0.000000
0.000000 -1.000000 0.000000
0.000000 -1.000000 0.000000
0.000000 -1.000000 0.000000
0.889203 0.354744 -0.288919
0.756401 0.354744 -0.549558
-0.000000 1.000000 0.000000
0.756401 0.354744 -0.549558
0.549558 0.354744 -0.756402
-0.000000 1.000000 0.000000
0.549558 0.354744 -0.756402
0.288919 0.354744 -0.889203
-0.000000 1.000000 0.000000
0.288919 0.354744 -0.889203
-0.000000 0.354744 -0.934964
-0.000000 1.000000 0.000000
-0.000000 0.354744 -0.934964
-0.288920 0.354744 -0.889203
-0.000000 1.000000 0.000000
-0.288920 0.354744 -0.889203
-0.549558 0.354744 -0.756401
-0.000000 1.000000 0.000000
-0.549558 0.354744 -0.756401
-0.756402 0.354744 -0.549558
-0.000000 1.000000 0.000000
-0.756402 0.354744 -0.549558
-0.889203 0.354744 -0.288920
-0.000000 1.000000 0.000000
-0.889203 0.354744 -0.288920
-0.934964 0.354744 0.000000
-0.000000 1.000000 0.000000
-0.934964 0.354744 0.000000
-0.889203 0.354744 0.288920
-0.000000 1.000000 0.000000
-0.889203 0.354744 0.288920
-0.756401 0.354744 0.549558
-0.000000 1.000000 0.000000
-0.756401 0.354744 0.549558
-0.549558 0.354744 0.756402
-0.000000 1.000000 0.000000
-0.549558 0.354744 0.756402
-0.288920 0.354744 0.889203
-0.000000 1.000000 0.000000
-0.288920 0.354744 0.889203
0.000000 0.354744 0.934964
-0.000000 1.000000 0.000000
0.000000 0.354744 0.934964
0.288920 0.354744 0.889203
-0.000000 1.000000 0.000000
0.288920 0.354744 0.889203
0.549558 0.354744 0.756401
-0.000000 1.000000 0.000000
0.549558 0.354744 0.756401
0.756401 0.354744 0.549558
-0.000000 1.000000 0.000000
0.756401 0.354744 0.549558
0.889203 0.354744 0.288920
-0.000000 1.000000 0.000000
0.889203 0.354744 0.288920
0.934964 0.354744 0.000001
-0.000000 1.000000 0.000000
0.934964 0.354744 0.000001
0.889203 0.354744 -0.288919
-0.000000 1.000000 0.000000
</float_array>
          <technique_common>
            <accessor source="#pCone1-lib-Normal0-array" count="114" stride="3">
              <param name="X" type="float"/>
              <param name="Y" type="float"/>
              <param name="Z" type="float"/>
            </accessor>
          </technique_common>
        </source>
        <source id="pCone1-lib-UV0">
          <float_array id="pCone1-lib-UV0-array" count="84">
0.737764 0.172746
0.702254 0.103054
0.646946 0.047746
0.577254 0.012236
0.500000 -0.000000
0.422746 0.012236
0.353054 0.047746
0.297746 0.103054
0.262236 0.172746
0.250000 0.250000
0.262236 0.327254
0.297746 0.396946
0.353054 0.452254
0.422746 0.487764
0.500000 0.500000
0.577254 0.487764
0.646946 0.452254
0.702254 0.396946
0.737764 0.327254
0.750000 0.250000
0.250000 0.500000
0.275000 0.500000
0.300000 0.500000
0.325000 0.500000
0.350000 0.500000
0.375000 0.500000
0.400000 0.500000
0.425000 0.500000
0.450000 0.500000
0.475000 0.500000
0.500000 0.500000
0.525000 0.500000
0.550000 0.500000
0.575000 0.500000
0.600000 0.500000
0.625000 0.500000
0.650000 0.500000
0.675000 0.500000
0.700000 0.500000
0.725000 0.500000
0.750000 0.500000
0.500000 1.000000
</float_array>
          <technique_common>
            <accessor source="#pCone1-lib-UV0-array" count="42" stride="2">
              <param name="S" type="float"/>
              <param name="T" type="float"/>
            </accessor>
          </technique_common>
        </source>
        <vertices id="pCone1-lib-Vertex">
          <input semantic="POSITION" source="#pCone1-lib-Position"/>
        </vertices>
        <polygons material="lambert1" count="38">
          <input semantic="VERTEX" offset="0" source="#pCone1-lib-Vertex"/>
          <input semantic="NORMAL" offset="1" source="#pCone1-lib-Normal0"/>
          <input semantic="TEXCOORD" offset="2" set="0" source="#pCone1-lib-UV0"/>
          <p>0 0 0 19 1 19 18 2 18</p>
          <p>18 3 18 17 4 17 0 5 0</p>
          <p>0 6 0 17 7 17 1 8 1</p>
          <p>17 9 17 16 10 16 1 11 1</p>
          <p>1 12 1 16 13 16 2 14 2</p>
          <p>16 15 16 15 16 15 2 17 2</p>
          <p>2 18 2 15 19 15 3 20 3</p>
          <p>15 21 15 14 22 14 3 23 3</p>
          <p>3 24 3 14 25 14 4 26 4</p>
          <p>14 27 14 13 28 13 4 29 4</p>
          <p>4 30 4 13 31 13 5 32 5</p>
          <p>13 33 13 12 34 12 5 35 5</p>
          <p>5 36 5 12 37 12 6 38 6</p>
          <p>12 39 12 11 40 11 6 41 6</p>
          <p>6 42 6 11 43 11 7 44 7</p>
          <p>11 45 11 10 46 10 7 47 7</p>
          <p>7 48 7 10 49 10 8 50 8</p>
          <p>10 51 10 9 52 9 8 53 8</p>
          <p>0 54 20 1 55 21 20 56 41</p>
          <p>1 57 21 2 58 22 20 59 41</p>
          <p>2 60 22 3 61 23 20 62 41</p>
          <p>3 63 23 4 64 24 20 65 41</p>
          <p>4 66 24 5 67 25 20 68 41</p>
          <p>5 69 25 6 70 26 20 71 41</p>
          <p>6 72 26 7 73 27 20 74 41</p>
          <p>7 75 27 8 76 28 20 77 41</p>
          <p>8 78 28 9 79 29 20 80 41</p>
          <p>9 81 29 10 82 30 20 83 41</p>
          <p>10 84 30 11 85 31 20 86 41</p>
          <p>11 87 31 12 88 32 20 89 41</p>
          <p>12 90 32 13 91 33 20 92 41</p>
          <p>13 93 33 14 94 34 20 95 41</p>
          <p>14 96 34 15 97 35 20 98 41</p>
          <p>15 99 35 16 100 36 20 101 41</p>
          <p>16 102 36 17 103 37 20 104 41</p>
          <p>17 105 37 18 106 38 20 107 41</p>
          <p>18 108 38 19 109 39 20 110 41</p>
          <p>19 111 39 0 112 40 20 113 41</p>
        </polygons>
      </mesh>
    </geometry>
  </library_geometries>
  <library_visual_scenes>
    <visual_scene id="RootNode" name="RootNode">
      <node id="pCone1" name="pCone1">
        <matrix sid="matrix">1.000000 0.000000 0.000000 0.096531 0.000000 1.000000 0.000000 8.374590 0.000000 0.000000 1.000000 0.050581 0.000000 0.000000 0.000000 1.000000</matrix>
        <instance_geometry url="#pCone1-lib">
          <bind_material>
            <technique_common>
              <instance_material symbol="lambert1" target="#lambert1"/>
            </technique_common>
          </bind_material>
        </instance_geometry>
      </node>
    </visual_scene>
  </library_visual_scenes>
  <scene>
    <instance_visual_scene url="#RootNode"/>
  </scene>
</COLLADA>

