<?xml version="1.0" encoding="utf-8"?>
<COLLADA xmlns="http://www.collada.org/2005/11/COLLADASchema" version="1.4.0">
  <asset>
    <contributor>
      <author></author>
      <authoring_tool>FBX COLLADA exporter</authoring_tool>
      <comments></comments>
    </contributor>
    <created>2012-05-31T21:10:40Z</created>
    <modified>2012-05-31T21:10:40Z</modified>
    <revision></revision>
    <title></title>
    <subject></subject>
    <keywords></keywords>
    <unit meter="0.010000"/>
    <up_axis>Y_UP</up_axis>
  </asset>
  <library_materials>
    <material id="lambert1" name="lambert1">
      <instance_effect url="#lambert1-fx"/>
    </material>
  </library_materials>
  <library_effects>
    <effect id="lambert1-fx" name="lambert1">
      <profile_COMMON>
        <technique sid="standard">
          <lambert>
            <emission>
              <color sid="emission">0.000000  0.000000 0.000000 1.000000</color>
            </emission>
            <ambient>
              <color sid="ambient">0.000000  0.000000 0.000000 1.000000</color>
            </ambient>
            <diffuse>
              <color sid="diffuse">0.400000  0.400000 0.400000 1.000000</color>
            </diffuse>
            <transparent>
              <color sid="transparent">0.000000  0.000000 0.000000 1.000000</color>
            </transparent>
            <transparency>
              <float sid="transparency">1.000000</float>
            </transparency>
          </lambert>
        </technique>
      </profile_COMMON>
    </effect>
  </library_effects>
  <library_geometries>
    <geometry id="pPipe1-lib" name="pPipe1Mesh">
      <mesh>
        <source id="pPipe1-lib-Position">
          <float_array id="pPipe1-lib-Position-array" count="480">
7.562258 -0.500000 -0.000000
7.469154 -0.500000 -1.182998
7.192135 -0.500000 -2.336866
6.738022 -0.500000 -3.433194
6.117996 -0.500000 -4.444984
5.347324 -0.500000 -5.347325
4.444984 -0.500000 -6.117996
3.433193 -0.500000 -6.738022
2.336866 -0.500000 -7.192136
1.182997 -0.500000 -7.469155
-0.000001 -0.500000 -7.562259
-1.182999 -0.500000 -7.469155
-2.336868 -0.500000 -7.192136
-3.433195 -0.500000 -6.738022
-4.444986 -0.500000 -6.117996
-5.347326 -0.500000 -5.347324
-6.117998 -0.500000 -4.444983
-6.738024 -0.500000 -3.433192
-7.192137 -0.500000 -2.336864
-7.469157 -0.500000 -1.182996
-7.562261 -0.500000 0.000003
-7.469156 -0.500000 1.183001
-7.192137 -0.500000 2.336870
-6.738023 -0.500000 3.433197
-6.117996 -0.500000 4.444988
-5.347324 -0.500000 5.347329
-4.444983 -0.500000 6.118000
-3.433192 -0.500000 6.738026
-2.336864 -0.500000 7.192140
-1.182995 -0.500000 7.469159
0.000003 -0.500000 7.562263
1.183002 -0.500000 7.469158
2.336871 -0.500000 7.192138
3.433199 -0.500000 6.738024
4.444990 -0.500000 6.117997
5.347331 -0.500000 5.347324
6.118002 -0.500000 4.444983
6.738028 -0.500000 3.433191
7.192141 -0.500000 2.336863
7.469160 -0.500000 1.182994
7.562258 0.500000 0.000000
7.469154 0.500000 -1.182998
7.192135 0.500000 -2.336866
6.738022 0.500000 -3.433194
6.117996 0.500000 -4.444984
5.347324 0.500000 -5.347325
4.444984 0.500000 -6.117996
3.433193 0.500000 -6.738022
2.336866 0.500000 -7.192136
1.182997 0.500000 -7.469155
-0.000001 0.500000 -7.562259
-1.182999 0.500000 -7.469155
-2.336868 0.500000 -7.192136
-3.433195 0.500000 -6.738022
-4.444986 0.500000 -6.117996
-5.347326 0.500000 -5.347324
-6.117998 0.500000 -4.444983
-6.738024 0.500000 -3.433192
-7.192137 0.500000 -2.336864
-7.469157 0.500000 -1.182996
-7.562261 0.500000 0.000003
-7.469156 0.500000 1.183001
-7.192137 0.500000 2.336870
-6.738023 0.500000 3.433197
-6.117996 0.500000 4.444988
-5.347324 0.500000 5.347329
-4.444983 0.500000 6.118000
-3.433192 0.500000 6.738026
-2.336864 0.500000 7.192140
-1.182995 0.500000 7.469159
0.000003 0.500000 7.562263
1.183002 0.500000 7.469158
2.336871 0.500000 7.192138
3.433199 0.500000 6.738024
4.444990 0.500000 6.117997
5.347331 0.500000 5.347324
6.118002 0.500000 4.444983
6.738028 0.500000 3.433191
7.192141 0.500000 2.336863
7.469160 0.500000 1.182994
8.062258 0.500000 0.000000
7.962998 0.500000 -1.261215
7.667663 0.500000 -2.491375
7.183525 0.500000 -3.660189
6.522504 0.500000 -4.738877
5.700877 0.500000 -5.700878
4.738876 0.500000 -6.522505
3.660188 0.500000 -7.183526
2.491374 0.500000 -7.667665
1.261214 0.500000 -7.963000
-0.000001 0.500000 -8.062260
-1.261217 0.500000 -7.963000
-2.491377 0.500000 -7.667665
-3.660191 0.500000 -7.183526
-4.738879 0.500000 -6.522505
-5.700880 0.500000 -5.700879
-6.522507 0.500000 -4.738877
-7.183528 0.500000 -3.660189
-7.667667 0.500000 -2.491374
-7.963002 0.500000 -1.261214
-8.062262 0.500000 0.000001
-7.963002 0.500000 1.261217
-7.667666 0.500000 2.491377
-7.183527 0.500000 3.660192
-6.522506 0.500000 4.738880
-5.700879 0.500000 5.700881
-4.738878 0.500000 6.522509
-3.660189 0.500000 7.183530
-2.491374 0.500000 7.667669
-1.261214 0.500000 7.963004
0.000002 0.500000 8.062263
1.261218 0.500000 7.963003
2.491379 0.500000 7.667667
3.660193 0.500000 7.183528
4.738882 0.500000 6.522507
5.700883 0.500000 5.700880
6.522510 0.500000 4.738878
7.183531 0.500000 3.660189
7.667670 0.500000 2.491374
7.963006 0.500000 1.261214
8.062258 -0.500000 -0.000000
7.962998 -0.500000 -1.261215
7.667663 -0.500000 -2.491375
7.183525 -0.500000 -3.660189
6.522504 -0.500000 -4.738877
5.700877 -0.500000 -5.700878
4.738876 -0.500000 -6.522505
3.660188 -0.500000 -7.183526
2.491374 -0.500000 -7.667665
1.261214 -0.500000 -7.963000
-0.000001 -0.500000 -8.062260
-1.261217 -0.500000 -7.963000
-2.491377 -0.500000 -7.667665
-3.660191 -0.500000 -7.183526
-4.738879 -0.500000 -6.522505
-5.700880 -0.500000 -5.700879
-6.522507 -0.500000 -4.738877
-7.183528 -0.500000 -3.660189
-7.667667 -0.500000 -2.491374
-7.963002 -0.500000 -1.261214
-8.062262 -0.500000 0.000001
-7.963002 -0.500000 1.261217
-7.667666 -0.500000 2.491377
-7.183527 -0.500000 3.660192
-6.522506 -0.500000 4.738880
-5.700879 -0.500000 5.700881
-4.738878 -0.500000 6.522509
-3.660189 -0.500000 7.183530
-2.491374 -0.500000 7.667669
-1.261214 -0.500000 7.963004
0.000002 -0.500000 8.062263
1.261218 -0.500000 7.963003
2.491379 -0.500000 7.667667
3.660193 -0.500000 7.183528
4.738882 -0.500000 6.522507
5.700883 -0.500000 5.700880
6.522510 -0.500000 4.738878
7.183531 -0.500000 3.660189
7.667670 -0.500000 2.491374
7.963006 -0.500000 1.261214
</float_array>
          <technique_common>
            <accessor source="#pPipe1-lib-Position-array" count="160" stride="3">
              <param name="X" type="float"/>
              <param name="Y" type="float"/>
              <param name="Z" type="float"/>
            </accessor>
          </technique_common>
        </source>
        <source id="pPipe1-lib-Normal0">
          <float_array id="pPipe1-lib-Normal0-array" count="2880">
-0.987688 0.000000 0.156434
-1.000000 0.000000 0.000002
-1.000000 0.000000 0.000002
-1.000000 0.000000 0.000002
-0.987688 0.000000 0.156434
-0.987688 0.000000 0.156434
-0.951057 0.000000 0.309017
-0.987688 0.000000 0.156434
-0.987688 0.000000 0.156434
-0.987688 0.000000 0.156434
-0.951057 0.000000 0.309017
-0.951057 0.000000 0.309017
-0.891007 0.000000 0.453990
-0.951057 0.000000 0.309017
-0.951057 0.000000 0.309017
-0.951057 0.000000 0.309017
-0.891007 0.000000 0.453990
-0.891007 0.000000 0.453990
-0.809017 0.000000 0.587785
-0.891007 0.000000 0.453990
-0.891007 0.000000 0.453990
-0.891007 0.000000 0.453990
-0.809017 0.000000 0.587785
-0.809017 0.000000 0.587785
-0.707107 0.000000 0.707107
-0.809017 0.000000 0.587785
-0.809017 0.000000 0.587785
-0.809017 0.000000 0.587785
-0.707107 0.000000 0.707107
-0.707107 0.000000 0.707107
-0.587785 0.000000 0.809017
-0.707107 0.000000 0.707107
-0.707107 0.000000 0.707107
-0.707107 0.000000 0.707107
-0.587785 0.000000 0.809017
-0.587785 0.000000 0.809017
-0.453990 0.000000 0.891007
-0.587785 0.000000 0.809017
-0.587785 0.000000 0.809017
-0.587785 0.000000 0.809017
-0.453990 0.000000 0.891007
-0.453990 0.000000 0.891007
-0.309017 0.000000 0.951057
-0.453990 0.000000 0.891007
-0.453990 0.000000 0.891007
-0.453990 0.000000 0.891007
-0.309017 0.000000 0.951057
-0.309017 0.000000 0.951057
-0.156434 0.000000 0.987688
-0.309017 0.000000 0.951057
-0.309017 0.000000 0.951057
-0.309017 0.000000 0.951057
-0.156434 0.000000 0.987688
-0.156434 0.000000 0.987688
0.000000 0.000000 1.000000
-0.156434 0.000000 0.987688
-0.156434 0.000000 0.987688
-0.156434 0.000000 0.987688
0.000000 0.000000 1.000000
0.000000 0.000000 1.000000
0.156434 0.000000 0.987688
0.000000 0.000000 1.000000
0.000000 0.000000 1.000000
0.000000 0.000000 1.000000
0.156434 0.000000 0.987688
0.156434 0.000000 0.987688
0.309017 0.000000 0.951057
0.156434 0.000000 0.987688
0.156434 0.000000 0.987688
0.156434 0.000000 0.987688
0.309017 0.000000 0.951057
0.309017 0.000000 0.951057
0.453991 0.000000 0.891007
0.309017 0.000000 0.951057
0.309017 0.000000 0.951057
0.309017 0.000000 0.951057
0.453991 0.000000 0.891007
0.453991 0.000000 0.891007
0.587785 0.000000 0.809017
0.453991 0.000000 0.891007
0.453991 0.000000 0.891007
0.453991 0.000000 0.891007
0.587785 0.000000 0.809017
0.587785 0.000000 0.809017
0.707107 0.000000 0.707107
0.587785 0.000000 0.809017
0.587785 0.000000 0.809017
0.587785 0.000000 0.809017
0.707107 0.000000 0.707107
0.707107 0.000000 0.707107
0.809017 0.000000 0.587785
0.707107 0.000000 0.707107
0.707107 0.000000 0.707107
0.707107 0.000000 0.707107
0.809017 0.000000 0.587785
0.809017 0.000000 0.587785
0.891007 0.000000 0.453990
0.809017 0.000000 0.587785
0.809017 0.000000 0.587785
0.809017 0.000000 0.587785
0.891007 0.000000 0.453990
0.891007 0.000000 0.453990
0.951057 0.000000 0.309017
0.891007 0.000000 0.453990
0.891007 0.000000 0.453990
0.891007 0.000000 0.453990
0.951057 0.000000 0.309017
0.951057 0.000000 0.309017
0.987688 0.000000 0.156434
0.951057 0.000000 0.309017
0.951057 0.000000 0.309017
0.951057 0.000000 0.309017
0.987688 0.000000 0.156434
0.987688 0.000000 0.156434
1.000000 0.000000 -0.000000
0.987688 0.000000 0.156434
0.987688 0.000000 0.156434
0.987688 0.000000 0.156434
1.000000 0.000000 -0.000000
1.000000 0.000000 -0.000000
0.987688 0.000000 -0.156435
1.000000 0.000000 -0.000000
1.000000 0.000000 -0.000000
1.000000 0.000000 -0.000000
0.987688 0.000000 -0.156435
0.987688 0.000000 -0.156435
0.951056 0.000000 -0.309017
0.987688 0.000000 -0.156435
0.987688 0.000000 -0.156435
0.987688 0.000000 -0.156435
0.951056 0.000000 -0.309017
0.951056 0.000000 -0.309017
0.891006 0.000000 -0.453991
0.951056 0.000000 -0.309017
0.951056 0.000000 -0.309017
0.951056 0.000000 -0.309017
0.891006 0.000000 -0.453991
0.891006 0.000000 -0.453991
0.809017 0.000000 -0.587785
0.891006 0.000000 -0.453991
0.891006 0.000000 -0.453991
0.891006 0.000000 -0.453991
0.809017 0.000000 -0.587785
0.809017 0.000000 -0.587785
0.707107 0.000000 -0.707107
0.809017 0.000000 -0.587785
0.809017 0.000000 -0.587785
0.809017 0.000000 -0.587785
0.707107 0.000000 -0.707107
0.707107 0.000000 -0.707107
0.587785 0.000000 -0.809017
0.707107 0.000000 -0.707107
0.707107 0.000000 -0.707107
0.707107 0.000000 -0.707107
0.587785 0.000000 -0.809017
0.587785 0.000000 -0.809017
0.453990 0.000000 -0.891007
0.587785 0.000000 -0.809017
0.587785 0.000000 -0.809017
0.587785 0.000000 -0.809017
0.453990 0.000000 -0.891007
0.453990 0.000000 -0.891007
0.309017 0.000000 -0.951057
0.453990 0.000000 -0.891007
0.453990 0.000000 -0.891007
0.453990 0.000000 -0.891007
0.309017 0.000000 -0.951057
0.309017 0.000000 -0.951057
0.156434 0.000000 -0.987688
0.309017 0.000000 -0.951057
0.309017 0.000000 -0.951057
0.309017 0.000000 -0.951057
0.156434 0.000000 -0.987688
0.156434 0.000000 -0.987688
-0.000000 0.000000 -1.000000
0.156434 0.000000 -0.987688
0.156434 0.000000 -0.987688
0.156434 0.000000 -0.987688
-0.000000 0.000000 -1.000000
-0.000000 0.000000 -1.000000
-0.156435 0.000000 -0.987688
-0.000000 0.000000 -1.000000
-0.000000 0.000000 -1.000000
-0.000000 0.000000 -1.000000
-0.156435 0.000000 -0.987688
-0.156435 0.000000 -0.987688
-0.309017 0.000000 -0.951056
-0.156435 0.000000 -0.987688
-0.156435 0.000000 -0.987688
-0.156435 0.000000 -0.987688
-0.309017 0.000000 -0.951056
-0.309017 0.000000 -0.951056
-0.453991 0.000000 -0.891006
-0.309017 0.000000 -0.951056
-0.309017 0.000000 -0.951056
-0.309017 0.000000 -0.951056
-0.453991 0.000000 -0.891006
-0.453991 0.000000 -0.891006
-0.587786 0.000000 -0.809017
-0.453991 0.000000 -0.891006
-0.453991 0.000000 -0.891006
-0.453991 0.000000 -0.891006
-0.587786 0.000000 -0.809017
-0.587786 0.000000 -0.809017
-0.707107 0.000000 -0.707106
-0.587786 0.000000 -0.809017
-0.587786 0.000000 -0.809017
-0.587786 0.000000 -0.809017
-0.707107 0.000000 -0.707106
-0.707107 0.000000 -0.707106
-0.809017 0.000000 -0.587785
-0.707107 0.000000 -0.707106
-0.707107 0.000000 -0.707106
-0.707107 0.000000 -0.707106
-0.809017 0.000000 -0.587785
-0.809017 0.000000 -0.587785
-0.891007 0.000000 -0.453990
-0.809017 0.000000 -0.587785
-0.809017 0.000000 -0.587785
-0.809017 0.000000 -0.587785
-0.891007 0.000000 -0.453990
-0.891007 0.000000 -0.453990
-0.951057 0.000000 -0.309016
-0.891007 0.000000 -0.453990
-0.891007 0.000000 -0.453990
-0.891007 0.000000 -0.453990
-0.951057 0.000000 -0.309016
-0.951057 0.000000 -0.309016
-0.987689 0.000000 -0.156432
-0.951057 0.000000 -0.309016
-0.951057 0.000000 -0.309016
-0.951057 0.000000 -0.309016
-0.987689 0.000000 -0.156432
-0.987689 0.000000 -0.156432
-1.000000 0.000000 0.000002
-0.987689 0.000000 -0.156432
-0.987689 0.000000 -0.156432
-0.987689 0.000000 -0.156432
-1.000000 0.000000 0.000002
-1.000000 0.000000 0.000002
0.000000 1.000000 0.000000
0.000000 1.000000 0.000000
0.000000 1.000000 0.000000
0.000000 1.000000 0.000000
0.000000 1.000000 0.000000
0.000000 1.000000 0.000000
0.000000 1.000000 0.000000
0.000000 1.000000 0.000000
0.000000 1.000000 0.000000
0.000000 1.000000 0.000000
0.000000 1.000000 0.000000
0.000000 1.000000 0.000000
0.000000 1.000000 0.000000
0.000000 1.000000 0.000000
0.000000 1.000000 0.000000
0.000000 1.000000 0.000000
0.000000 1.000000 0.000000
0.000000 1.000000 0.000000
0.000000 1.000000 0.000000
0.000000 1.000000 0.000000
0.000000 1.000000 0.000000
0.000000 1.000000 0.000000
0.000000 1.000000 0.000000
0.000000 1.000000 0.000000
0.000000 1.000000 0.000000
0.000000 1.000000 0.000000
0.000000 1.000000 0.000000
0.000000 1.000000 0.000000
0.000000 1.000000 0.000000
0.000000 1.000000 0.000000
0.000000 1.000000 0.000000
0.000000 1.000000 0.000000
0.000000 1.000000 0.000000
0.000000 1.000000 0.000000
0.000000 1.000000 0.000000
0.000000 1.000000 0.000000
0.000000 1.000000 0.000000
0.000000 1.000000 0.000000
0.000000 1.000000 0.000000
0.000000 1.000000 0.000000
0.000000 1.000000 0.000000
0.000000 1.000000 0.000000
0.000000 1.000000 0.000000
0.000000 1.000000 0.000000
0.000000 1.000000 0.000000
0.000000 1.000000 0.000000
0.000000 1.000000 0.000000
0.000000 1.000000 0.000000
0.000000 1.000000 0.000000
0.000000 1.000000 0.000000
0.000000 1.000000 0.000000
0.000000 1.000000 0.000000
0.000000 1.000000 0.000000
0.000000 1.000000 0.000000
0.000000 1.000000 0.000000
0.000000 1.000000 0.000000
0.000000 1.000000 0.000000
0.000000 1.000000 0.000000
0.000000 1.000000 0.000000
0.000000 1.000000 0.000000
0.000000 1.000000 0.000000
0.000000 1.000000 0.000000
0.000000 1.000000 0.000000
0.000000 1.000000 0.000000
0.000000 1.000000 0.000000
0.000000 1.000000 0.000000
0.000000 1.000000 0.000000
0.000000 1.000000 0.000000
0.000000 1.000000 0.000000
0.000000 1.000000 0.000000
0.000000 1.000000 0.000000
0.000000 1.000000 0.000000
0.000000 1.000000 0.000000
0.000000 1.000000 0.000000
0.000000 1.000000 0.000000
0.000000 1.000000 0.000000
0.000000 1.000000 0.000000
0.000000 1.000000 0.000000
0.000000 1.000000 0.000000
0.000000 1.000000 0.000000
0.000000 1.000000 0.000000
0.000000 1.000000 0.000000
0.000000 1.000000 0.000000
0.000000 1.000000 0.000000
0.000000 1.000000 0.000000
0.000000 1.000000 0.000000
0.000000 1.000000 0.000000
0.000000 1.000000 0.000000
0.000000 1.000000 0.000000
0.000000 1.000000 0.000000
0.000000 1.000000 0.000000
0.000000 1.000000 0.000000
0.000000 1.000000 0.000000
0.000000 1.000000 0.000000
0.000000 1.000000 0.000000
0.000000 1.000000 0.000000
0.000000 1.000000 0.000000
0.000000 1.000000 0.000000
0.000000 1.000000 0.000000
0.000000 1.000000 0.000000
0.000000 1.000000 0.000000
0.000000 1.000000 0.000000
0.000000 1.000000 0.000000
0.000000 1.000000 0.000000
0.000000 1.000000 0.000000
0.000000 1.000000 0.000000
0.000000 1.000000 0.000000
0.000000 1.000000 0.000000
0.000000 1.000000 0.000000
0.000000 1.000000 0.000000
0.000000 1.000000 0.000000
0.000000 1.000000 0.000000
0.000000 1.000000 0.000000
0.000000 1.000000 0.000000
0.000000 1.000000 0.000000
0.000000 1.000000 0.000000
0.000000 1.000000 0.000000
0.000000 1.000000 0.000000
0.000000 1.000000 0.000000
0.000000 1.000000 0.000000
0.000000 1.000000 0.000000
0.000000 1.000000 0.000000
0.000000 1.000000 0.000000
0.000000 1.000000 0.000000
0.000000 1.000000 0.000000
0.000000 1.000000 0.000000
0.000000 1.000000 0.000000
0.000000 1.000000 0.000000
0.000000 1.000000 0.000000
0.000000 1.000000 0.000000
0.000000 1.000000 0.000000
0.000000 1.000000 0.000000
0.000000 1.000000 0.000000
0.000000 1.000000 0.000000
0.000000 1.000000 0.000000
0.000000 1.000000 0.000000
0.000000 1.000000 0.000000
0.000000 1.000000 0.000000
0.000000 1.000000 0.000000
0.000000 1.000000 0.000000
0.000000 1.000000 0.000000
0.000000 1.000000 0.000000
0.000000 1.000000 0.000000
0.000000 1.000000 0.000000
0.000000 1.000000 0.000000
0.000000 1.000000 0.000000
0.000000 1.000000 0.000000
0.000000 1.000000 0.000000
0.000000 1.000000 0.000000
0.000000 1.000000 0.000000
0.000000 1.000000 0.000000
0.000000 1.000000 0.000000
0.000000 1.000000 0.000000
0.000000 1.000000 0.000000
0.000000 1.000000 0.000000
0.000000 1.000000 0.000000
0.000000 1.000000 0.000000
0.000000 1.000000 0.000000
0.000000 1.000000 0.000000
0.000000 1.000000 0.000000
0.000000 1.000000 0.000000
0.000000 1.000000 0.000000
0.000000 1.000000 0.000000
0.000000 1.000000 0.000000
0.000000 1.000000 0.000000
0.000000 1.000000 0.000000
0.000000 1.000000 0.000000
0.000000 1.000000 0.000000
0.000000 1.000000 0.000000
0.000000 1.000000 0.000000
0.000000 1.000000 0.000000
0.000000 1.000000 0.000000
0.000000 1.000000 0.000000
0.000000 1.000000 0.000000
0.000000 1.000000 0.000000
0.000000 1.000000 0.000000
0.000000 1.000000 0.000000
0.000000 1.000000 0.000000
0.000000 1.000000 0.000000
0.000000 1.000000 0.000000
0.000000 1.000000 0.000000
0.000000 1.000000 0.000000
0.000000 1.000000 0.000000
0.000000 1.000000 0.000000
0.000000 1.000000 0.000000
0.000000 1.000000 0.000000
0.000000 1.000000 0.000000
0.000000 1.000000 0.000000
0.000000 1.000000 0.000000
0.000000 1.000000 0.000000
0.000000 1.000000 0.000000
0.000000 1.000000 0.000000
0.000000 1.000000 0.000000
0.000000 1.000000 0.000000
0.000000 1.000000 0.000000
0.000000 1.000000 0.000000
0.000000 1.000000 0.000000
0.000000 1.000000 0.000000
0.000000 1.000000 0.000000
0.000000 1.000000 0.000000
0.000000 1.000000 0.000000
0.000000 1.000000 0.000000
0.000000 1.000000 0.000000
0.000000 1.000000 0.000000
0.000000 1.000000 0.000000
0.000000 1.000000 0.000000
0.000000 1.000000 0.000000
0.000000 1.000000 0.000000
0.000000 1.000000 0.000000
0.000000 1.000000 0.000000
0.000000 1.000000 0.000000
0.000000 1.000000 0.000000
0.000000 1.000000 0.000000
0.000000 1.000000 0.000000
0.000000 1.000000 0.000000
0.000000 1.000000 0.000000
0.000000 1.000000 0.000000
0.000000 1.000000 0.000000
0.000000 1.000000 0.000000
0.000000 1.000000 0.000000
0.000000 1.000000 0.000000
0.000000 1.000000 0.000000
0.000000 1.000000 0.000000
0.000000 1.000000 0.000000
0.000000 1.000000 0.000000
0.000000 1.000000 0.000000
0.000000 1.000000 0.000000
0.000000 1.000000 0.000000
0.000000 1.000000 0.000000
0.000000 1.000000 0.000000
0.000000 1.000000 0.000000
0.000000 1.000000 0.000000
0.000000 1.000000 0.000000
0.000000 1.000000 0.000000
0.000000 1.000000 0.000000
0.000000 1.000000 0.000000
0.000000 1.000000 0.000000
0.000000 1.000000 0.000000
0.000000 1.000000 0.000000
0.000000 1.000000 0.000000
0.987688 0.000000 -0.156434
1.000000 -0.000000 -0.000003
1.000000 -0.000000 -0.000003
1.000000 -0.000000 -0.000003
0.987688 0.000000 -0.156434
0.987688 0.000000 -0.156434
0.951057 0.000000 -0.309017
0.987688 0.000000 -0.156434
0.987688 0.000000 -0.156434
0.987688 0.000000 -0.156434
0.951057 0.000000 -0.309017
0.951057 0.000000 -0.309017
0.891007 0.000000 -0.453990
0.951057 0.000000 -0.309017
0.951057 0.000000 -0.309017
0.951057 0.000000 -0.309017
0.891007 0.000000 -0.453990
0.891007 0.000000 -0.453990
0.809017 0.000000 -0.587785
0.891007 0.000000 -0.453990
0.891007 0.000000 -0.453990
0.891007 0.000000 -0.453990
0.809017 0.000000 -0.587785
0.809017 0.000000 -0.587785
0.707107 0.000000 -0.707107
0.809017 0.000000 -0.587785
0.809017 0.000000 -0.587785
0.809017 0.000000 -0.587785
0.707107 0.000000 -0.707107
0.707107 0.000000 -0.707107
0.587785 0.000000 -0.809017
0.707107 0.000000 -0.707107
0.707107 0.000000 -0.707107
0.707107 0.000000 -0.707107
0.587785 0.000000 -0.809017
0.587785 0.000000 -0.809017
0.453991 0.000000 -0.891007
0.587785 0.000000 -0.809017
0.587785 0.000000 -0.809017
0.587785 0.000000 -0.809017
0.453991 0.000000 -0.891007
0.453991 0.000000 -0.891007
0.309017 0.000000 -0.951056
0.453991 0.000000 -0.891007
0.453991 0.000000 -0.891007
0.453991 0.000000 -0.891007
0.309017 0.000000 -0.951056
0.309017 0.000000 -0.951056
0.156435 0.000000 -0.987688
0.309017 0.000000 -0.951056
0.309017 0.000000 -0.951056
0.309017 0.000000 -0.951056
0.156435 0.000000 -0.987688
0.156435 0.000000 -0.987688
0.000000 0.000000 -1.000000
0.156435 0.000000 -0.987688
0.156435 0.000000 -0.987688
0.156435 0.000000 -0.987688
0.000000 0.000000 -1.000000
0.000000 0.000000 -1.000000
-0.156434 0.000000 -0.987688
0.000000 0.000000 -1.000000
0.000000 0.000000 -1.000000
0.000000 0.000000 -1.000000
-0.156434 0.000000 -0.987688
-0.156434 0.000000 -0.987688
-0.309017 0.000000 -0.951057
-0.156434 0.000000 -0.987688
-0.156434 0.000000 -0.987688
-0.156434 0.000000 -0.987688
-0.309017 0.000000 -0.951057
-0.309017 0.000000 -0.951057
-0.453990 0.000000 -0.891007
-0.309017 0.000000 -0.951057
-0.309017 0.000000 -0.951057
-0.309017 0.000000 -0.951057
-0.453990 0.000000 -0.891007
-0.453990 0.000000 -0.891007
-0.587785 0.000000 -0.809017
-0.453990 0.000000 -0.891007
-0.453990 0.000000 -0.891007
-0.453990 0.000000 -0.891007
-0.587785 0.000000 -0.809017
-0.587785 0.000000 -0.809017
-0.707107 0.000000 -0.707107
-0.587785 0.000000 -0.809017
-0.587785 0.000000 -0.809017
-0.587785 0.000000 -0.809017
-0.707107 0.000000 -0.707107
-0.707107 0.000000 -0.707107
-0.809017 0.000000 -0.587785
-0.707107 0.000000 -0.707107
-0.707107 0.000000 -0.707107
-0.707107 0.000000 -0.707107
-0.809017 0.000000 -0.587785
-0.809017 0.000000 -0.587785
-0.891006 0.000000 -0.453991
-0.809017 0.000000 -0.587785
-0.809017 0.000000 -0.587785
-0.809017 0.000000 -0.587785
-0.891006 0.000000 -0.453991
-0.891006 0.000000 -0.453991
-0.951056 0.000000 -0.309017
-0.891006 0.000000 -0.453991
-0.891006 0.000000 -0.453991
-0.891006 0.000000 -0.453991
-0.951056 0.000000 -0.309017
-0.951056 0.000000 -0.309017
-0.987688 0.000000 -0.156434
-0.951056 0.000000 -0.309017
-0.951056 0.000000 -0.309017
-0.951056 0.000000 -0.309017
-0.987688 0.000000 -0.156434
-0.987688 0.000000 -0.156434
-1.000000 0.000000 0.000000
-0.987688 0.000000 -0.156434
-0.987688 0.000000 -0.156434
-0.987688 0.000000 -0.156434
-1.000000 0.000000 0.000000
-1.000000 0.000000 0.000000
-0.987688 0.000000 0.156435
-1.000000 0.000000 0.000000
-1.000000 0.000000 0.000000
-1.000000 0.000000 0.000000
-0.987688 0.000000 0.156435
-0.987688 0.000000 0.156435
-0.951056 0.000000 0.309017
-0.987688 0.000000 0.156435
-0.987688 0.000000 0.156435
-0.987688 0.000000 0.156435
-0.951056 0.000000 0.309017
-0.951056 0.000000 0.309017
-0.891007 0.000000 0.453990
-0.951056 0.000000 0.309017
-0.951056 0.000000 0.309017
-0.951056 0.000000 0.309017
-0.891007 0.000000 0.453990
-0.891007 0.000000 0.453990
-0.809017 0.000000 0.587785
-0.891007 0.000000 0.453990
-0.891007 0.000000 0.453990
-0.891007 0.000000 0.453990
-0.809017 0.000000 0.587785
-0.809017 0.000000 0.587785
-0.707107 0.000000 0.707107
-0.809017 0.000000 0.587785
-0.809017 0.000000 0.587785
-0.809017 0.000000 0.587785
-0.707107 0.000000 0.707107
-0.707107 0.000000 0.707107
-0.587785 0.000000 0.809017
-0.707107 0.000000 0.707107
-0.707107 0.000000 0.707107
-0.707107 0.000000 0.707107
-0.587785 0.000000 0.809017
-0.587785 0.000000 0.809017
-0.453991 0.000000 0.891007
-0.587785 0.000000 0.809017
-0.587785 0.000000 0.809017
-0.587785 0.000000 0.809017
-0.453991 0.000000 0.891007
-0.453991 0.000000 0.891007
-0.309017 0.000000 0.951057
-0.453991 0.000000 0.891007
-0.453991 0.000000 0.891007
-0.453991 0.000000 0.891007
-0.309017 0.000000 0.951057
-0.309017 0.000000 0.951057
-0.156434 0.000000 0.987688
-0.309017 0.000000 0.951057
-0.309017 0.000000 0.951057
-0.309017 0.000000 0.951057
-0.156434 0.000000 0.987688
-0.156434 0.000000 0.987688
0.000000 0.000000 1.000000
-0.156434 0.000000 0.987688
-0.156434 0.000000 0.987688
-0.156434 0.000000 0.987688
0.000000 0.000000 1.000000
0.000000 0.000000 1.000000
0.156435 0.000000 0.987688
0.000000 0.000000 1.000000
0.000000 0.000000 1.000000
0.000000 0.000000 1.000000
0.156435 0.000000 0.987688
0.156435 0.000000 0.987688
0.309017 0.000000 0.951056
0.156435 0.000000 0.987688
0.156435 0.000000 0.987688
0.156435 0.000000 0.987688
0.309017 0.000000 0.951056
0.309017 0.000000 0.951056
0.453991 0.000000 0.891006
0.309017 0.000000 0.951056
0.309017 0.000000 0.951056
0.309017 0.000000 0.951056
0.453991 0.000000 0.891006
0.453991 0.000000 0.891006
0.587785 0.000000 0.809017
0.453991 0.000000 0.891006
0.453991 0.000000 0.891006
0.453991 0.000000 0.891006
0.587785 0.000000 0.809017
0.587785 0.000000 0.809017
0.707107 0.000000 0.707107
0.587785 0.000000 0.809017
0.587785 0.000000 0.809017
0.587785 0.000000 0.809017
0.707107 0.000000 0.707107
0.707107 0.000000 0.707107
0.809017 0.000000 0.587785
0.707107 0.000000 0.707107
0.707107 0.000000 0.707107
0.707107 0.000000 0.707107
0.809017 0.000000 0.587785
0.809017 0.000000 0.587785
0.891007 0.000000 0.453990
0.809017 0.000000 0.587785
0.809017 0.000000 0.587785
0.809017 0.000000 0.587785
0.891007 0.000000 0.453990
0.891007 0.000000 0.453990
0.951057 0.000000 0.309017
0.891007 0.000000 0.453990
0.891007 0.000000 0.453990
0.891007 0.000000 0.453990
0.951057 0.000000 0.309017
0.951057 0.000000 0.309017
0.987689 -0.000000 0.156431
0.951057 0.000000 0.309017
0.951057 0.000000 0.309017
0.951057 0.000000 0.309017
0.987689 -0.000000 0.156431
0.987689 -0.000000 0.156431
1.000000 -0.000000 -0.000003
0.987689 -0.000000 0.156431
0.987689 -0.000000 0.156431
0.987689 -0.000000 0.156431
1.000000 -0.000000 -0.000003
1.000000 -0.000000 -0.000003
0.000000 -1.000000 0.000000
0.000000 -1.000000 0.000000
0.000000 -1.000000 0.000000
0.000000 -1.000000 0.000000
0.000000 -1.000000 0.000000
0.000000 -1.000000 0.000000
0.000000 -1.000000 0.000000
0.000000 -1.000000 0.000000
0.000000 -1.000000 0.000000
0.000000 -1.000000 0.000000
0.000000 -1.000000 0.000000
0.000000 -1.000000 0.000000
0.000000 -1.000000 0.000000
0.000000 -1.000000 0.000000
0.000000 -1.000000 0.000000
0.000000 -1.000000 0.000000
0.000000 -1.000000 0.000000
0.000000 -1.000000 0.000000
0.000000 -1.000000 0.000000
0.000000 -1.000000 0.000000
0.000000 -1.000000 0.000000
0.000000 -1.000000 0.000000
0.000000 -1.000000 0.000000
0.000000 -1.000000 0.000000
0.000000 -1.000000 0.000000
0.000000 -1.000000 0.000000
0.000000 -1.000000 0.000000
0.000000 -1.000000 0.000000
0.000000 -1.000000 0.000000
0.000000 -1.000000 0.000000
0.000000 -1.000000 0.000000
0.000000 -1.000000 0.000000
0.000000 -1.000000 0.000000
0.000000 -1.000000 0.000000
0.000000 -1.000000 0.000000
0.000000 -1.000000 0.000000
0.000000 -1.000000 0.000000
0.000000 -1.000000 0.000000
0.000000 -1.000000 0.000000
0.000000 -1.000000 0.000000
0.000000 -1.000000 0.000000
0.000000 -1.000000 0.000000
0.000000 -1.000000 0.000000
0.000000 -1.000000 0.000000
0.000000 -1.000000 0.000000
0.000000 -1.000000 0.000000
0.000000 -1.000000 0.000000
0.000000 -1.000000 0.000000
0.000000 -1.000000 0.000000
0.000000 -1.000000 0.000000
0.000000 -1.000000 0.000000
0.000000 -1.000000 0.000000
0.000000 -1.000000 0.000000
0.000000 -1.000000 0.000000
0.000000 -1.000000 0.000000
0.000000 -1.000000 0.000000
0.000000 -1.000000 0.000000
0.000000 -1.000000 0.000000
0.000000 -1.000000 0.000000
0.000000 -1.000000 0.000000
0.000000 -1.000000 0.000000
0.000000 -1.000000 0.000000
0.000000 -1.000000 0.000000
0.000000 -1.000000 0.000000
0.000000 -1.000000 0.000000
0.000000 -1.000000 0.000000
0.000000 -1.000000 0.000000
0.000000 -1.000000 0.000000
0.000000 -1.000000 0.000000
0.000000 -1.000000 0.000000
0.000000 -1.000000 0.000000
0.000000 -1.000000 0.000000
0.000000 -1.000000 0.000000
0.000000 -1.000000 0.000000
0.000000 -1.000000 0.000000
0.000000 -1.000000 0.000000
0.000000 -1.000000 0.000000
0.000000 -1.000000 0.000000
0.000000 -1.000000 0.000000
0.000000 -1.000000 0.000000
0.000000 -1.000000 0.000000
0.000000 -1.000000 0.000000
0.000000 -1.000000 0.000000
0.000000 -1.000000 0.000000
0.000000 -1.000000 0.000000
0.000000 -1.000000 0.000000
0.000000 -1.000000 0.000000
0.000000 -1.000000 0.000000
0.000000 -1.000000 0.000000
0.000000 -1.000000 0.000000
0.000000 -1.000000 0.000000
0.000000 -1.000000 0.000000
0.000000 -1.000000 0.000000
0.000000 -1.000000 0.000000
0.000000 -1.000000 0.000000
0.000000 -1.000000 0.000000
0.000000 -1.000000 0.000000
0.000000 -1.000000 0.000000
0.000000 -1.000000 0.000000
0.000000 -1.000000 0.000000
0.000000 -1.000000 0.000000
0.000000 -1.000000 0.000000
0.000000 -1.000000 0.000000
0.000000 -1.000000 0.000000
0.000000 -1.000000 0.000000
0.000000 -1.000000 0.000000
0.000000 -1.000000 0.000000
0.000000 -1.000000 0.000000
0.000000 -1.000000 0.000000
0.000000 -1.000000 0.000000
0.000000 -1.000000 0.000000
0.000000 -1.000000 0.000000
0.000000 -1.000000 0.000000
0.000000 -1.000000 0.000000
0.000000 -1.000000 0.000000
0.000000 -1.000000 0.000000
0.000000 -1.000000 0.000000
0.000000 -1.000000 0.000000
0.000000 -1.000000 0.000000
0.000000 -1.000000 0.000000
0.000000 -1.000000 0.000000
0.000000 -1.000000 0.000000
0.000000 -1.000000 0.000000
0.000000 -1.000000 0.000000
0.000000 -1.000000 0.000000
0.000000 -1.000000 0.000000
0.000000 -1.000000 0.000000
0.000000 -1.000000 0.000000
0.000000 -1.000000 0.000000
0.000000 -1.000000 0.000000
0.000000 -1.000000 0.000000
0.000000 -1.000000 0.000000
0.000000 -1.000000 0.000000
0.000000 -1.000000 0.000000
0.000000 -1.000000 0.000000
0.000000 -1.000000 0.000000
0.000000 -1.000000 0.000000
0.000000 -1.000000 0.000000
0.000000 -1.000000 0.000000
0.000000 -1.000000 0.000000
0.000000 -1.000000 0.000000
0.000000 -1.000000 0.000000
0.000000 -1.000000 0.000000
0.000000 -1.000000 0.000000
0.000000 -1.000000 0.000000
0.000000 -1.000000 0.000000
0.000000 -1.000000 0.000000
0.000000 -1.000000 0.000000
0.000000 -1.000000 0.000000
0.000000 -1.000000 0.000000
0.000000 -1.000000 0.000000
0.000000 -1.000000 0.000000
0.000000 -1.000000 0.000000
0.000000 -1.000000 0.000000
0.000000 -1.000000 0.000000
0.000000 -1.000000 0.000000
0.000000 -1.000000 0.000000
0.000000 -1.000000 0.000000
0.000000 -1.000000 0.000000
0.000000 -1.000000 0.000000
0.000000 -1.000000 0.000000
0.000000 -1.000000 0.000000
0.000000 -1.000000 0.000000
0.000000 -1.000000 0.000000
0.000000 -1.000000 0.000000
0.000000 -1.000000 0.000000
0.000000 -1.000000 0.000000
0.000000 -1.000000 0.000000
0.000000 -1.000000 0.000000
0.000000 -1.000000 0.000000
0.000000 -1.000000 0.000000
0.000000 -1.000000 0.000000
0.000000 -1.000000 0.000000
0.000000 -1.000000 0.000000
0.000000 -1.000000 0.000000
0.000000 -1.000000 0.000000
0.000000 -1.000000 0.000000
0.000000 -1.000000 0.000000
0.000000 -1.000000 0.000000
0.000000 -1.000000 0.000000
0.000000 -1.000000 0.000000
0.000000 -1.000000 0.000000
0.000000 -1.000000 0.000000
0.000000 -1.000000 0.000000
0.000000 -1.000000 0.000000
0.000000 -1.000000 0.000000
0.000000 -1.000000 0.000000
0.000000 -1.000000 0.000000
0.000000 -1.000000 0.000000
0.000000 -1.000000 0.000000
0.000000 -1.000000 0.000000
0.000000 -1.000000 0.000000
0.000000 -1.000000 0.000000
0.000000 -1.000000 0.000000
0.000000 -1.000000 0.000000
0.000000 -1.000000 0.000000
0.000000 -1.000000 0.000000
0.000000 -1.000000 0.000000
0.000000 -1.000000 0.000000
0.000000 -1.000000 0.000000
0.000000 -1.000000 0.000000
0.000000 -1.000000 0.000000
0.000000 -1.000000 0.000000
0.000000 -1.000000 0.000000
0.000000 -1.000000 0.000000
0.000000 -1.000000 0.000000
0.000000 -1.000000 0.000000
0.000000 -1.000000 0.000000
0.000000 -1.000000 0.000000
0.000000 -1.000000 0.000000
0.000000 -1.000000 0.000000
0.000000 -1.000000 0.000000
0.000000 -1.000000 0.000000
0.000000 -1.000000 0.000000
0.000000 -1.000000 0.000000
0.000000 -1.000000 0.000000
0.000000 -1.000000 0.000000
0.000000 -1.000000 0.000000
0.000000 -1.000000 0.000000
0.000000 -1.000000 0.000000
0.000000 -1.000000 0.000000
0.000000 -1.000000 0.000000
0.000000 -1.000000 0.000000
0.000000 -1.000000 0.000000
0.000000 -1.000000 0.000000
0.000000 -1.000000 0.000000
0.000000 -1.000000 0.000000
0.000000 -1.000000 0.000000
0.000000 -1.000000 0.000000
0.000000 -1.000000 0.000000
0.000000 -1.000000 0.000000
0.000000 -1.000000 0.000000
0.000000 -1.000000 0.000000
0.000000 -1.000000 0.000000
0.000000 -1.000000 0.000000
0.000000 -1.000000 0.000000
0.000000 -1.000000 0.000000
0.000000 -1.000000 0.000000
0.000000 -1.000000 0.000000
0.000000 -1.000000 0.000000
</float_array>
          <technique_common>
            <accessor source="#pPipe1-lib-Normal0-array" count="960" stride="3">
              <param name="X" type="float"/>
              <param name="Y" type="float"/>
              <param name="Z" type="float"/>
            </accessor>
          </technique_common>
        </source>
        <source id="pPipe1-lib-UV0">
          <float_array id="pPipe1-lib-UV0-array" count="672">
0.362787 0.745590
0.362787 0.709190
0.393556 0.709190
0.393556 0.745590
0.362787 0.672789
0.393556 0.672789
0.362787 0.781094
0.393556 0.781094
0.362787 0.637285
0.393556 0.637285
0.362787 0.814827
0.393556 0.814827
0.362787 0.603552
0.393556 0.603552
0.362787 0.845960
0.393556 0.845960
0.362787 0.572419
0.393556 0.572419
0.362787 0.873724
0.393556 0.873724
0.362787 0.544655
0.393556 0.544655
0.362787 0.897437
0.393556 0.897437
0.362787 0.520941
0.393556 0.520941
0.362787 0.916515
0.393556 0.916515
0.362787 0.501864
0.393556 0.501864
0.216792 0.535597
0.216792 0.501864
0.247562 0.501864
0.247562 0.535597
0.216792 0.571101
0.247562 0.571101
0.216792 0.607501
0.247562 0.607501
0.216792 0.643902
0.247562 0.643902
0.216792 0.679406
0.247562 0.679406
0.216792 0.713139
0.247562 0.713139
0.216792 0.744272
0.247562 0.744272
0.216792 0.772036
0.247562 0.772036
0.216792 0.795749
0.247562 0.795749
0.216792 0.814827
0.247562 0.814827
0.253291 0.535597
0.253291 0.501864
0.284060 0.501864
0.284060 0.535597
0.253291 0.571101
0.284060 0.571101
0.253291 0.607501
0.284060 0.607501
0.253291 0.643902
0.284060 0.643902
0.253291 0.679406
0.284060 0.679406
0.253291 0.713139
0.284060 0.713139
0.253291 0.744272
0.284060 0.744272
0.253291 0.772036
0.284060 0.772036
0.253291 0.795749
0.284060 0.795749
0.253291 0.814827
0.284060 0.814827
0.174564 0.679406
0.174564 0.713139
0.143795 0.713139
0.143795 0.679406
0.174564 0.643902
0.143795 0.643902
0.174564 0.607501
0.143795 0.607501
0.174564 0.571101
0.143795 0.571101
0.174564 0.535597
0.143795 0.535597
0.174564 0.501863
0.143795 0.501863
0.479755 0.286465
0.482620 0.250064
0.498004 0.250064
0.494950 0.288871
0.479755 0.213664
0.494950 0.211257
0.471231 0.321969
0.485863 0.326723
0.471231 0.178160
0.485863 0.173406
0.457258 0.355702
0.470966 0.362687
0.457258 0.144427
0.470966 0.137442
0.438180 0.386834
0.450627 0.395877
0.438180 0.113294
0.450627 0.104251
0.414467 0.414599
0.425346 0.425478
0.414467 0.085530
0.425346 0.074651
0.386702 0.438312
0.395745 0.450759
0.386703 0.061816
0.395746 0.049370
0.355570 0.457390
0.362555 0.471098
0.355570 0.042738
0.362555 0.029030
0.321837 0.471363
0.326591 0.485995
0.321837 0.028765
0.326591 0.014134
0.286333 0.479887
0.288739 0.495082
0.286333 0.020242
0.288739 0.005046
0.249932 0.482752
0.249932 0.498136
0.249932 0.017377
0.249932 0.001992
0.213532 0.479887
0.211125 0.495082
0.213532 0.020242
0.211125 0.005046
0.178028 0.471363
0.173274 0.485995
0.178028 0.028765
0.173274 0.014134
0.144294 0.457390
0.137310 0.471098
0.144295 0.042738
0.137310 0.029030
0.113162 0.438312
0.104119 0.450759
0.113162 0.061816
0.104119 0.049370
0.085397 0.414599
0.074519 0.425478
0.085398 0.085529
0.074519 0.074651
0.061684 0.386834
0.049238 0.395877
0.061684 0.113294
0.049238 0.104251
0.042606 0.355702
0.028898 0.362687
0.042606 0.144426
0.028898 0.137442
0.028633 0.321968
0.014002 0.326723
0.028633 0.178160
0.014002 0.173406
0.020110 0.286465
0.004914 0.288871
0.020110 0.213664
0.004914 0.211257
0.017245 0.250064
0.001860 0.250064
0.430055 0.684090
0.430055 0.722897
0.399285 0.722897
0.399285 0.684090
0.430055 0.761704
0.399285 0.761704
0.430055 0.646239
0.399285 0.646239
0.430055 0.799556
0.399285 0.799556
0.430055 0.610275
0.399285 0.610275
0.430055 0.835520
0.399285 0.835520
0.430055 0.577084
0.399285 0.577084
0.430055 0.868711
0.399285 0.868711
0.430055 0.547484
0.399285 0.547484
0.430055 0.898311
0.399285 0.898311
0.430055 0.522203
0.399285 0.522203
0.430055 0.923592
0.399285 0.923592
0.430055 0.501864
0.399285 0.501864
0.430055 0.943931
0.399285 0.943931
0.289789 0.537827
0.289789 0.501863
0.320559 0.501863
0.320559 0.537827
0.289789 0.575679
0.320559 0.575679
0.289789 0.614486
0.320559 0.614486
0.289789 0.653293
0.320559 0.653293
0.289789 0.691144
0.320559 0.691144
0.289789 0.727108
0.320559 0.727108
0.289789 0.760299
0.320559 0.760299
0.289789 0.789899
0.320559 0.789899
0.289789 0.815180
0.320559 0.815180
0.289789 0.835520
0.320559 0.835520
0.357058 0.799556
0.357058 0.835520
0.326288 0.835520
0.326288 0.799556
0.357058 0.761705
0.326288 0.761705
0.357058 0.722897
0.326288 0.722897
0.357058 0.684090
0.326288 0.684090
0.357058 0.646239
0.326288 0.646239
0.357058 0.610275
0.326288 0.610275
0.357058 0.577084
0.326288 0.577084
0.357058 0.547484
0.326288 0.547484
0.357058 0.522203
0.326288 0.522203
0.357058 0.501864
0.326288 0.501864
0.211063 0.691144
0.211063 0.727108
0.180293 0.727108
0.180293 0.691144
0.211063 0.653293
0.180293 0.653293
0.211063 0.614486
0.180293 0.614486
0.211063 0.575679
0.180293 0.575679
0.211063 0.537827
0.180293 0.537827
0.211063 0.501864
0.180293 0.501864
0.928874 0.711129
0.931928 0.749936
0.916543 0.749936
0.913679 0.713535
0.928874 0.788743
0.913679 0.786336
0.919787 0.673277
0.905155 0.678031
0.919787 0.826594
0.905155 0.821840
0.904890 0.637313
0.891182 0.644298
0.904890 0.862558
0.891182 0.855573
0.884551 0.604123
0.872104 0.613165
0.884551 0.895749
0.872104 0.886706
0.859270 0.574522
0.848391 0.585401
0.859270 0.925349
0.848391 0.914470
0.829669 0.549241
0.820626 0.561688
0.829669 0.950630
0.820626 0.938184
0.796479 0.528902
0.789494 0.542610
0.796479 0.970970
0.789494 0.957262
0.760515 0.514005
0.755761 0.528637
0.760515 0.985866
0.755761 0.971235
0.722663 0.504918
0.720257 0.520113
0.722663 0.994954
0.720257 0.979758
0.683856 0.501864
0.683856 0.517248
0.683856 0.998008
0.683856 0.982623
0.645049 0.504918
0.647456 0.520113
0.645049 0.994954
0.647456 0.979758
0.607198 0.514005
0.611952 0.528637
0.607198 0.985866
0.611952 0.971235
0.571234 0.528902
0.578218 0.542610
0.571234 0.970970
0.578218 0.957262
0.538043 0.549241
0.547086 0.561688
0.538043 0.950630
0.547086 0.938184
0.508443 0.574522
0.519321 0.585401
0.508443 0.925349
0.519321 0.914471
0.483162 0.604123
0.495608 0.613166
0.483162 0.895749
0.495608 0.886706
0.462822 0.637313
0.476530 0.644298
0.462822 0.862558
0.476530 0.855574
0.447926 0.673277
0.462557 0.678031
0.447926 0.826594
0.462557 0.821840
0.438838 0.711129
0.454034 0.713535
0.438838 0.788743
0.454034 0.786336
0.435784 0.749936
0.451169 0.749936
</float_array>
          <technique_common>
            <accessor source="#pPipe1-lib-UV0-array" count="336" stride="2">
              <param name="S" type="float"/>
              <param name="T" type="float"/>
            </accessor>
          </technique_common>
        </source>
        <vertices id="pPipe1-lib-Vertex">
          <input semantic="POSITION" source="#pPipe1-lib-Position"/>
        </vertices>
        <polygons material="lambert1" count="320">
          <input semantic="VERTEX" offset="0" source="#pPipe1-lib-Vertex"/>
          <input semantic="NORMAL" offset="1" source="#pPipe1-lib-Normal0"/>
          <input semantic="TEXCOORD" offset="2" set="0" source="#pPipe1-lib-UV0"/>
          <p>1 0 0 0 1 1 40 2 2</p>
          <p>40 3 2 41 4 3 1 5 0</p>
          <p>2 6 6 1 7 0 41 8 3</p>
          <p>41 9 3 42 10 7 2 11 6</p>
          <p>3 12 10 2 13 6 42 14 7</p>
          <p>42 15 7 43 16 11 3 17 10</p>
          <p>4 18 14 3 19 10 43 20 11</p>
          <p>43 21 11 44 22 15 4 23 14</p>
          <p>5 24 18 4 25 14 44 26 15</p>
          <p>44 27 15 45 28 19 5 29 18</p>
          <p>6 30 22 5 31 18 45 32 19</p>
          <p>45 33 19 46 34 23 6 35 22</p>
          <p>7 36 26 6 37 22 46 38 23</p>
          <p>46 39 23 47 40 27 7 41 26</p>
          <p>8 42 30 7 43 31 47 44 32</p>
          <p>47 45 32 48 46 33 8 47 30</p>
          <p>9 48 34 8 49 30 48 50 33</p>
          <p>48 51 33 49 52 35 9 53 34</p>
          <p>10 54 36 9 55 34 49 56 35</p>
          <p>49 57 35 50 58 37 10 59 36</p>
          <p>11 60 38 10 61 36 50 62 37</p>
          <p>50 63 37 51 64 39 11 65 38</p>
          <p>12 66 40 11 67 38 51 68 39</p>
          <p>51 69 39 52 70 41 12 71 40</p>
          <p>13 72 42 12 73 40 52 74 41</p>
          <p>52 75 41 53 76 43 13 77 42</p>
          <p>14 78 44 13 79 42 53 80 43</p>
          <p>53 81 43 54 82 45 14 83 44</p>
          <p>15 84 46 14 85 44 54 86 45</p>
          <p>54 87 45 55 88 47 15 89 46</p>
          <p>16 90 48 15 91 46 55 92 47</p>
          <p>55 93 47 56 94 49 16 95 48</p>
          <p>17 96 50 16 97 48 56 98 49</p>
          <p>56 99 49 57 100 51 17 101 50</p>
          <p>18 102 52 17 103 53 57 104 54</p>
          <p>57 105 54 58 106 55 18 107 52</p>
          <p>19 108 56 18 109 52 58 110 55</p>
          <p>58 111 55 59 112 57 19 113 56</p>
          <p>20 114 58 19 115 56 59 116 57</p>
          <p>59 117 57 60 118 59 20 119 58</p>
          <p>21 120 60 20 121 58 60 122 59</p>
          <p>60 123 59 61 124 61 21 125 60</p>
          <p>22 126 62 21 127 60 61 128 61</p>
          <p>61 129 61 62 130 63 22 131 62</p>
          <p>23 132 64 22 133 62 62 134 63</p>
          <p>62 135 63 63 136 65 23 137 64</p>
          <p>24 138 66 23 139 64 63 140 65</p>
          <p>63 141 65 64 142 67 24 143 66</p>
          <p>25 144 68 24 145 66 64 146 67</p>
          <p>64 147 67 65 148 69 25 149 68</p>
          <p>26 150 70 25 151 68 65 152 69</p>
          <p>65 153 69 66 154 71 26 155 70</p>
          <p>27 156 72 26 157 70 66 158 71</p>
          <p>66 159 71 67 160 73 27 161 72</p>
          <p>28 162 74 27 163 75 67 164 76</p>
          <p>67 165 76 68 166 77 28 167 74</p>
          <p>29 168 78 28 169 74 68 170 77</p>
          <p>68 171 77 69 172 79 29 173 78</p>
          <p>30 174 80 29 175 78 69 176 79</p>
          <p>69 177 79 70 178 81 30 179 80</p>
          <p>31 180 82 30 181 80 70 182 81</p>
          <p>70 183 81 71 184 83 31 185 82</p>
          <p>32 186 84 31 187 82 71 188 83</p>
          <p>71 189 83 72 190 85 32 191 84</p>
          <p>33 192 86 32 193 84 72 194 85</p>
          <p>72 195 85 73 196 87 33 197 86</p>
          <p>34 198 24 33 199 28 73 200 29</p>
          <p>73 201 29 74 202 25 34 203 24</p>
          <p>35 204 20 34 205 24 74 206 25</p>
          <p>74 207 25 75 208 21 35 209 20</p>
          <p>36 210 16 35 211 20 75 212 21</p>
          <p>75 213 21 76 214 17 36 215 16</p>
          <p>37 216 12 36 217 16 76 218 17</p>
          <p>76 219 17 77 220 13 37 221 12</p>
          <p>38 222 8 37 223 12 77 224 13</p>
          <p>77 225 13 78 226 9 38 227 8</p>
          <p>39 228 4 38 229 8 78 230 9</p>
          <p>78 231 9 79 232 5 39 233 4</p>
          <p>0 234 1 39 235 4 79 236 5</p>
          <p>79 237 5 40 238 2 0 239 1</p>
          <p>41 240 88 40 241 89 80 242 90</p>
          <p>80 243 90 81 244 91 41 245 88</p>
          <p>42 246 94 41 247 88 81 248 91</p>
          <p>81 249 91 82 250 95 42 251 94</p>
          <p>43 252 98 42 253 94 82 254 95</p>
          <p>82 255 95 83 256 99 43 257 98</p>
          <p>44 258 102 43 259 98 83 260 99</p>
          <p>83 261 99 84 262 103 44 263 102</p>
          <p>45 264 106 44 265 102 84 266 103</p>
          <p>84 267 103 85 268 107 45 269 106</p>
          <p>46 270 110 45 271 106 85 272 107</p>
          <p>85 273 107 86 274 111 46 275 110</p>
          <p>47 276 114 46 277 110 86 278 111</p>
          <p>86 279 111 87 280 115 47 281 114</p>
          <p>48 282 118 47 283 114 87 284 115</p>
          <p>87 285 115 88 286 119 48 287 118</p>
          <p>49 288 122 48 289 118 88 290 119</p>
          <p>88 291 119 89 292 123 49 293 122</p>
          <p>50 294 126 49 295 122 89 296 123</p>
          <p>89 297 123 90 298 127 50 299 126</p>
          <p>51 300 130 50 301 126 90 302 127</p>
          <p>90 303 127 91 304 131 51 305 130</p>
          <p>52 306 134 51 307 130 91 308 131</p>
          <p>91 309 131 92 310 135 52 311 134</p>
          <p>53 312 138 52 313 134 92 314 135</p>
          <p>92 315 135 93 316 139 53 317 138</p>
          <p>54 318 142 53 319 138 93 320 139</p>
          <p>93 321 139 94 322 143 54 323 142</p>
          <p>55 324 146 54 325 142 94 326 143</p>
          <p>94 327 143 95 328 147 55 329 146</p>
          <p>56 330 150 55 331 146 95 332 147</p>
          <p>95 333 147 96 334 151 56 335 150</p>
          <p>57 336 154 56 337 150 96 338 151</p>
          <p>96 339 151 97 340 155 57 341 154</p>
          <p>58 342 158 57 343 154 97 344 155</p>
          <p>97 345 155 98 346 159 58 347 158</p>
          <p>59 348 162 58 349 158 98 350 159</p>
          <p>98 351 159 99 352 163 59 353 162</p>
          <p>60 354 166 59 355 162 99 356 163</p>
          <p>99 357 163 100 358 167 60 359 166</p>
          <p>61 360 164 60 361 166 100 362 167</p>
          <p>100 363 167 101 364 165 61 365 164</p>
          <p>62 366 160 61 367 164 101 368 165</p>
          <p>101 369 165 102 370 161 62 371 160</p>
          <p>63 372 156 62 373 160 102 374 161</p>
          <p>102 375 161 103 376 157 63 377 156</p>
          <p>64 378 152 63 379 156 103 380 157</p>
          <p>103 381 157 104 382 153 64 383 152</p>
          <p>65 384 148 64 385 152 104 386 153</p>
          <p>104 387 153 105 388 149 65 389 148</p>
          <p>66 390 144 65 391 148 105 392 149</p>
          <p>105 393 149 106 394 145 66 395 144</p>
          <p>67 396 140 66 397 144 106 398 145</p>
          <p>106 399 145 107 400 141 67 401 140</p>
          <p>68 402 136 67 403 140 107 404 141</p>
          <p>107 405 141 108 406 137 68 407 136</p>
          <p>69 408 132 68 409 136 108 410 137</p>
          <p>108 411 137 109 412 133 69 413 132</p>
          <p>70 414 128 69 415 132 109 416 133</p>
          <p>109 417 133 110 418 129 70 419 128</p>
          <p>71 420 124 70 421 128 110 422 129</p>
          <p>110 423 129 111 424 125 71 425 124</p>
          <p>72 426 120 71 427 124 111 428 125</p>
          <p>111 429 125 112 430 121 72 431 120</p>
          <p>73 432 116 72 433 120 112 434 121</p>
          <p>112 435 121 113 436 117 73 437 116</p>
          <p>74 438 112 73 439 116 113 440 117</p>
          <p>113 441 117 114 442 113 74 443 112</p>
          <p>75 444 108 74 445 112 114 446 113</p>
          <p>114 447 113 115 448 109 75 449 108</p>
          <p>76 450 104 75 451 108 115 452 109</p>
          <p>115 453 109 116 454 105 76 455 104</p>
          <p>77 456 100 76 457 104 116 458 105</p>
          <p>116 459 105 117 460 101 77 461 100</p>
          <p>78 462 96 77 463 100 117 464 101</p>
          <p>117 465 101 118 466 97 78 467 96</p>
          <p>79 468 92 78 469 96 118 470 97</p>
          <p>118 471 97 119 472 93 79 473 92</p>
          <p>40 474 89 79 475 92 119 476 93</p>
          <p>119 477 93 80 478 90 40 479 89</p>
          <p>81 480 168 80 481 169 120 482 170</p>
          <p>120 483 170 121 484 171 81 485 168</p>
          <p>82 486 174 81 487 168 121 488 171</p>
          <p>121 489 171 122 490 175 82 491 174</p>
          <p>83 492 178 82 493 174 122 494 175</p>
          <p>122 495 175 123 496 179 83 497 178</p>
          <p>84 498 182 83 499 178 123 500 179</p>
          <p>123 501 179 124 502 183 84 503 182</p>
          <p>85 504 186 84 505 182 124 506 183</p>
          <p>124 507 183 125 508 187 85 509 186</p>
          <p>86 510 190 85 511 186 125 512 187</p>
          <p>125 513 187 126 514 191 86 515 190</p>
          <p>87 516 194 86 517 190 126 518 191</p>
          <p>126 519 191 127 520 195 87 521 194</p>
          <p>88 522 198 87 523 199 127 524 200</p>
          <p>127 525 200 128 526 201 88 527 198</p>
          <p>89 528 202 88 529 198 128 530 201</p>
          <p>128 531 201 129 532 203 89 533 202</p>
          <p>90 534 204 89 535 202 129 536 203</p>
          <p>129 537 203 130 538 205 90 539 204</p>
          <p>91 540 206 90 541 204 130 542 205</p>
          <p>130 543 205 131 544 207 91 545 206</p>
          <p>92 546 208 91 547 206 131 548 207</p>
          <p>131 549 207 132 550 209 92 551 208</p>
          <p>93 552 210 92 553 208 132 554 209</p>
          <p>132 555 209 133 556 211 93 557 210</p>
          <p>94 558 212 93 559 210 133 560 211</p>
          <p>133 561 211 134 562 213 94 563 212</p>
          <p>95 564 214 94 565 212 134 566 213</p>
          <p>134 567 213 135 568 215 95 569 214</p>
          <p>96 570 216 95 571 214 135 572 215</p>
          <p>135 573 215 136 574 217 96 575 216</p>
          <p>97 576 218 96 577 216 136 578 217</p>
          <p>136 579 217 137 580 219 97 581 218</p>
          <p>98 582 220 97 583 221 137 584 222</p>
          <p>137 585 222 138 586 223 98 587 220</p>
          <p>99 588 224 98 589 220 138 590 223</p>
          <p>138 591 223 139 592 225 99 593 224</p>
          <p>100 594 226 99 595 224 139 596 225</p>
          <p>139 597 225 140 598 227 100 599 226</p>
          <p>101 600 228 100 601 226 140 602 227</p>
          <p>140 603 227 141 604 229 101 605 228</p>
          <p>102 606 230 101 607 228 141 608 229</p>
          <p>141 609 229 142 610 231 102 611 230</p>
          <p>103 612 232 102 613 230 142 614 231</p>
          <p>142 615 231 143 616 233 103 617 232</p>
          <p>104 618 234 103 619 232 143 620 233</p>
          <p>143 621 233 144 622 235 104 623 234</p>
          <p>105 624 236 104 625 234 144 626 235</p>
          <p>144 627 235 145 628 237 105 629 236</p>
          <p>106 630 238 105 631 236 145 632 237</p>
          <p>145 633 237 146 634 239 106 635 238</p>
          <p>107 636 240 106 637 238 146 638 239</p>
          <p>146 639 239 147 640 241 107 641 240</p>
          <p>108 642 242 107 643 243 147 644 244</p>
          <p>147 645 244 148 646 245 108 647 242</p>
          <p>109 648 246 108 649 242 148 650 245</p>
          <p>148 651 245 149 652 247 109 653 246</p>
          <p>110 654 248 109 655 246 149 656 247</p>
          <p>149 657 247 150 658 249 110 659 248</p>
          <p>111 660 250 110 661 248 150 662 249</p>
          <p>150 663 249 151 664 251 111 665 250</p>
          <p>112 666 252 111 667 250 151 668 251</p>
          <p>151 669 251 152 670 253 112 671 252</p>
          <p>113 672 254 112 673 252 152 674 253</p>
          <p>152 675 253 153 676 255 113 677 254</p>
          <p>114 678 192 113 679 196 153 680 197</p>
          <p>153 681 197 154 682 193 114 683 192</p>
          <p>115 684 188 114 685 192 154 686 193</p>
          <p>154 687 193 155 688 189 115 689 188</p>
          <p>116 690 184 115 691 188 155 692 189</p>
          <p>155 693 189 156 694 185 116 695 184</p>
          <p>117 696 180 116 697 184 156 698 185</p>
          <p>156 699 185 157 700 181 117 701 180</p>
          <p>118 702 176 117 703 180 157 704 181</p>
          <p>157 705 181 158 706 177 118 707 176</p>
          <p>119 708 172 118 709 176 158 710 177</p>
          <p>158 711 177 159 712 173 119 713 172</p>
          <p>80 714 169 119 715 172 159 716 173</p>
          <p>159 717 173 120 718 170 80 719 169</p>
          <p>121 720 256 120 721 257 0 722 258</p>
          <p>0 723 258 1 724 259 121 725 256</p>
          <p>122 726 262 121 727 256 1 728 259</p>
          <p>1 729 259 2 730 263 122 731 262</p>
          <p>123 732 266 122 733 262 2 734 263</p>
          <p>2 735 263 3 736 267 123 737 266</p>
          <p>124 738 270 123 739 266 3 740 267</p>
          <p>3 741 267 4 742 271 124 743 270</p>
          <p>125 744 274 124 745 270 4 746 271</p>
          <p>4 747 271 5 748 275 125 749 274</p>
          <p>126 750 278 125 751 274 5 752 275</p>
          <p>5 753 275 6 754 279 126 755 278</p>
          <p>127 756 282 126 757 278 6 758 279</p>
          <p>6 759 279 7 760 283 127 761 282</p>
          <p>128 762 286 127 763 282 7 764 283</p>
          <p>7 765 283 8 766 287 128 767 286</p>
          <p>129 768 290 128 769 286 8 770 287</p>
          <p>8 771 287 9 772 291 129 773 290</p>
          <p>130 774 294 129 775 290 9 776 291</p>
          <p>9 777 291 10 778 295 130 779 294</p>
          <p>131 780 298 130 781 294 10 782 295</p>
          <p>10 783 295 11 784 299 131 785 298</p>
          <p>132 786 302 131 787 298 11 788 299</p>
          <p>11 789 299 12 790 303 132 791 302</p>
          <p>133 792 306 132 793 302 12 794 303</p>
          <p>12 795 303 13 796 307 133 797 306</p>
          <p>134 798 310 133 799 306 13 800 307</p>
          <p>13 801 307 14 802 311 134 803 310</p>
          <p>135 804 314 134 805 310 14 806 311</p>
          <p>14 807 311 15 808 315 135 809 314</p>
          <p>136 810 318 135 811 314 15 812 315</p>
          <p>15 813 315 16 814 319 136 815 318</p>
          <p>137 816 322 136 817 318 16 818 319</p>
          <p>16 819 319 17 820 323 137 821 322</p>
          <p>138 822 326 137 823 322 17 824 323</p>
          <p>17 825 323 18 826 327 138 827 326</p>
          <p>139 828 330 138 829 326 18 830 327</p>
          <p>18 831 327 19 832 331 139 833 330</p>
          <p>140 834 334 139 835 330 19 836 331</p>
          <p>19 837 331 20 838 335 140 839 334</p>
          <p>141 840 332 140 841 334 20 842 335</p>
          <p>20 843 335 21 844 333 141 845 332</p>
          <p>142 846 328 141 847 332 21 848 333</p>
          <p>21 849 333 22 850 329 142 851 328</p>
          <p>143 852 324 142 853 328 22 854 329</p>
          <p>22 855 329 23 856 325 143 857 324</p>
          <p>144 858 320 143 859 324 23 860 325</p>
          <p>23 861 325 24 862 321 144 863 320</p>
          <p>145 864 316 144 865 320 24 866 321</p>
          <p>24 867 321 25 868 317 145 869 316</p>
          <p>146 870 312 145 871 316 25 872 317</p>
          <p>25 873 317 26 874 313 146 875 312</p>
          <p>147 876 308 146 877 312 26 878 313</p>
          <p>26 879 313 27 880 309 147 881 308</p>
          <p>148 882 304 147 883 308 27 884 309</p>
          <p>27 885 309 28 886 305 148 887 304</p>
          <p>149 888 300 148 889 304 28 890 305</p>
          <p>28 891 305 29 892 301 149 893 300</p>
          <p>150 894 296 149 895 300 29 896 301</p>
          <p>29 897 301 30 898 297 150 899 296</p>
          <p>151 900 292 150 901 296 30 902 297</p>
          <p>30 903 297 31 904 293 151 905 292</p>
          <p>152 906 288 151 907 292 31 908 293</p>
          <p>31 909 293 32 910 289 152 911 288</p>
          <p>153 912 284 152 913 288 32 914 289</p>
          <p>32 915 289 33 916 285 153 917 284</p>
          <p>154 918 280 153 919 284 33 920 285</p>
          <p>33 921 285 34 922 281 154 923 280</p>
          <p>155 924 276 154 925 280 34 926 281</p>
          <p>34 927 281 35 928 277 155 929 276</p>
          <p>156 930 272 155 931 276 35 932 277</p>
          <p>35 933 277 36 934 273 156 935 272</p>
          <p>157 936 268 156 937 272 36 938 273</p>
          <p>36 939 273 37 940 269 157 941 268</p>
          <p>158 942 264 157 943 268 37 944 269</p>
          <p>37 945 269 38 946 265 158 947 264</p>
          <p>159 948 260 158 949 264 38 950 265</p>
          <p>38 951 265 39 952 261 159 953 260</p>
          <p>120 954 257 159 955 260 39 956 261</p>
          <p>39 957 261 0 958 258 120 959 257</p>
        </polygons>
      </mesh>
    </geometry>
  </library_geometries>
  <library_visual_scenes>
    <visual_scene id="RootNode" name="RootNode">
      <node id="pPipe1" name="pPipe1">
        <matrix sid="matrix">1.000000 0.000000 0.000000 0.000000 0.000000 1.000000 0.000000 0.500000 0.000000 0.000000 1.000000 0.000000 0.000000 0.000000 0.000000 1.000000</matrix>
        <instance_geometry url="#pPipe1-lib">
          <bind_material>
            <technique_common>
              <instance_material symbol="lambert1" target="#lambert1"/>
            </technique_common>
          </bind_material>
        </instance_geometry>
      </node>
    </visual_scene>
  </library_visual_scenes>
  <scene>
    <instance_visual_scene url="#RootNode"/>
  </scene>
</COLLADA>

